<svg width="44" height="58" viewBox="0 0 44 58" fill="none" xmlns="http://www.w3.org/2000/svg">
<path d="M9.06055 35.7191V36.3955C9.06055 40.8904 11.3857 43.7433 13.4271 44.9161V27.8804C11.2329 28.9223 9.20792 29.2986 9.06055 35.7191Z" fill="#E4B564"/>
<path d="M17.9849 47.627C18.7982 48.047 19.6769 48.478 20.6212 48.9417V31.9386L22.608 33.9242C23.1492 34.47 23.4532 35.2069 23.454 35.9753V48.9035C24.3983 48.4398 25.277 48.0034 26.0958 47.5834C26.612 47.3165 27.0445 46.9126 27.346 46.416C27.6474 45.9195 27.8059 45.3494 27.8042 44.7686V35.0643C27.8049 34.4024 27.6745 33.7469 27.4206 33.1356C27.1668 32.5243 26.7944 31.9692 26.325 31.5022L21.6255 26.8001L26.325 22.0979C26.7939 21.6306 27.166 21.0755 27.4198 20.4642C27.6736 19.853 27.8043 19.1977 27.8042 18.5359V1.68558L23.4376 0.0490966V17.6412C23.4368 18.4096 23.1328 19.1466 22.5916 19.6923L20.6048 21.6779V0L16.2383 1.63648V44.7904C16.2367 45.3788 16.3993 45.9559 16.7079 46.457C17.0164 46.9581 17.4587 47.3633 17.9849 47.627Z" fill="#E4B564"/>
<path d="M43.922 11.0026C43.9237 10.0686 43.6404 9.15622 43.1099 8.38725C42.5794 7.61828 41.8269 7.02922 40.9528 6.69865L37.7106 5.46584V19.1796L34.9051 22.5289L34.9488 9.0661V4.41848L30.5822 2.782V44.785C33.6115 42.2758 34.8669 38.9373 34.8669 31.6932V29.3639L37.6779 25.9873V31.6932C37.6779 45.0632 33.2076 47.2561 24.2944 51.6201C23.5302 51.9965 22.7443 52.3783 21.9365 52.782C21.1286 52.3783 20.3427 51.9965 19.5785 51.6201C10.6653 47.2561 6.19505 45.0742 6.19505 31.6932V10.1134L9.02784 9.02245V17.0576C9.17521 23.478 11.2111 23.8544 13.3944 24.8963V2.73291L2.96926 6.69865C2.09516 7.02922 1.34268 7.61828 0.812168 8.38725C0.281661 9.15622 -0.00165448 10.0686 7.26839e-06 11.0026V12.4536L1.86125 11.7445V31.6495C1.86125 47.7253 8.4984 50.9764 17.69 55.4767C18.7434 56.0222 19.8351 56.5295 20.9649 57.1132L21.9528 57.6205L22.9408 57.1132C24.0761 56.535 25.1677 56.0222 26.2157 55.4767C35.3963 50.9764 42.0444 47.7253 42.0444 31.6495V11.7663L43.9057 12.4754L43.922 11.0026Z" fill="#E4B564"/>
</svg>
