<svg width="40" height="40" viewBox="0 0 40 40" fill="none" xmlns="http://www.w3.org/2000/svg">
<g clip-path="url(#clip0)">
<path d="M20.0002 5C19.5082 5 19.0162 5.18608 18.6437 5.55859L17.6291 6.57422L16.3029 6.02441H16.3019C15.3285 5.62173 14.1994 6.08905 13.7961 7.0625L13.7931 7.06738L13.2385 8.49707H11.9191C10.8658 8.49707 10.0002 9.36215 10.0002 10.416V11.7354L8.57146 12.291L8.56658 12.293C7.5932 12.6963 7.12407 13.8262 7.52751 14.7998L8.07732 16.126L7.06267 17.1406C6.31705 17.8856 6.31727 19.1084 7.06169 19.8535L8.07634 20.8682L7.52654 22.1943V22.1953C7.12385 23.1688 7.59215 24.2978 8.5656 24.7012L8.57048 24.7031L10.0002 25.2588V27.0781C10.0002 28.1318 10.8655 28.9971 11.9191 28.9971H11.9699L8.70134 36.5889L13.757 36.0273L16.6818 40.3008L20.0031 32.4912L23.3185 40.3018L26.2433 36.0273L31.3049 36.5898L27.7287 28.415H28.0002C29.0535 28.415 29.9191 27.55 29.9191 26.4961V25.2646L31.426 24.7041L31.4347 24.7012C32.4081 24.2978 32.8763 23.168 32.4728 22.1943L31.923 20.8682L32.9386 19.8535C33.6837 19.1085 33.6837 17.8847 32.9386 17.1396L31.923 16.125L32.4728 14.7988C32.8755 13.8254 32.4082 12.6954 31.4347 12.292L31.4299 12.29L30.0002 11.7354V10.416C30.0002 9.36257 29.1352 8.49707 28.0812 8.49707H26.7619L26.2062 7.06738L26.2043 7.0625C25.8009 6.08913 24.6711 5.62097 23.6974 6.02441L22.3713 6.57422L21.3566 5.55859C20.9841 5.18608 20.4922 5 20.0002 5ZM20.0002 5.99414C20.2341 5.99414 20.4681 6.08512 20.6496 6.2666L22.1369 7.75293L24.0802 6.94824C24.5546 6.75169 25.0838 6.97068 25.2804 7.44531L26.0783 9.49707H28.0812C28.5952 9.49707 29.0002 9.90246 29.0002 10.416V12.4189L31.0519 13.2158C31.5265 13.4125 31.7453 13.9415 31.549 14.416L30.7443 16.3594L32.2306 17.8467C32.5936 18.2097 32.5936 18.7835 32.2306 19.1465L30.7443 20.6328L31.549 22.5771C31.7454 23.051 31.5266 23.5792 31.0529 23.7764L28.9191 24.5693V26.4961C28.9191 27.0092 28.5128 27.415 28.0002 27.415H26.0724L25.2795 29.5488C25.0824 30.0224 24.5543 30.242 24.0802 30.0459L22.1369 29.2402L20.6496 30.7275C20.2866 31.0905 19.7137 31.0905 19.3508 30.7275L17.8635 29.2402L15.9201 30.0459C15.4457 30.2425 14.9166 30.0225 14.7199 29.5479L14.7092 29.5234L13.8771 27.9971H11.9191C11.4058 27.9971 11.0002 27.5915 11.0002 27.0781V24.5752L8.94841 23.7773C8.47386 23.5807 8.25405 23.0517 8.45036 22.5771L9.25603 20.6338L7.76872 19.1465C7.40617 18.7836 7.40629 18.2107 7.7697 17.8477L9.25701 16.3604L8.45134 14.417C8.25479 13.9426 8.47476 13.4135 8.94939 13.2168L11.0002 12.4189V10.416C11.0002 9.90288 11.4064 9.49707 11.9191 9.49707H13.923L14.7199 7.44531C14.9165 6.97076 15.4455 6.75193 15.9201 6.94824L17.8635 7.75293L19.3508 6.2666C19.5322 6.08512 19.7662 5.99414 20.0002 5.99414ZM20.5646 9.02539L20.1642 9.22656L20.0851 9.66699L20.3908 9.99414L20.5646 10.0254L20.965 9.8252L21.0441 9.38379L20.7385 9.05664L20.5646 9.02539ZM18.3136 9.16016L17.9133 9.36133L17.8342 9.80176L18.1408 10.1289L18.3136 10.1602L18.715 9.95996L18.7931 9.51855L18.4875 9.19141L18.3136 9.16016ZM22.7804 9.43945L22.3801 9.64062L22.301 10.0811L22.6066 10.4082L22.7804 10.4395L23.1808 10.2393L23.2599 9.79785L22.9543 9.4707L22.7804 9.43945ZM16.172 9.86133L15.7717 10.0615L15.6926 10.5029L15.9982 10.8301L16.172 10.8613L16.5724 10.6602L16.6515 10.2197L16.3449 9.8916L16.172 9.86133ZM24.8185 10.4043L24.4181 10.6055L24.339 11.0459L24.6447 11.373L24.8185 11.4043L25.2189 11.2041L25.298 10.7627L24.9924 10.4355L24.8185 10.4043ZM14.2638 11.0625L13.8635 11.2637L13.7843 11.7041L14.09 12.0322L14.2638 12.0625L14.6642 11.8623L14.7433 11.4209L14.4367 11.0938L14.2638 11.0625ZM26.5539 11.8418L26.1535 12.043L26.0744 12.4844L26.381 12.8115L26.5539 12.8418L26.9543 12.6416L27.0334 12.2002L26.7277 11.873L26.5539 11.8418ZM12.7258 12.7129L12.3254 12.9131L12.2463 13.3545L12.5529 13.6816L12.7258 13.7129L13.1271 13.5117L13.2052 13.0703L12.8996 12.7432L12.7258 12.7129ZM27.8859 13.6621L27.4855 13.8623L27.4064 14.3037L27.7131 14.6309L27.8859 14.6621L28.2873 14.4609L28.3654 14.0195L28.0597 13.6924L27.8859 13.6621ZM24.9699 14.4668L18.5002 20.9365L15.0304 17.4668L13.9699 18.5273L18.5002 23.0576L26.0304 15.5273L24.9699 14.4668ZM11.6369 14.6855L11.2365 14.8867L11.1574 15.3271L11.464 15.6553L11.6369 15.6855L12.0373 15.4854L12.1164 15.0439L11.8107 14.7168L11.6369 14.6855ZM28.7092 15.7607L28.3078 15.9619L28.2297 16.4023L28.5353 16.7295L28.7092 16.7607L29.1095 16.5605L29.1886 16.1191L28.882 15.792L28.7092 15.7607ZM11.0783 16.8701L10.6779 17.0703L10.5988 17.5117L10.9045 17.8389L11.0783 17.8701L11.4787 17.6689L11.5578 17.2285L11.2521 16.9014L11.0783 16.8701ZM29.0002 17.9971L28.5998 18.1973V18.1982L28.5207 18.6387L28.8263 18.9658L29.0002 18.9971L29.4006 18.7959L29.4797 18.3555L29.174 18.0283L29.0002 17.9971ZM11.0783 19.124L10.6779 19.3252L10.5988 19.7656L10.9045 20.0928L11.0783 20.124L11.4787 19.9238L11.5578 19.4824L11.2521 19.1553L11.0783 19.124ZM28.7092 20.2334L28.3078 20.4336L28.2297 20.875L28.5353 21.2021L28.7092 21.2334L29.1095 21.0322L29.1886 20.5918L28.882 20.2646L28.7092 20.2334ZM11.6369 21.3086L11.2365 21.5088L11.1574 21.9502L11.464 22.2773L11.6369 22.3086L12.0373 22.1074L12.1164 21.667L11.8107 21.3398L11.6369 21.3086ZM27.8859 22.332L27.4855 22.5332L27.4064 22.9736L27.7131 23.3008L27.8859 23.332L28.2873 23.1318L28.3654 22.6904L28.0597 22.3633L27.8859 22.332ZM12.7258 23.2812L12.3254 23.4824L12.2463 23.9238L12.5529 24.251L12.7258 24.2812L13.1271 24.0811L13.2052 23.6396L12.8996 23.3125L12.7258 23.2812ZM26.5539 24.1514L26.1535 24.3525L26.0744 24.7939L26.381 25.1211L26.5539 25.1514L26.9552 24.9512L27.0334 24.5098L26.7277 24.1826L26.5539 24.1514ZM14.2638 24.9316L13.8635 25.1318L13.7843 25.5732L14.09 25.9004L14.2638 25.9316L14.6642 25.7305L14.7433 25.29L14.4377 24.9629L14.2638 24.9316ZM24.8185 25.5898L24.4181 25.79L24.339 26.2314L24.6447 26.5586L24.8185 26.5898L25.2189 26.3887L25.298 25.9482L24.9924 25.6211L24.8185 25.5898ZM16.172 26.1328L15.7717 26.334L15.6926 26.7744L15.9982 27.1025L16.172 27.1328L16.5724 26.9326L16.6515 26.4912L16.3449 26.1641L16.172 26.1328ZM22.7804 26.5547L22.3801 26.7549L22.301 27.1963L22.6066 27.5234L22.7804 27.5547L23.1808 27.3535L23.2599 26.9131L22.9543 26.585L22.7804 26.5547ZM18.3146 26.834L17.9133 27.0342L17.8351 27.4756L18.1408 27.8027L18.3146 27.834L18.715 27.6328L18.7941 27.1924L18.4875 26.8652L18.3146 26.834ZM20.5646 26.9688L20.1642 27.1689L20.0851 27.6104L20.3918 27.9375L20.5646 27.9688L20.965 27.7676L21.0441 27.3271L20.7385 27L20.5646 26.9688ZM26.7082 28.5762L29.6955 35.4043L25.757 34.9668L23.5246 38.2285L20.8019 31.8125C21.0024 31.7207 21.1924 31.5988 21.3566 31.4346L22.3713 30.4199L23.6974 30.9697H23.6984C24.6719 31.3724 25.8009 30.9041 26.2043 29.9307L26.2082 29.9219L26.7082 28.5762ZM13.0588 28.9971H13.2834L13.8185 29.9785L13.7961 29.9307C14.1994 30.904 15.3293 31.3732 16.3029 30.9697L17.6291 30.4199L18.6437 31.4346C18.8096 31.6004 19.0016 31.7234 19.2043 31.8154L16.4758 38.2285L14.2433 34.9668L10.299 35.4053L13.0588 28.9971Z" fill="#E4B564"/>
</g>
<defs>
<clipPath id="clip0">
<rect width="40" height="40" fill="white"/>
</clipPath>
</defs>
</svg>
