<svg aria-hidden="true" style="position: absolute; width: 0; height: 0; overflow: hidden;" version="1.1"
  xmlns="http://www.w3.org/2000/svg" xmlns:xlink="http://www.w3.org/1999/xlink">
  <defs>
    <symbol id="beton-block" viewBox="0 0 32 32">
      <path fill="#e4b564" style="fill: var(--color1, #e4b564)"
        d="M22.207 9.143c-0.093 0.002-0.183 0.038-0.253 0.099s-0.117 0.146-0.132 0.238c-0.015 0.092 0.003 0.187 0.051 0.267s0.122 0.142 0.21 0.173c1.128 0.424 2.038 0.954 2.645 1.528s0.908 1.168 0.908 1.774c0 0.539-0.236 1.066-0.717 1.583s-1.206 1.008-2.12 1.423c-1.828 0.831-4.402 1.36-7.248 1.36s-5.421-0.529-7.248-1.36c-0.914-0.415-1.639-0.906-2.12-1.423s-0.717-1.044-0.717-1.583c0-0.54 0.237-1.067 0.72-1.584s1.209-1.009 2.126-1.425c0.050-0.021 0.095-0.051 0.132-0.089s0.067-0.084 0.087-0.134c0.020-0.050 0.029-0.103 0.028-0.157s-0.013-0.107-0.036-0.155c-0.022-0.049-0.054-0.093-0.094-0.129s-0.086-0.064-0.136-0.082c-0.051-0.018-0.104-0.026-0.158-0.022s-0.106 0.017-0.154 0.041c-0.986 0.447-1.799 0.983-2.38 1.607s-0.934 1.352-0.934 2.13c0 0.777 0.351 1.505 0.931 2.128s1.391 1.159 2.374 1.606c1.967 0.894 4.635 1.432 7.58 1.432s5.613-0.538 7.58-1.432c0.984-0.447 1.794-0.983 2.374-1.606s0.931-1.351 0.931-2.128c0-0.874-0.442-1.68-1.159-2.356s-1.713-1.244-2.913-1.695c-0.050-0.020-0.103-0.029-0.157-0.028zM2.73 14.088c-0.106 0.002-0.207 0.045-0.281 0.121s-0.114 0.178-0.113 0.284c0 0.923 0.416 1.79 1.114 2.54s1.68 1.401 2.874 1.944c2.389 1.086 5.639 1.741 9.227 1.741s6.837-0.656 9.226-1.741c1.194-0.543 2.176-1.194 2.874-1.944s1.114-1.617 1.114-2.54c0.001-0.053-0.009-0.106-0.029-0.155s-0.049-0.094-0.086-0.132c-0.037-0.038-0.082-0.068-0.13-0.088s-0.101-0.031-0.154-0.031-0.106 0.011-0.154 0.031c-0.049 0.020-0.093 0.050-0.13 0.088s-0.067 0.082-0.086 0.132c-0.020 0.049-0.030 0.102-0.029 0.155 0 0.685-0.301 1.352-0.9 1.995s-1.494 1.248-2.619 1.759c-2.249 1.022-5.406 1.67-8.895 1.67s-6.647-0.648-8.896-1.67c-1.125-0.511-2.020-1.116-2.619-1.759s-0.9-1.31-0.9-1.995c0.001-0.053-0.009-0.107-0.029-0.156s-0.050-0.095-0.088-0.132c-0.038-0.038-0.083-0.068-0.133-0.088s-0.103-0.030-0.156-0.029z">
      </path>
      <path fill="none" stroke="#e4b564" style="stroke: var(--color1, #e4b564)" stroke-linejoin="miter"
        stroke-linecap="butt" stroke-miterlimit="4" stroke-width="1.6" d="M3.086 13.714v13.714"></path>
      <path fill="none" stroke="#e4b564" style="stroke: var(--color1, #e4b564)" stroke-linejoin="miter"
        stroke-linecap="butt" stroke-miterlimit="4" stroke-width="1.6" d="M28.686 13.714v13.714"></path>
      <path fill="none" stroke="#e4b564" style="stroke: var(--color1, #e4b564)" stroke-linejoin="miter"
        stroke-linecap="butt" stroke-miterlimit="4" stroke-width="1.6" d="M2.743 26.628h25.143"></path>
    </symbol>
    <symbol id="burger" viewBox="0 0 32 32">
      <path fill="#fff" style="fill: var(--color2, #fff)"
        d="M0 2.666v2.667h32v-2.667h-32zM0 14.666v2.667h32v-2.667h-32zM0 26.666v2.667h32v-2.667h-32z"></path>
    </symbol>
    <symbol id="checkbox" viewBox="0 0 32 32">
      <path fill="#fff" style="fill: var(--color2, #fff)"
        d="M27.057 7.058l-15.057 15.057-5.724-5.724-1.885 1.885 7.609 7.609 16.943-16.943-1.886-1.885z"></path>
    </symbol>
    <symbol id="collapse_arrow" viewBox="0 0 32 32">
      <path fill="#e4b564" style="fill: var(--color1, #e4b564)"
        d="M16.009 23.040c0.168-0.003 0.325-0.070 0.442-0.188l12.8-12.8c0.167-0.16 0.235-0.4 0.175-0.623-0.058-0.225-0.233-0.4-0.458-0.457-0.222-0.060-0.462 0.008-0.622 0.175l-12.348 12.348-12.348-12.348c-0.16-0.168-0.4-0.235-0.623-0.175-0.225 0.057-0.4 0.232-0.458 0.457-0.060 0.223 0.007 0.463 0.175 0.623l12.8 12.8c0.123 0.122 0.29 0.19 0.462 0.188z">
      </path>
    </symbol>
    <symbol id="derevo" viewBox="0 0 32 32">
      <path fill="#e4b564" style="fill: var(--color1, #e4b564)"
        d="M15.102 3.080c-0.929 0-1.723 0.467-2.275 1.134-0.209-0.056-0.417-0.12-0.654-0.12-1.342 0-2.411 1.004-2.634 2.289-0.36-0.182-0.749-0.314-1.182-0.314-1.502 0-2.726 1.234-2.726 2.741 0 0.12 0.031 0.219 0.048 0.33-1.146 0.323-2.007 1.336-2.007 2.588 0 1.415 1.091 2.55 2.465 2.689-0.267 0.426-0.444 0.898-0.483 1.429-1.155 0.318-2.023 1.342-2.023 2.601 0 1.508 1.224 2.742 2.727 2.742 0.123 0 0.226-0.034 0.341-0.052 0.329 1.138 1.329 1.995 2.566 1.995 0.865 0 1.593-0.452 2.091-1.086 0.248 0.060 0.498 0.122 0.777 0.122 0.664 0 1.279-0.198 1.816-0.509 0.136 0.048 0.274 0.092 0.416 0.127-0.003 1.251-0.152 2.126-0.368 2.697-0.236 0.623-0.527 0.907-0.805 1.070-0.348 0.203-0.845 0.237-1.759 0.734-0.91 0.496-1.548 1.095-1.948 1.53-0.036 0.039-0.064 0.084-0.082 0.133s-0.027 0.102-0.024 0.155c0.002 0.053 0.015 0.104 0.037 0.152s0.054 0.091 0.092 0.126 0.084 0.063 0.134 0.081c0.049 0.018 0.102 0.026 0.155 0.024s0.104-0.015 0.152-0.037c0.048-0.022 0.091-0.054 0.126-0.093 0.361-0.392 0.931-0.928 1.741-1.369 0.813-0.443 1.232-0.426 1.779-0.745 0.437-0.255 0.862-0.718 1.149-1.477 0.261-0.689 0.414-1.641 0.42-2.935 0.45-0.055 0.86-0.226 1.223-0.461 0.256 0.24 0.556 0.434 0.894 0.541-0.138 1.137-0.11 1.991 0.045 2.627 0.171 0.707 0.502 1.168 0.862 1.441 0.636 0.482 1.21 0.436 2.025 1.077 0.522 0.411 0.858 0.865 1.057 1.179 0.028 0.044 0.065 0.083 0.108 0.113s0.092 0.052 0.143 0.063c0.051 0.011 0.104 0.013 0.156 0.004s0.101-0.028 0.146-0.056 0.083-0.065 0.113-0.108c0.030-0.043 0.052-0.092 0.063-0.143s0.013-0.104 0.004-0.156-0.028-0.101-0.056-0.146c-0.23-0.362-0.621-0.894-1.238-1.379-0.961-0.757-1.658-0.799-2.037-1.086-0.215-0.162-0.432-0.428-0.569-0.991-0.124-0.51-0.158-1.281-0.026-2.363 0.618-0.074 1.128-0.44 1.485-0.92 0.325 0.103 0.655 0.201 1.013 0.201 0.633 0 1.214-0.193 1.721-0.492 0.015 0.002 0.037 0.003 0.055 0.006 0.47 0.821 1.33 1.391 2.338 1.391 1.502 0 2.726-1.234 2.726-2.742 0-0.846-0.421-1.568-1.023-2.071 0.004-0.033 0.006-0.065 0.009-0.098 1.126-0.339 1.964-1.351 1.964-2.588 0-1.301-0.926-2.353-2.14-2.629-0.242-1.016-1.027-1.788-2.045-2.012 0.187-0.367 0.323-0.764 0.323-1.206 0-1.508-1.224-2.742-2.726-2.742-0.543 0-1.020 0.202-1.444 0.477-0.451-0.884-1.332-1.51-2.387-1.51-0.030 0-0.045 0.005-0.073 0.007-0.428-1.143-1.489-1.98-2.774-1.98zM15.102 3.88c1.040 0 1.902 0.725 2.138 1.699 0.023 0.096 0.081 0.18 0.163 0.236s0.181 0.080 0.279 0.067c0.116-0.015 0.204-0.029 0.268-0.029 0.877 0 1.603 0.591 1.839 1.401 0.019 0.066 0.055 0.126 0.105 0.174s0.11 0.083 0.177 0.1c0.067 0.018 0.137 0.018 0.203 0.001s0.128-0.051 0.177-0.099c0.348-0.337 0.811-0.544 1.33-0.544 1.066 0 1.926 0.864 1.926 1.942 0 0.478-0.177 0.907-0.466 1.25-0.050 0.059-0.082 0.132-0.091 0.209s0.004 0.156 0.038 0.225c0.034 0.070 0.088 0.128 0.155 0.168s0.144 0.059 0.222 0.055c0.084-0.004 0.103-0.008 0.058-0.008 0.978 0 1.771 0.732 1.898 1.685 0.012 0.088 0.052 0.17 0.116 0.232s0.145 0.102 0.234 0.112c0.958 0.115 1.7 0.918 1.7 1.917 0 0.965-0.695 1.753-1.604 1.909-0.074 0.013-0.143 0.046-0.199 0.097s-0.097 0.116-0.117 0.188l-0.216-0.23-0.138-0.025-0.32 0.161-0.063 0.353 0.245 0.262 0.139 0.024 0.309-0.155c-0.006 0.048-0.006 0.104-0.014 0.148-0.015 0.077-0.007 0.157 0.024 0.229s0.081 0.134 0.146 0.178c0.517 0.349 0.859 0.939 0.859 1.616 0 1.078-0.86 1.942-1.926 1.942-0.783 0-1.451-0.473-1.753-1.149-0.032-0.072-0.084-0.132-0.15-0.174s-0.143-0.064-0.221-0.063c-0.101 0.002-0.124 0.009-0.076 0.009-0.029 0-0.1-0.015-0.227-0.025-0.088-0.007-0.177 0.016-0.251 0.064-0.416 0.274-0.906 0.434-1.438 0.434-0.351 0-0.684-0.070-0.991-0.196-0.092-0.038-0.194-0.040-0.287-0.007s-0.171 0.1-0.218 0.187c-0.241 0.448-0.696 0.751-1.233 0.751-0.010 0-0.020-0.001-0.030-0.002-0.027-0.007-0.055-0.011-0.084-0.012-0.019-0-0.037 0-0.056 0.002-0.381-0.047-0.711-0.248-0.938-0.543-0.033-0.042-0.074-0.078-0.12-0.104s-0.098-0.043-0.151-0.049c-0.053-0.006-0.107-0.001-0.158 0.014s-0.099 0.040-0.14 0.074c-0.36 0.294-0.802 0.473-1.291 0.473-0.009 0-0.017-0.001-0.026-0.002-0.032-0.007-0.065-0.010-0.098-0.009-0.011 0-0.021 0.001-0.032 0.002-0.235-0.018-0.458-0.075-0.666-0.167-0.061-0.027-0.127-0.038-0.193-0.032s-0.13 0.027-0.185 0.063c-0.448 0.289-0.976 0.457-1.546 0.457-0.264 0-0.524-0.050-0.788-0.127-0.084-0.024-0.173-0.021-0.255 0.010s-0.151 0.088-0.197 0.162c-0.342 0.551-0.938 0.918-1.628 0.918-0.956 0-1.732-0.702-1.884-1.623l0.139-0.070 0.063-0.352-0.245-0.262-0.139-0.025-0.32 0.161-0.027 0.152c-0.17 0.047-0.332 0.077-0.495 0.077-1.067 0-1.927-0.864-1.927-1.942 0-0.979 0.713-1.772 1.641-1.912 0.098-0.015 0.187-0.065 0.25-0.142s0.095-0.174 0.090-0.273c-0.003-0.073-0.006-0.090-0.006-0.053 0-0.662 0.271-1.25 0.704-1.684l0.091 0.016 0.32-0.161 0.063-0.352-0.245-0.262-0.139-0.025-0.095 0.048c-0.084-0.043-0.181-0.055-0.273-0.033-0.147 0.035-0.29 0.055-0.434 0.055-1.066 0-1.925-0.864-1.925-1.942 0-0.997 0.741-1.801 1.696-1.916 0.057-0.007 0.111-0.026 0.16-0.056s0.091-0.070 0.123-0.117c0.032-0.047 0.054-0.101 0.063-0.157s0.007-0.114-0.008-0.169c-0.046-0.175-0.075-0.339-0.075-0.502 0-1.078 0.86-1.941 1.926-1.941 0.479 0 0.907 0.18 1.249 0.477 0.060 0.052 0.135 0.085 0.215 0.095s0.16-0.005 0.231-0.042c0.071-0.037 0.13-0.094 0.168-0.164s0.055-0.15 0.047-0.23c-0.010-0.098-0.019-0.151-0.019-0.17 0-1.078 0.86-1.942 1.926-1.942 0.215 0 0.424 0.045 0.634 0.119 0.084 0.029 0.175 0.030 0.259 0.002s0.157-0.083 0.206-0.156c0.398-0.592 1.066-0.98 1.83-0.98zM13.548 6.53l-0.32 0.161-0.063 0.352 0.245 0.262 0.138 0.025 0.32-0.16 0.063-0.353-0.245-0.262-0.139-0.025zM15.102 6.569l-0.32 0.16-0.063 0.353 0.245 0.262 0.138 0.025 0.32-0.161 0.063-0.352-0.244-0.262-0.139-0.025zM12.4 7.6l-0.32 0.161-0.063 0.352 0.245 0.262 0.139 0.025 0.32-0.161 0.063-0.352-0.245-0.262-0.139-0.025zM16.241 7.652l-0.32 0.16-0.063 0.353 0.244 0.262 0.139 0.025 0.32-0.161 0.063-0.352-0.245-0.263-0.138-0.024zM21.909 9.955l-0.32 0.16-0.063 0.353 0.245 0.262 0.139 0.025 0.32-0.161 0.063-0.352-0.244-0.263-0.139-0.024zM20.409 10.474l-0.32 0.16-0.063 0.353 0.245 0.262 0.138 0.025 0.321-0.161 0.062-0.352-0.244-0.263-0.139-0.024zM15.912 11.309l-0.32 0.16-0.063 0.353 0.245 0.262 0.139 0.025 0.32-0.161 0.063-0.352-0.244-0.262-0.139-0.024zM17.448 11.469l-0.32 0.161-0.063 0.353 0.244 0.262 0.139 0.024 0.32-0.16 0.063-0.353-0.245-0.262-0.139-0.025zM19.211 11.521l-0.321 0.161-0.062 0.352 0.244 0.262 0.139 0.025 0.32-0.16 0.063-0.353-0.245-0.262-0.138-0.025zM14.8 12.4l-0.32 0.161-0.063 0.352 0.245 0.262 0.139 0.025 0.32-0.161 0.063-0.352-0.245-0.262-0.139-0.025zM18.375 12.723l-0.32 0.16-0.063 0.353 0.245 0.262 0.138 0.025 0.32-0.161 0.063-0.353-0.244-0.262-0.139-0.024zM8.729 13.181l-0.32 0.161-0.063 0.353 0.245 0.262 0.139 0.024 0.32-0.16 0.063-0.353-0.245-0.262-0.138-0.025zM10.272 13.533l-0.321 0.161-0.062 0.353 0.244 0.262 0.139 0.024 0.32-0.16 0.063-0.353-0.245-0.262-0.138-0.025zM23.815 16.038l-0.32 0.161-0.063 0.352 0.244 0.262 0.139 0.025 0.32-0.16 0.063-0.353-0.244-0.262-0.139-0.025zM22.23 16.107l-0.32 0.161-0.063 0.353 0.245 0.262 0.138 0.024 0.321-0.16 0.062-0.353-0.245-0.262-0.139-0.025zM20.8 16.8l-0.32 0.161-0.063 0.352 0.245 0.262 0.139 0.025 0.32-0.161 0.063-0.352-0.245-0.262-0.139-0.025zM9.548 18.044l-0.321 0.16-0.062 0.353 0.244 0.262 0.139 0.025 0.32-0.161 0.063-0.352-0.245-0.262-0.138-0.025zM8.112 18.706l-0.321 0.161-0.063 0.352 0.245 0.262 0.139 0.025 0.32-0.16 0.063-0.353-0.245-0.262-0.138-0.025z">
      </path>
    </symbol>
    <symbol id="download" viewBox="0 0 32 32">
      <path fill="#e4b564" style="fill: var(--color1, #e4b564)"
        d="M14 4v14.586l-5.297-5.289-1.406 1.406 7.703 7.711 7.711-7.711-1.422-1.406-5.289 5.289v-14.586h-2zM6 26v2h18v-2h-18z">
      </path>
    </symbol>
    <symbol id="kranik" viewBox="0 0 32 32">
      <path fill="#e4b564" style="fill: var(--color1, #e4b564)"
        d="M6.828 5.042c-0.092-0.003-0.183 0.008-0.272 0.027-0.53 0.116-0.956 0.589-0.956 1.173v2.958c0 0.658 0.542 1.2 1.2 1.2h4.167c0.177 0.442 0.53 0.8 1.033 0.8h0.8v1.2h-2.4c-0.503 0-0.856 0.358-1.033 0.8h-3.767c-0.144-0.002-0.278 0.073-0.352 0.198-0.072 0.125-0.072 0.278 0 0.403 0.073 0.125 0.208 0.2 0.352 0.198h3.6c0 0.22 0.18 0.4 0.4 0.4s0.4-0.18 0.4-0.4v-0.4c0-0.227 0.173-0.4 0.4-0.4h2.733c0.044 0.008 0.088 0.008 0.13 0h2.27c0.044 0.008 0.088 0.008 0.13 0h2.738c0.227 0 0.4 0.173 0.4 0.4v0.4c0 0.22 0.18 0.4 0.4 0.4s0.4-0.18 0.4-0.4h2c4.202 0 7.6 3.398 7.6 7.6v2.8h0.4c0.227 0 0.4 0.173 0.4 0.4s-0.173 0.4-0.4 0.4h-6.4c-0.227 0-0.4-0.173-0.4-0.4s0.173-0.4 0.4-0.4h0.4v-2c0-1.1-0.9-2-2-2h-2c0-0.22-0.18-0.4-0.4-0.4s-0.4 0.18-0.4 0.4v0.4c0 0.227-0.173 0.4-0.4 0.4h-8c-0.227 0-0.4-0.173-0.4-0.4v-0.4c0-0.22-0.18-0.4-0.4-0.4s-0.4 0.18-0.4 0.4h-3.6c-0.144-0.002-0.278 0.073-0.352 0.198-0.072 0.125-0.072 0.278 0 0.403 0.073 0.125 0.208 0.2 0.352 0.198h3.767c0.177 0.442 0.53 0.8 1.033 0.8h8c0.503 0 0.856-0.358 1.033-0.8h2.167c0.667 0 1.2 0.533 1.2 1.2v1.367c-0.442 0.177-0.8 0.53-0.8 1.033 0 0.658 0.542 1.2 1.2 1.2h6.4c0.658 0 1.2-0.542 1.2-1.2 0-0.503-0.358-0.856-0.8-1.033v-2.167c0-4.634-3.766-8.4-8.4-8.4h-2.167c-0.177-0.442-0.53-0.8-1.033-0.8h-2.4v-1.2h0.8c0.503 0 0.856-0.358 1.033-0.8h4.167c0.658 0 1.2-0.542 1.2-1.2v-2.958c0-0.78-0.758-1.361-1.509-1.161l-4.492 1.198c-0.425-0.397-0.967-0.68-1.598-0.68h-2.4c-0.631 0-1.173 0.283-1.598 0.68l-4.494-1.198c-0.094-0.025-0.188-0.037-0.28-0.039zM6.806 5.839c0.031 0.002 0.064 0.006 0.097 0.016l4.917 1.313 0.166-0.194c0.295-0.352 0.723-0.573 1.214-0.573h2.4c0.491 0 0.919 0.223 1.214 0.573l0.166 0.194 4.917-1.313c0.262-0.070 0.503 0.114 0.503 0.388v2.958c0 0.227-0.173 0.4-0.4 0.4h-4c0-0.22-0.18-0.4-0.4-0.4s-0.4 0.18-0.4 0.4v0.4c0 0.227-0.173 0.4-0.4 0.4h-1.138c-0.023-0.003-0.045-0.006-0.069-0.006-0.019 0.002-0.039 0.003-0.058 0.006h-2.273c-0.023-0.003-0.045-0.006-0.069-0.006-0.019 0.002-0.039 0.003-0.058 0.006h-1.136c-0.227 0-0.4-0.173-0.4-0.4v-0.4c0-0.22-0.18-0.4-0.4-0.4s-0.4 0.18-0.4 0.4h-4c-0.227 0-0.4-0.173-0.4-0.4v-2.958c0-0.239 0.184-0.411 0.406-0.403zM11.2 7.6c-0.22 0-0.4 0.18-0.4 0.4s0.18 0.4 0.4 0.4 0.4-0.18 0.4-0.4c0-0.22-0.18-0.4-0.4-0.4zM17.6 7.6c-0.22 0-0.4 0.18-0.4 0.4s0.18 0.4 0.4 0.4 0.4-0.18 0.4-0.4c0-0.22-0.18-0.4-0.4-0.4zM13.6 11.2h1.6v1.2h-1.6v-1.2zM2.4 13.2c-0.22 0-0.4 0.18-0.4 0.4s0.18 0.4 0.4 0.4c0.22 0 0.4-0.18 0.4-0.4s-0.18-0.4-0.4-0.4zM4 13.2c-0.22 0-0.4 0.18-0.4 0.4s0.18 0.4 0.4 0.4c0.22 0 0.4-0.18 0.4-0.4s-0.18-0.4-0.4-0.4zM9.6 15.2c-0.22 0-0.4 0.18-0.4 0.4s0.18 0.4 0.4 0.4c0.22 0 0.4-0.18 0.4-0.4s-0.18-0.4-0.4-0.4zM19.2 15.2c-0.22 0-0.4 0.18-0.4 0.4s0.18 0.4 0.4 0.4c0.22 0 0.4-0.18 0.4-0.4s-0.18-0.4-0.4-0.4zM9.6 16.8c-0.22 0-0.4 0.18-0.4 0.4s0.18 0.4 0.4 0.4c0.22 0 0.4-0.18 0.4-0.4s-0.18-0.4-0.4-0.4zM19.2 16.8c-0.22 0-0.4 0.18-0.4 0.4s0.18 0.4 0.4 0.4c0.22 0 0.4-0.18 0.4-0.4s-0.18-0.4-0.4-0.4zM9.6 18.4c-0.22 0-0.4 0.18-0.4 0.4s0.18 0.4 0.4 0.4c0.22 0 0.4-0.18 0.4-0.4s-0.18-0.4-0.4-0.4zM19.2 18.4c-0.22 0-0.4 0.18-0.4 0.4s0.18 0.4 0.4 0.4c0.22 0 0.4-0.18 0.4-0.4s-0.18-0.4-0.4-0.4zM2.4 20.4c-0.22 0-0.4 0.18-0.4 0.4s0.18 0.4 0.4 0.4c0.22 0 0.4-0.18 0.4-0.4s-0.18-0.4-0.4-0.4zM4 20.4c-0.22 0-0.4 0.18-0.4 0.4s0.18 0.4 0.4 0.4c0.22 0 0.4-0.18 0.4-0.4s-0.18-0.4-0.4-0.4zM24.8 23.6c-0.22 0-0.4 0.18-0.4 0.4s0.18 0.4 0.4 0.4c0.22 0 0.4-0.18 0.4-0.4s-0.18-0.4-0.4-0.4zM26.4 23.6c-0.22 0-0.4 0.18-0.4 0.4s0.18 0.4 0.4 0.4c0.22 0 0.4-0.18 0.4-0.4s-0.18-0.4-0.4-0.4zM28 23.6c-0.22 0-0.4 0.18-0.4 0.4s0.18 0.4 0.4 0.4c0.22 0 0.4-0.18 0.4-0.4s-0.18-0.4-0.4-0.4zM26.8 27.2c0 0-0.8 1.558-0.8 2s0.358 0.8 0.8 0.8 0.8-0.358 0.8-0.8c0-0.442-0.8-2-0.8-2z">
      </path>
    </symbol>
    <symbol id="location" viewBox="0 0 32 32">
      <path fill="#e4b564" style="fill: var(--color1, #e4b564)"
        d="M16 2c-5.508 0-10 4.492-10 10 0 1.547 0.633 3.242 1.508 5.031 0.875 1.797 2.016 3.672 3.164 5.383 2.281 3.43 4.555 6.219 4.555 6.219l0.773 0.953 0.773-0.953c0 0 2.273-2.789 4.563-6.219 1.141-1.711 2.281-3.586 3.156-5.383 0.875-1.789 1.508-3.484 1.508-5.031 0-5.508-4.492-10-10-10zM16 4c4.43 0 8 3.57 8 8 0 0.938-0.492 2.492-1.305 4.156-0.813 1.672-1.922 3.484-3.024 5.156-1.836 2.75-3.086 4.266-3.672 5-0.586-0.734-1.836-2.25-3.672-5-1.102-1.672-2.211-3.484-3.023-5.156-0.813-1.664-1.305-3.219-1.305-4.156 0-4.43 3.57-8 8-8zM16 10c-1.102 0-2 0.898-2 2s0.898 2 2 2c1.102 0 2-0.898 2-2s-0.898-2-2-2z">
      </path>
    </symbol>
    <symbol id="logo" viewBox="0 0 25 32">
      <path fill="#e4b564" style="fill: var(--color1, #e4b564)"
        d="M5.857 19.971v0.367c0 2.44 1.262 3.989 2.371 4.626v-9.249c-1.191 0.566-2.291 0.77-2.371 4.256z"></path>
      <path fill="#e4b564" style="fill: var(--color1, #e4b564)"
        d="M10.701 26.437c0.442 0.228 0.919 0.462 1.431 0.714v-9.231l1.079 1.078c0.294 0.296 0.459 0.696 0.459 1.114v7.019c0.513-0.252 0.99-0.489 1.434-0.717 0.28-0.145 0.515-0.364 0.679-0.634s0.25-0.579 0.249-0.894v-5.269c0-0.359-0.070-0.715-0.208-1.047s-0.34-0.633-0.595-0.887l-2.551-2.553 2.551-2.553c0.255-0.254 0.457-0.555 0.594-0.887s0.209-0.688 0.209-1.047v-9.148l-2.371-0.888v9.551c-0 0.417-0.166 0.817-0.459 1.114l-1.079 1.078v-11.769l-2.371 0.888v23.428c-0.001 0.319 0.087 0.633 0.255 0.905s0.408 0.492 0.693 0.635z">
      </path>
      <path fill="#e4b564" style="fill: var(--color1, #e4b564)"
        d="M24.783 6.553c0.001-0.507-0.153-1.002-0.441-1.42s-0.697-0.737-1.171-0.917l-1.76-0.669v7.445l-1.523 1.818 0.024-7.309v-2.523l-2.371-0.888v22.804c1.645-1.362 2.326-3.175 2.326-7.108v-1.265l1.526-1.833v3.098c0 7.259-2.427 8.449-7.266 10.818-0.415 0.204-0.842 0.412-1.28 0.631-0.439-0.219-0.865-0.426-1.28-0.631-4.839-2.369-7.266-3.554-7.266-10.818v-11.716l1.538-0.592v4.362c0.080 3.486 1.185 3.69 2.371 4.256v-12.033l-5.66 2.153c-0.475 0.179-0.883 0.499-1.171 0.917s-0.442 0.913-0.441 1.42v0.788l1.010-0.385v10.807c0 8.727 3.603 10.493 8.593 12.936 0.572 0.296 1.165 0.572 1.778 0.889l0.536 0.275 0.536-0.275c0.616-0.314 1.209-0.592 1.778-0.889 4.984-2.443 8.593-4.208 8.593-12.936v-10.795l1.011 0.385 0.009-0.8z">
      </path>
    </symbol>
    <symbol id="mail" viewBox="0 0 32 32">
      <path fill="#e4b564" style="fill: var(--color1, #e4b564)"
        d="M5 4c-1.648 0-3 1.352-3 3v16c0 1.648 1.352 3 3 3h22c1.648 0 3-1.352 3-3v-16c0-1.648-1.352-3-3-3h-22zM5 6h22c0.070 0 0.125 0.023 0.188 0.039l-11.188 7.742-11.188-7.742c0.063-0.016 0.117-0.039 0.188-0.039zM4 7.906l12 8.313 12-8.313v15.094c0 0.562-0.438 1-1 1h-22c-0.563 0-1-0.438-1-1v-15.094z">
      </path>
    </symbol>
    <symbol id="partnership" viewBox="0 0 32 32">
      <path fill="#e4b564" style="fill: var(--color1, #e4b564)"
        d="M17.181 2.795c-0.145 0.008-0.275 0.094-0.339 0.227l-1.539 3.078c-0.328 0.083-2.089 0.575-3.222 2.758l-0.011 0.017-0.298 0.75c-0.047-0.017-0.097-0.025-0.147-0.025-1.091 0-2.059 0.547-2.644 1.38l-3.233 4.291-1.897 0.759c-0.139 0.048-0.239 0.169-0.263 0.314s0.036 0.291 0.152 0.38c0.117 0.091 0.273 0.108 0.408 0.047l2-0.8c0.067-0.027 0.127-0.072 0.17-0.13l3.311-4.391c0.003-0.005 0.005-0.008 0.008-0.013 0.409-0.584 1.067-0.977 1.822-1.027l-1.584 3.97-2.694 2.9 0.283 0.272c0 0 0.294 0.283 0.787 0.758 0.703 0.673 1.745 0.736 2.739 0.469s1.989-0.861 2.741-1.642c0.18-0.189 0.416-0.525 0.752-1.006 0.338-0.481 0.742-1.075 1.131-1.653 0.719-1.067 1.283-1.925 1.384-2.078h9.002c0.002 0 0.002 0 0.003 0 0.886 0.002 1.597 0.712 1.597 1.6s-0.713 1.6-1.6 1.6h-0.8c-0.219 0.003-0.394 0.181-0.394 0.4s0.175 0.397 0.394 0.4c0.887 0 1.6 0.712 1.6 1.6s-0.713 1.6-1.6 1.6h-0.4c-0.219 0.003-0.394 0.181-0.394 0.4s0.175 0.397 0.394 0.4c0.887 0 1.6 0.712 1.6 1.6 0 0.762-0.53 1.391-1.239 1.555-0.153 0.036-0.272 0.156-0.302 0.311-0.031 0.153 0.030 0.311 0.158 0.403 0.353 0.256 0.583 0.662 0.583 1.131 0 0.778-0.622 1.4-1.4 1.4h-2.2v-1.2c0-1.1-0.9-2-2-2-0.67 0-1.236 0.355-1.6 0.864-0.364-0.509-0.93-0.864-1.6-0.864s-1.236 0.355-1.6 0.864c-0.364-0.509-0.93-0.864-1.6-0.864s-1.236 0.355-1.6 0.864c-0.364-0.509-0.93-0.864-1.6-0.864-1.1 0-2 0.9-2 2v1.2h-4.4c-0.144-0.002-0.278 0.073-0.352 0.198-0.072 0.125-0.072 0.278 0 0.403 0.073 0.125 0.208 0.2 0.352 0.198h4.57c0.311 0.705 1.014 1.2 1.83 1.2 0.67 0 1.236-0.355 1.6-0.864 0.364 0.509 0.93 0.864 1.6 0.864s1.236-0.355 1.6-0.864c0.364 0.509 0.93 0.864 1.6 0.864s1.236-0.355 1.6-0.864c0.364 0.509 0.93 0.864 1.6 0.864 0.816 0 1.519-0.495 1.83-1.2h2.37c1.211 0 2.2-0.989 2.2-2.2 0-0.503-0.213-0.93-0.498-1.3 0.764-0.402 1.298-1.18 1.298-2.1 0-0.769-0.389-1.425-0.956-1.864 0.795-0.394 1.356-1.194 1.356-2.136 0-0.703-0.319-1.322-0.803-1.763 0.927-0.331 1.603-1.198 1.603-2.237 0-1.138-0.8-2.092-1.866-2.338l0.189-0.569c0.3-0.9 0.159-1.866-0.305-2.687l0.761-2.28c0.042-0.122 0.023-0.256-0.050-0.362-0.075-0.106-0.195-0.169-0.325-0.17-0.175 0-0.331 0.112-0.384 0.28l-0.975 2.927h0.289c0.35 0.623 0.459 1.358 0.23 2.042l-0.252 0.758h-8.858c-0.161-0.027-0.322 0.045-0.406 0.183 0 0-0.722 1.095-1.498 2.248-0.388 0.577-0.791 1.167-1.122 1.641s-0.628 0.862-0.673 0.911c-0.645 0.67-1.541 1.202-2.372 1.423-0.83 0.223-1.547 0.139-1.977-0.273-0.316-0.303-0.377-0.363-0.505-0.484l2.261-2.431 2.231-5.595c1.087-2.088 2.884-2.43 2.884-2.43l0.192-0.037 1.687-3.377c0.066-0.127 0.059-0.28-0.019-0.4s-0.214-0.191-0.358-0.183zM22.8 6.8c-0.22 0-0.4 0.18-0.4 0.4s0.18 0.4 0.4 0.4c0.22 0 0.4-0.18 0.4-0.4s-0.18-0.4-0.4-0.4zM24.4 7.2c-0.22 0-0.4 0.18-0.4 0.4s0.18 0.4 0.4 0.4c0.22 0 0.4-0.18 0.4-0.4s-0.18-0.4-0.4-0.4zM22 15.6c-0.22 0-0.4 0.18-0.4 0.4s0.18 0.4 0.4 0.4 0.4-0.18 0.4-0.4c0-0.22-0.18-0.4-0.4-0.4zM23.6 15.6c-0.22 0-0.4 0.18-0.4 0.4s0.18 0.4 0.4 0.4 0.4-0.18 0.4-0.4c0-0.22-0.18-0.4-0.4-0.4zM23.2 19.6c-0.22 0-0.4 0.18-0.4 0.4s0.18 0.4 0.4 0.4 0.4-0.18 0.4-0.4c0-0.22-0.18-0.4-0.4-0.4zM23.6 23.6c-0.22 0-0.4 0.18-0.4 0.4s0.18 0.4 0.4 0.4 0.4-0.18 0.4-0.4c0-0.22-0.18-0.4-0.4-0.4zM10.4 24.4c0.667 0 1.2 0.533 1.2 1.2 0.003 0.219 0.181 0.394 0.4 0.394s0.397-0.175 0.4-0.394c0-0.667 0.533-1.2 1.2-1.2s1.2 0.533 1.2 1.2c0 0.014 0.002 0.027 0.002 0.039 0.003 0.027 0.009 0.053 0.017 0.080 0.009 0.025 0.020 0.050 0.033 0.073 0.012 0.022 0.028 0.044 0.047 0.064 0.044 0.052 0.098 0.089 0.162 0.112 0.025 0.009 0.050 0.017 0.077 0.020 0.013 0.003 0.027 0.005 0.039 0.005 0.028 0.002 0.055 0 0.080-0.003 0.014-0.002 0.027-0.005 0.039-0.008 0.027-0.006 0.052-0.016 0.077-0.027 0.012-0.006 0.023-0.013 0.034-0.019 0.034-0.022 0.066-0.047 0.092-0.077 0.017-0.020 0.033-0.042 0.047-0.066 0.027-0.045 0.045-0.097 0.052-0.15 0.002-0.016 0.003-0.030 0.003-0.045 0-0.667 0.533-1.2 1.2-1.2s1.2 0.533 1.2 1.2c0 0.014 0.002 0.027 0.002 0.039 0.003 0.014 0.005 0.028 0.008 0.041 0.023 0.106 0.088 0.197 0.178 0.255 0.013 0.006 0.023 0.012 0.036 0.019s0.023 0.011 0.037 0.016 0.050 0.017 0.077 0.020c0.013 0.003 0.027 0.005 0.039 0.005 0.014 0 0.028 0 0.041 0 0.027-0.002 0.053-0.005 0.078-0.011 0.027-0.006 0.052-0.016 0.077-0.027 0.023-0.013 0.047-0.027 0.067-0.042 0.011-0.008 0.022-0.016 0.031-0.025 0.041-0.036 0.072-0.080 0.094-0.128 0.006-0.012 0.011-0.025 0.016-0.037 0.003-0.014 0.008-0.027 0.009-0.039 0.003-0.012 0.006-0.027 0.008-0.039 0.002-0.016 0.003-0.030 0.003-0.045 0-0.667 0.533-1.2 1.2-1.2s1.2 0.533 1.2 1.2v1.2c0 0.667-0.533 1.2-1.2 1.2s-1.2-0.533-1.2-1.2c0-0.014-0.002-0.027-0.002-0.039-0.003-0.027-0.009-0.053-0.017-0.080-0.009-0.025-0.020-0.050-0.033-0.073-0.012-0.022-0.028-0.044-0.047-0.064-0.025-0.030-0.056-0.056-0.089-0.078-0.012-0.006-0.023-0.012-0.036-0.019s-0.023-0.011-0.038-0.016c-0.012-0.005-0.025-0.009-0.038-0.012-0.039-0.009-0.078-0.014-0.119-0.012-0.027 0.002-0.053 0.005-0.078 0.011-0.014 0.003-0.027 0.008-0.039 0.013-0.012 0.003-0.025 0.009-0.038 0.014-0.036 0.017-0.070 0.041-0.098 0.067-0.030 0.028-0.055 0.059-0.075 0.094-0.006 0.011-0.012 0.023-0.019 0.034-0.006 0.012-0.011 0.025-0.016 0.038-0.003 0.014-0.008 0.027-0.009 0.039-0.006 0.027-0.011 0.052-0.011 0.078 0 0.003 0 0.005 0 0.006 0 0.667-0.533 1.2-1.2 1.2s-1.2-0.533-1.2-1.2c0-0.014-0.002-0.027-0.002-0.039-0.003-0.014-0.005-0.028-0.008-0.041-0.006-0.027-0.014-0.052-0.023-0.077-0.033-0.073-0.088-0.136-0.155-0.178-0.105-0.064-0.231-0.078-0.347-0.036-0.025 0.008-0.050 0.020-0.072 0.033-0.023 0.014-0.045 0.030-0.064 0.048-0.020 0.019-0.038 0.039-0.055 0.059-0.006 0.011-0.014 0.023-0.020 0.034s-0.012 0.023-0.019 0.034c-0.011 0.025-0.020 0.050-0.025 0.077-0.006 0.027-0.011 0.052-0.011 0.078 0 0.003 0 0.005 0 0.006 0 0.667-0.533 1.2-1.2 1.2s-1.2-0.533-1.2-1.2c-0.003-0.219-0.181-0.394-0.4-0.394s-0.397 0.175-0.4 0.394c0 0.667-0.533 1.2-1.2 1.2s-1.2-0.533-1.2-1.2v-1.2c0-0.667 0.533-1.2 1.2-1.2z">
      </path>
    </symbol>
    <symbol id="phone" viewBox="0 0 32 32">
      <path fill="" style=""
        d="M6.742 2.086l-3.148 3.148c-1.727 1.727-2.102 4.414-0.867 6.523 1.375 2.359 2.5 4.102 7.211 8.805 4.703 4.711 5.984 5.352 8.305 6.711 2.117 1.234 4.797 0.859 6.516-0.867l3.156-3.148-6.094-6.086-2.477 2.477c-0.297-0.133-0.742-0.367-1.258-0.695-1.063-0.68-2.422-1.719-3.617-2.922-1.203-1.195-2.375-2.688-3.188-3.891-0.398-0.594-0.719-1.133-0.891-1.484-0.008-0.016-0.008-0.016-0.016-0.031l2.453-2.453-6.086-6.086zM6.742 4.914l3.258 3.258-1.43 1.438c-0.297 0.297-0.328 0.625-0.32 0.813 0 0.18 0.031 0.305 0.063 0.422 0.070 0.242 0.164 0.453 0.281 0.703 0.242 0.484 0.594 1.063 1.031 1.719 0.875 1.297 2.109 2.867 3.422 4.188 1.32 1.313 2.773 2.422 3.969 3.18 0.594 0.383 1.117 0.672 1.563 0.867 0.227 0.102 0.43 0.18 0.672 0.227 0.117 0.023 0.25 0.039 0.43 0.023 0.18-0.008 0.461-0.070 0.711-0.32l1.43-1.43 3.266 3.258-1.742 1.742c-1.086 1.086-2.766 1.32-4.094 0.547-2.359-1.383-3.258-1.75-7.906-6.391-4.641-4.648-5.531-6.078-6.891-8.406-0.773-1.328-0.539-3.008 0.547-4.094l1.742-1.742z">
      </path>
    </symbol>
    <symbol id="quality" viewBox="0 0 32 32">
      <path fill="#e4b564" style="fill: var(--color1, #e4b564)"
        d="M16 4c-0.394 0-0.787 0.149-1.085 0.447l-0.812 0.813-1.062-0.44c-0.779-0.322-1.682 0.052-2.005 0.83l-0.002 0.004-0.444 1.144h-1.056c-0.843 0-1.535 0.692-1.535 1.535v1.056l-1.147 0.446c-0.779 0.323-1.154 1.227-0.831 2.005l0.44 1.061-0.812 0.812c-0.596 0.596-0.596 1.574-0.001 2.17l0.812 0.812-0.44 1.061v0.001c-0.322 0.779 0.053 1.682 0.831 2.005l1.148 0.446v1.455c0 0.843 0.692 1.535 1.535 1.535h0.041l-2.615 6.073 4.045-0.449 2.34 3.419 2.657-6.248 2.652 6.248 2.34-3.42 4.049 0.45-2.861-6.54h0.217c0.843 0 1.535-0.692 1.535-1.535v-0.985l1.212-0.451c0.779-0.323 1.153-1.227 0.83-2.006l-0.44-1.061 0.812-0.812c0.596-0.596 0.596-1.575 0-2.171l-0.812-0.812 0.44-1.061c0.322-0.779-0.052-1.683-0.83-2.005l-0.004-0.002-1.144-0.444v-1.056c0-0.843-0.692-1.535-1.535-1.535h-1.055l-0.446-1.148c-0.323-0.779-1.227-1.153-2.006-0.83l-1.061 0.44-0.812-0.813c-0.298-0.298-0.692-0.447-1.085-0.447zM16 4.795c0.187 0 0.374 0.073 0.52 0.218l1.19 1.189 1.555-0.644c0.38-0.157 0.803 0.018 0.96 0.398l0.638 1.641h1.602c0.411 0 0.735 0.324 0.735 0.735v1.602l1.641 0.638c0.38 0.157 0.555 0.581 0.398 0.96l-0.644 1.555 1.189 1.19c0.29 0.29 0.29 0.749 0 1.040l-1.189 1.189 0.644 1.555c0.157 0.379-0.018 0.802-0.397 0.959l-1.707 0.634v1.541c0 0.41-0.325 0.735-0.735 0.735h-1.542l-0.634 1.707c-0.158 0.379-0.58 0.555-0.959 0.398l-1.555-0.645-1.19 1.19c-0.29 0.29-0.749 0.29-1.039 0l-1.19-1.19-1.555 0.645c-0.38 0.157-0.803-0.019-0.96-0.398l-0.009-0.020-0.666-1.221h-1.566c-0.411 0-0.735-0.324-0.735-0.735v-2.002l-1.641-0.638c-0.38-0.157-0.556-0.58-0.398-0.96l0.645-1.555-1.19-1.19c-0.29-0.29-0.29-0.749 0.001-1.039l1.19-1.19-0.645-1.555c-0.157-0.38 0.019-0.803 0.398-0.96l1.641-0.638v-1.602c0-0.41 0.325-0.735 0.735-0.735h1.603l0.638-1.641c0.157-0.38 0.58-0.555 0.96-0.398l1.555 0.644 1.19-1.189c0.145-0.145 0.332-0.218 0.52-0.218zM16.452 7.22l-0.32 0.161-0.063 0.352 0.245 0.262 0.139 0.025 0.32-0.16 0.063-0.353-0.244-0.262-0.139-0.025zM14.651 7.328l-0.32 0.161-0.063 0.352 0.245 0.262 0.138 0.025 0.321-0.16 0.062-0.353-0.244-0.262-0.139-0.025zM18.224 7.552l-0.32 0.161-0.063 0.352 0.244 0.262 0.139 0.025 0.32-0.16 0.063-0.353-0.244-0.262-0.139-0.025zM12.938 7.889l-0.32 0.16-0.063 0.353 0.244 0.262 0.139 0.025 0.32-0.161 0.063-0.352-0.245-0.262-0.138-0.024zM19.855 8.323l-0.32 0.161-0.063 0.352 0.245 0.262 0.139 0.025 0.32-0.16 0.063-0.353-0.244-0.262-0.139-0.025zM11.411 8.85l-0.32 0.161-0.063 0.352 0.245 0.262 0.139 0.024 0.32-0.16 0.063-0.353-0.245-0.262-0.138-0.025zM21.243 9.473l-0.32 0.161-0.063 0.353 0.245 0.262 0.138 0.024 0.32-0.16 0.063-0.353-0.245-0.262-0.139-0.025zM10.181 10.17l-0.32 0.16-0.063 0.353 0.245 0.262 0.138 0.025 0.321-0.161 0.062-0.353-0.244-0.262-0.139-0.024zM22.309 10.93l-0.32 0.16-0.063 0.353 0.245 0.262 0.138 0.025 0.321-0.161 0.062-0.353-0.245-0.262-0.139-0.024zM19.976 11.573l-5.176 5.176-2.776-2.776-0.848 0.848 3.624 3.624 6.024-6.024-0.848-0.848zM9.31 11.748l-0.32 0.161-0.063 0.352 0.245 0.263 0.138 0.024 0.32-0.16 0.063-0.353-0.245-0.262-0.139-0.025zM22.967 12.609l-0.321 0.161-0.062 0.352 0.244 0.262 0.139 0.025 0.32-0.16 0.063-0.353-0.245-0.262-0.138-0.025zM8.863 13.496l-0.32 0.16-0.063 0.353 0.245 0.262 0.139 0.025 0.32-0.161 0.063-0.352-0.245-0.262-0.139-0.025zM23.2 14.398l-0.32 0.16v0.001l-0.063 0.352 0.244 0.262 0.139 0.025 0.32-0.161 0.063-0.352-0.245-0.262-0.139-0.025zM8.863 15.299l-0.32 0.161-0.063 0.352 0.245 0.262 0.139 0.025 0.32-0.16 0.063-0.353-0.245-0.262-0.139-0.025zM22.967 16.187l-0.321 0.16-0.062 0.353 0.244 0.262 0.139 0.025 0.32-0.161 0.063-0.352-0.245-0.262-0.138-0.025zM9.31 17.047l-0.32 0.16-0.063 0.353 0.245 0.262 0.138 0.025 0.32-0.161 0.063-0.352-0.245-0.262-0.139-0.025zM22.309 17.866l-0.32 0.161-0.063 0.352 0.245 0.262 0.138 0.025 0.321-0.16 0.062-0.353-0.245-0.262-0.139-0.025zM10.181 18.625l-0.32 0.161-0.063 0.353 0.245 0.262 0.138 0.024 0.321-0.16 0.062-0.353-0.244-0.262-0.139-0.025zM21.243 19.321l-0.32 0.161-0.063 0.353 0.245 0.262 0.138 0.024 0.321-0.16 0.063-0.353-0.245-0.262-0.139-0.025zM11.411 19.945l-0.32 0.16-0.063 0.353 0.245 0.262 0.139 0.025 0.32-0.161 0.063-0.352-0.244-0.262-0.139-0.025zM19.855 20.472l-0.32 0.16-0.063 0.353 0.245 0.262 0.139 0.025 0.32-0.161 0.063-0.352-0.244-0.262-0.139-0.025zM12.938 20.906l-0.32 0.161-0.063 0.352 0.244 0.262 0.139 0.024 0.32-0.16 0.063-0.353-0.245-0.262-0.138-0.025zM18.224 21.244l-0.32 0.16-0.063 0.353 0.244 0.262 0.139 0.025 0.32-0.161 0.063-0.352-0.244-0.262-0.139-0.024zM14.652 21.467l-0.321 0.16-0.063 0.353 0.245 0.262 0.139 0.025 0.32-0.161 0.063-0.352-0.245-0.262-0.138-0.025zM16.452 21.575l-0.32 0.16-0.063 0.353 0.245 0.262 0.138 0.025 0.32-0.161 0.063-0.352-0.244-0.262-0.139-0.025zM21.367 22.861l2.39 5.462-3.151-0.35-1.786 2.609-2.178-5.133c0.16-0.073 0.312-0.171 0.444-0.302l0.812-0.812 1.062 0.44c0.779 0.322 1.682-0.052 2.005-0.831l0.003-0.007 0.4-1.077zM10.447 23.198h0.18l0.428 0.785-0.018-0.038c0.323 0.779 1.227 1.154 2.005 0.831l1.061-0.44 0.812 0.812c0.133 0.133 0.286 0.231 0.448 0.305l-2.183 5.13-1.786-2.609-3.155 0.351 2.208-5.127z">
      </path>
    </symbol>
    <symbol id="radiator" viewBox="0 0 32 32">
      <path fill="#e4b564" style="fill: var(--color1, #e4b564)"
        d="M11.2 2l-0.32 0.161-0.063 0.352 0.245 0.262 0.139 0.025 0.32-0.161 0.063-0.352-0.245-0.262-0.139-0.025zM14.4 2l-0.32 0.161-0.063 0.352 0.245 0.262 0.139 0.025 0.32-0.161 0.063-0.352-0.245-0.262-0.139-0.025zM17.6 2l-0.32 0.161-0.063 0.352 0.245 0.262 0.139 0.025 0.32-0.161 0.063-0.352-0.245-0.262-0.139-0.025zM20.4 2l-0.32 0.161-0.063 0.352 0.245 0.262 0.139 0.025 0.32-0.161 0.063-0.352-0.245-0.262-0.139-0.025zM10.685 3.514l-0.32 0.16-0.063 0.353 0.244 0.262 0.139 0.025 0.32-0.161 0.063-0.353-0.244-0.262-0.139-0.024zM13.885 3.514l-0.32 0.16-0.063 0.353 0.244 0.262 0.139 0.025 0.32-0.161 0.063-0.353-0.244-0.262-0.139-0.024zM17.085 3.514l-0.32 0.16-0.063 0.353 0.244 0.262 0.139 0.025 0.32-0.161 0.063-0.353-0.244-0.262-0.139-0.024zM19.885 3.514l-0.32 0.16-0.063 0.353 0.244 0.262 0.139 0.025 0.32-0.161 0.063-0.353-0.244-0.262-0.139-0.024zM10.53 5.093l-0.321 0.16-0.062 0.353 0.245 0.262 0.139 0.025 0.32-0.161 0.063-0.352-0.245-0.262-0.138-0.025zM13.73 5.093l-0.321 0.16-0.062 0.353 0.245 0.262 0.139 0.025 0.32-0.161 0.063-0.352-0.245-0.262-0.138-0.025zM16.93 5.093l-0.321 0.16-0.062 0.353 0.245 0.262 0.139 0.025 0.32-0.161 0.063-0.352-0.245-0.262-0.138-0.025zM19.73 5.093l-0.321 0.16-0.062 0.353 0.245 0.262 0.139 0.025 0.32-0.161 0.063-0.352-0.245-0.262-0.138-0.025zM11.764 5.87l-0.32 0.161-0.063 0.352 0.244 0.262 0.139 0.025 0.32-0.16 0.063-0.353-0.245-0.262-0.139-0.025zM14.964 5.87l-0.32 0.161-0.063 0.352 0.244 0.262 0.139 0.025 0.32-0.16 0.063-0.353-0.245-0.262-0.139-0.025zM18.164 5.87l-0.32 0.161-0.063 0.352 0.244 0.262 0.139 0.025 0.32-0.16 0.063-0.353-0.245-0.262-0.139-0.025zM20.964 5.87l-0.32 0.161-0.063 0.352 0.244 0.262 0.139 0.025 0.32-0.16 0.063-0.353-0.245-0.262-0.139-0.025zM12.287 7.248l-0.321 0.161-0.062 0.352 0.245 0.262 0.139 0.025 0.32-0.16 0.063-0.353-0.245-0.262-0.138-0.025zM15.487 7.248l-0.321 0.161-0.062 0.352 0.245 0.262 0.139 0.025 0.32-0.16 0.063-0.353-0.245-0.262-0.138-0.025zM18.687 7.248l-0.321 0.161-0.062 0.352 0.245 0.262 0.139 0.025 0.32-0.16 0.063-0.353-0.245-0.262-0.138-0.025zM21.487 7.248l-0.321 0.161-0.062 0.352 0.245 0.262 0.139 0.025 0.32-0.16 0.063-0.353-0.245-0.262-0.138-0.025zM11.898 8.797l-0.32 0.161-0.063 0.352 0.245 0.262 0.138 0.025 0.321-0.16 0.063-0.353-0.245-0.262-0.139-0.025zM15.098 8.797l-0.32 0.161-0.063 0.352 0.245 0.262 0.138 0.025 0.321-0.16 0.063-0.353-0.245-0.262-0.139-0.025zM18.298 8.797l-0.32 0.161-0.063 0.352 0.245 0.262 0.138 0.025 0.321-0.16 0.063-0.353-0.245-0.262-0.139-0.025zM21.098 8.797l-0.32 0.161-0.063 0.352 0.245 0.262 0.138 0.025 0.321-0.16 0.063-0.353-0.245-0.262-0.139-0.025zM9 10.72l-0.222 0.148c0 0-0.472 0.314-0.948 0.751s-1.030 0.965-1.030 1.682v1.1h-0.88c-0.402 0-0.72 0.342-0.72 0.734v1.334c0 0.392 0.318 0.733 0.72 0.733h0.88v5.6h-0.88c-0.402 0-0.72 0.342-0.72 0.734v1.334c0 0.392 0.318 0.733 0.72 0.733h0.88v1.1c0 0.717 0.553 1.245 1.030 1.682s0.948 0.751 0.948 0.751l0.222 0.148 0.222-0.148c0 0 0.472-0.314 0.948-0.751 0.216-0.198 0.441-0.423 0.63-0.668 0.189 0.245 0.413 0.47 0.63 0.668 0.477 0.437 0.948 0.751 0.948 0.751l0.222 0.148 0.222-0.148c0 0 0.472-0.314 0.948-0.751 0.216-0.198 0.441-0.423 0.63-0.668 0.189 0.245 0.413 0.47 0.63 0.668 0.477 0.437 0.948 0.751 0.948 0.751l0.222 0.148 0.222-0.148c0 0 0.472-0.314 0.948-0.751 0.216-0.198 0.441-0.423 0.63-0.668 0.189 0.245 0.413 0.47 0.63 0.668 0.477 0.437 0.948 0.751 0.948 0.751l0.222 0.148 0.222-0.148c0 0 0.472-0.314 0.948-0.751 0.216-0.198 0.441-0.423 0.63-0.668 0.189 0.245 0.413 0.47 0.63 0.668 0.477 0.437 0.948 0.751 0.948 0.751l0.222 0.148 0.222-0.148c0 0 0.472-0.314 0.948-0.751s1.030-0.965 1.030-1.682v-1.1h0.8c0.053 0.001 0.106-0.009 0.155-0.029s0.094-0.049 0.132-0.086c0.038-0.037 0.068-0.082 0.088-0.13s0.031-0.101 0.031-0.154-0.011-0.106-0.031-0.154c-0.020-0.049-0.050-0.093-0.088-0.13s-0.083-0.067-0.132-0.086-0.102-0.030-0.155-0.029h-0.8v-1.2h0.8c0.053 0.001 0.106-0.009 0.155-0.029s0.094-0.049 0.132-0.086c0.038-0.037 0.068-0.082 0.088-0.13s0.031-0.101 0.031-0.154-0.011-0.106-0.031-0.154c-0.020-0.049-0.050-0.093-0.088-0.13s-0.083-0.067-0.132-0.086-0.102-0.030-0.155-0.029h-0.8v-5.6h0.8c0.053 0.001 0.106-0.009 0.155-0.029s0.094-0.049 0.132-0.086c0.038-0.037 0.068-0.082 0.088-0.13s0.031-0.101 0.031-0.154-0.011-0.106-0.031-0.154c-0.020-0.049-0.050-0.093-0.088-0.13s-0.083-0.067-0.132-0.086-0.102-0.030-0.155-0.029h-0.8v-1.2h0.8c0.053 0.001 0.106-0.009 0.155-0.029s0.094-0.049 0.132-0.086c0.038-0.037 0.068-0.082 0.088-0.13s0.031-0.101 0.031-0.154-0.011-0.106-0.031-0.154c-0.020-0.049-0.050-0.093-0.088-0.13s-0.083-0.067-0.132-0.086-0.102-0.030-0.155-0.029h-0.8v-1.1c0-0.717-0.553-1.245-1.030-1.682s-0.948-0.751-0.948-0.751l-0.222-0.148-0.222 0.148c0 0-0.472 0.314-0.948 0.751-0.216 0.198-0.441 0.423-0.63 0.668-0.189-0.245-0.413-0.47-0.63-0.668-0.477-0.437-0.948-0.751-0.948-0.751l-0.222-0.148-0.222 0.148c0 0-0.439 0.292-0.896 0.703-0.234 0.211-0.485 0.444-0.687 0.712-0.185-0.246-0.409-0.466-0.625-0.664-0.477-0.437-0.948-0.751-0.948-0.751l-0.222-0.148-0.222 0.148c0 0-0.472 0.314-0.948 0.751-0.217 0.198-0.447 0.417-0.636 0.662-0.185-0.245-0.408-0.465-0.623-0.662-0.477-0.437-0.948-0.751-0.948-0.751l-0.222-0.148-0.222 0.148c0 0-0.472 0.314-0.948 0.751-0.216 0.198-0.441 0.423-0.63 0.668-0.189-0.245-0.413-0.47-0.63-0.668-0.477-0.437-0.948-0.751-0.948-0.751l-0.222-0.148zM19.799 11.708c0.143 0.101 0.317 0.212 0.63 0.499 0.423 0.388 0.77 0.91 0.77 1.093h0.8c0-0.183 0.347-0.705 0.77-1.093 0.313-0.287 0.486-0.397 0.63-0.498 0.143 0.101 0.317 0.212 0.63 0.498 0.423 0.388 0.77 0.91 0.77 1.093v13.4c0 0.183-0.347 0.705-0.77 1.093-0.313 0.287-0.486 0.397-0.63 0.498-0.143-0.101-0.317-0.212-0.63-0.498-0.423-0.388-0.77-0.91-0.77-1.093h-0.8c0 0.183-0.347 0.705-0.77 1.093-0.313 0.287-0.486 0.397-0.63 0.498-0.143-0.101-0.317-0.212-0.63-0.498-0.423-0.388-0.77-0.91-0.77-1.093h-0.8c0 0.183-0.347 0.705-0.77 1.093-0.313 0.287-0.486 0.397-0.63 0.498-0.143-0.101-0.317-0.212-0.63-0.498-0.423-0.388-0.77-0.91-0.77-1.093h-0.8c0 0.183-0.347 0.705-0.77 1.093-0.313 0.287-0.486 0.397-0.63 0.498-0.143-0.101-0.317-0.212-0.63-0.498-0.423-0.388-0.77-0.91-0.77-1.093h-0.8c0 0.183-0.347 0.705-0.77 1.093-0.313 0.287-0.486 0.397-0.63 0.498-0.143-0.101-0.317-0.212-0.63-0.498-0.423-0.388-0.77-0.91-0.77-1.093v-13.4c0-0.183 0.347-0.705 0.77-1.093 0.313-0.287 0.486-0.397 0.63-0.498 0.143 0.101 0.317 0.212 0.63 0.498 0.423 0.388 0.77 0.91 0.77 1.093h0.8c0-0.183 0.347-0.705 0.77-1.093 0.313-0.287 0.486-0.397 0.63-0.498 0.143 0.101 0.317 0.212 0.63 0.498 0.423 0.388 0.77 0.91 0.77 1.093h0.8c0-0.183 0.347-0.705 0.77-1.093 0.313-0.287 0.486-0.397 0.63-0.498 0.143 0.101 0.317 0.212 0.63 0.498 0.423 0.388 0.77 0.91 0.77 1.093h0.8c0-0.013 0.001-0.029 0.003-0.044l-0.020-0.003c0-0 0-0 0-0.001l0.020 0.002c0.031-0.221 0.406-0.723 0.814-1.090 0.295-0.266 0.445-0.36 0.582-0.457zM10.8 14l-0.32 0.161-0.063 0.352 0.245 0.262 0.139 0.025 0.32-0.161 0.063-0.352-0.245-0.262-0.139-0.025zM14.4 14l-0.32 0.161-0.063 0.352 0.245 0.262 0.139 0.025 0.32-0.161 0.063-0.352-0.245-0.262-0.139-0.025zM18 14l-0.32 0.161-0.063 0.352 0.245 0.262 0.139 0.025 0.32-0.161 0.063-0.352-0.245-0.262-0.139-0.025zM21.6 14l-0.32 0.161-0.063 0.352 0.245 0.262 0.139 0.025 0.32-0.161 0.063-0.352-0.245-0.262-0.139-0.025zM28 14.4c-0.106 0-0.208 0.042-0.283 0.117s-0.117 0.177-0.117 0.283 0.042 0.208 0.117 0.283c0.075 0.075 0.177 0.117 0.283 0.117s0.208-0.042 0.283-0.117c0.075-0.075 0.117-0.177 0.117-0.283s-0.042-0.208-0.117-0.283c-0.075-0.075-0.177-0.117-0.283-0.117zM6 15.2h0.8v1.2h-0.8v-1.2zM10.8 15.6l-0.32 0.161-0.063 0.352 0.245 0.262 0.139 0.025 0.32-0.161 0.063-0.352-0.245-0.262-0.139-0.025zM14.4 15.6l-0.32 0.161-0.063 0.352 0.245 0.262 0.139 0.025 0.32-0.161 0.063-0.352-0.245-0.262-0.139-0.025zM18 15.6l-0.32 0.161-0.063 0.352 0.245 0.262 0.139 0.025 0.32-0.161 0.063-0.352-0.245-0.262-0.139-0.025zM21.6 15.6l-0.32 0.161-0.063 0.352 0.245 0.262 0.139 0.025 0.32-0.161 0.063-0.352-0.245-0.262-0.139-0.025zM28 16.4c-0.106 0-0.208 0.042-0.283 0.117s-0.117 0.177-0.117 0.283 0.042 0.208 0.117 0.283c0.075 0.075 0.177 0.117 0.283 0.117s0.208-0.042 0.283-0.117c0.075-0.075 0.117-0.177 0.117-0.283s-0.042-0.208-0.117-0.283c-0.075-0.075-0.177-0.117-0.283-0.117zM10.8 17.2l-0.32 0.161-0.063 0.352 0.245 0.262 0.139 0.025 0.32-0.161 0.063-0.352-0.245-0.262-0.139-0.025zM14.4 17.2l-0.32 0.161-0.063 0.352 0.245 0.262 0.139 0.025 0.32-0.161 0.063-0.352-0.245-0.262-0.139-0.025zM18 17.2l-0.32 0.161-0.063 0.352 0.245 0.262 0.139 0.025 0.32-0.161 0.063-0.352-0.245-0.262-0.139-0.025zM21.6 17.2l-0.32 0.161-0.063 0.352 0.245 0.262 0.139 0.025 0.32-0.161 0.063-0.352-0.245-0.262-0.139-0.025zM10.8 18.8l-0.32 0.161-0.063 0.352 0.245 0.262 0.139 0.025 0.32-0.161 0.063-0.352-0.245-0.262-0.139-0.025zM14.4 18.8l-0.32 0.161-0.063 0.352 0.245 0.262 0.139 0.025 0.32-0.161 0.063-0.352-0.245-0.262-0.139-0.025zM18 18.8l-0.32 0.161-0.063 0.352 0.245 0.262 0.139 0.025 0.32-0.161 0.063-0.352-0.245-0.262-0.139-0.025zM21.6 18.8l-0.32 0.161-0.063 0.352 0.245 0.262 0.139 0.025 0.32-0.161 0.063-0.352-0.245-0.262-0.139-0.025zM10.8 20.4l-0.32 0.161-0.063 0.352 0.245 0.262 0.139 0.025 0.32-0.161 0.063-0.352-0.245-0.262-0.139-0.025zM14.4 20.4l-0.32 0.161-0.063 0.352 0.245 0.262 0.139 0.025 0.32-0.161 0.063-0.352-0.245-0.262-0.139-0.025zM18 20.4l-0.32 0.161-0.063 0.352 0.245 0.262 0.139 0.025 0.32-0.161 0.063-0.352-0.245-0.262-0.139-0.025zM21.6 20.4l-0.32 0.161-0.063 0.352 0.245 0.262 0.139 0.025 0.32-0.161 0.063-0.352-0.245-0.262-0.139-0.025zM10.8 22l-0.32 0.161-0.063 0.352 0.245 0.262 0.139 0.025 0.32-0.161 0.063-0.352-0.245-0.262-0.139-0.025zM14.4 22l-0.32 0.161-0.063 0.352 0.245 0.262 0.139 0.025 0.32-0.161 0.063-0.352-0.245-0.262-0.139-0.025zM18 22l-0.32 0.161-0.063 0.352 0.245 0.262 0.139 0.025 0.32-0.161 0.063-0.352-0.245-0.262-0.139-0.025zM21.6 22l-0.32 0.161-0.063 0.352 0.245 0.262 0.139 0.025 0.32-0.161 0.063-0.352-0.245-0.262-0.139-0.025zM28 22.8c-0.106 0-0.208 0.042-0.283 0.117s-0.117 0.177-0.117 0.283 0.042 0.208 0.117 0.283c0.075 0.075 0.177 0.117 0.283 0.117s0.208-0.042 0.283-0.117c0.075-0.075 0.117-0.177 0.117-0.283s-0.042-0.208-0.117-0.283c-0.075-0.075-0.177-0.117-0.283-0.117zM6 23.6h0.8v1.2h-0.8v-1.2zM10.8 23.6l-0.32 0.161-0.063 0.352 0.245 0.262 0.139 0.025 0.32-0.161 0.063-0.352-0.245-0.262-0.139-0.025zM14.4 23.6l-0.32 0.161-0.063 0.352 0.245 0.262 0.139 0.025 0.32-0.161 0.063-0.352-0.245-0.262-0.139-0.025zM18 23.6l-0.32 0.161-0.063 0.352 0.245 0.262 0.139 0.025 0.32-0.161 0.063-0.352-0.245-0.262-0.139-0.025zM21.6 23.6l-0.32 0.161-0.063 0.352 0.245 0.262 0.139 0.025 0.32-0.161 0.063-0.352-0.245-0.262-0.139-0.025zM28 24.8c-0.106 0-0.208 0.042-0.283 0.117s-0.117 0.177-0.117 0.283 0.042 0.208 0.117 0.283c0.075 0.075 0.177 0.117 0.283 0.117s0.208-0.042 0.283-0.117c0.075-0.075 0.117-0.177 0.117-0.283s-0.042-0.208-0.117-0.283c-0.075-0.075-0.177-0.117-0.283-0.117zM10.8 25.2l-0.32 0.161-0.063 0.352 0.245 0.262 0.139 0.025 0.32-0.161 0.063-0.352-0.245-0.262-0.139-0.025zM14.4 25.2l-0.32 0.161-0.063 0.352 0.245 0.262 0.139 0.025 0.32-0.161 0.063-0.352-0.245-0.262-0.139-0.025zM18 25.2l-0.32 0.161-0.063 0.352 0.245 0.262 0.139 0.025 0.32-0.161 0.063-0.352-0.245-0.262-0.139-0.025zM21.6 25.2l-0.32 0.161-0.063 0.352 0.245 0.262 0.139 0.025 0.32-0.161 0.063-0.352-0.245-0.262-0.139-0.025z">
      </path>
    </symbol>
    <symbol id="russian" viewBox="0 0 24 32">
      <path
        d="M29.828 8.572l-0.011 0.025-0.036 0.088-0.008 0.019 0.012 0.017 0.078 0.109 0.026 0.037 0.031-0.033 0.083-0.088 0.009-0.010 0.001-0.014 0.005-0.098 0.001-0.036-0.036-0.003-0.129-0.010-0.027-0.002zM29.996 9.926l-0.005 0.114-0.001 0.021 0.018 0.012 0.078 0.052 0.035 0.023 0.019-0.037 0.047-0.088 0.016-0.030-0.202-0.132-0.004 0.065zM29.895 10.255l-0.045-0.050-0.019 0.065-0.042 0.14-0.008 0.025 0.022 0.015 0.112 0.082 0.020-0.038 0.052-0.099 0.012-0.023-0.017-0.019-0.088-0.099zM30.133 9.847l0.004 0.010 0.008 0.007 0.088 0.068 0.031 0.024 0.022-0.032 0.083-0.119 0.021-0.030-0.029-0.022-0.135-0.098-0.022-0.016-0.022 0.015-0.072 0.052-0.023 0.017 0.010 0.027 0.036 0.098zM31.391 7.766l0.002 0.019 0.017 0.009 0.232 0.128 0.005-0.058 0.012-0.144 0.002-0.015-0.010-0.012-0.144-0.166-0.029 0.024-0.088 0.075-0.015 0.013 0.002 0.019 0.014 0.108zM30.339 4.132l0.002 0.025 0.025 0.008 0.169 0.052 0.010-0.002 0.175-0.045 0.043-0.012-0.018-0.040-0.106-0.236-0.007-0.005-0.129-0.102-0.025-0.020-0.024 0.022-0.091 0.088-0.009 0.009-0.002 0.013-0.019 0.145-0.001 0.005v0.003l0.006 0.093zM28.736 9.499l-0.005 0.022-0.021 0.104-0.003 0.017 0.011 0.014 0.088 0.114 0.027 0.035 0.030-0.032 0.108-0.114-0.005-0.020-0.042-0.155-0.010-0.038-0.037 0.012-0.119 0.036-0.022 0.006zM28.56 10.883l-0.137-0.072-0.030-0.015-0.153 0.23-0.015 0.022 0.016 0.022 0.189 0.245 0.027-0.012 0.145-0.062-0.003-0.028-0.036-0.311-0.002-0.020zM28.191 3.68l-0.010-0.031-0.068-0.203-0.015-0.007-0.247-0.102-0.017 0.015-0.195 0.164-0.012 0.010-0.001 0.016-0.008 0.132-0.001 0.018 0.013 0.012 0.164 0.148 0.019 0.017 0.377-0.189zM27.999 11.084l-0.041 0.022-0.217 0.119-0.005 0.010-0.057 0.108-0.019 0.038 0.040 0.015 0.166 0.062 0.009 0.004 0.010-0.002 0.212-0.039-0.012-0.039-0.072-0.254-0.013-0.045zM28.273 3.509l-0.052 0.114-0.005 0.012 0.003 0.012 0.039 0.172 0.007 0.030 0.378-0.009 0.011-0.018 0.132-0.219 0.012-0.019-0.012-0.019-0.139-0.229-0.032 0.048-0.125 0.181-0.215-0.055zM29.513 9.143l0.004 0.004 0.004 0.003 0.118 0.082 0.021-0.012 0.176-0.107-0.018-0.032-0.083-0.145-0.008-0.013-0.015-0.005-0.125-0.036-0.019-0.005-0.015 0.013-0.119 0.104-0.028 0.024 0.024 0.028 0.082 0.098zM29.69 5.311l0.011 0.011h0.015l0.211 0.005-0.002-0.040-0.008-0.152-0.001-0.012-0.007-0.009-0.118-0.155-0.018-0.024-0.027 0.012-0.145 0.065-0.018 0.008-0.004 0.019-0.022 0.118-0.004 0.019 0.014 0.014 0.122 0.122zM29.717 10.114l-0.022-0.005-0.119-0.031-0.028-0.008-0.014 0.025-0.078 0.14-0.014 0.025 0.022 0.020 0.14 0.129 0.026 0.025 0.119-0.118 0.015-0.015-0.005-0.021-0.036-0.145-0.005-0.022zM28.632 3.096l0.012 0.038 0.037-0.015 0.14-0.055 0.032-0.012-0.010-0.033-0.055-0.179-0.015-0.048-0.042 0.027-0.156 0.101 0.008 0.027 0.047 0.149zM33.352 5.257l-0.015 0.12-0.065 0.019-0.078-0.295-0.012-0.044-0.041 0.020-0.496 0.244-0.005 0.013-0.175 0.432-0.002 0.005v0.007l-0.006 0.138-0.002 0.025 0.023 0.010 0.177 0.079 0.317 0.274 0.002 0.001 0.357 0.244 0.018 0.013 0.020-0.011 0.192-0.103 0.003-0.018 0.038-0.244 0.002-0.017-0.011-0.013-0.12-0.142 0.149-0.24 0.005-0.008 0.001-0.009 0.018-0.282 0.001-0.017-0.012-0.012-0.219-0.213-0.054-0.052-0.010 0.075zM42.189 8.357l-0.030-0.004-0.453-0.059 0.025 0.060 0.081 0.188 0.202 0.125 0.015-0.005 0.182-0.051-0.002-0.031-0.017-0.195-0.003-0.029zM43.068 4.971l0.032 0.007 0.012-0.031 0.059-0.161 0.013-0.035-0.234-0.086-0.011 0.039-0.051 0.186-0.010 0.038 0.038 0.008 0.151 0.034zM32.006 5.422l0.003 0.014 0.012 0.008 0.282 0.195 0.020-0.011 0.182-0.1 0.013-0.008 0.005-0.015 0.056-0.188 0.008-0.028 0.005 0.005 0.022-0.010 0.536-0.242v-0.196l0.187-0.102 0.032-0.017-0.015-0.032-0.074-0.155-0.125-0.356-0.003-0.009-0.007-0.006-0.252-0.223-0.222 0.222-0.197 0.129-0.022 0.014 0.005 0.025 0.047 0.228-0.205 0.272v0.192l0.012 0.012 0.263 0.238 0.002 0.001-0.019-0.007-0.411-0.157-0.015 0.008-0.175 0.095 0.007 0.028 0.042 0.176zM42.888 7.546l-0.125 0.125-0.014 0.015 0.005 0.020 0.068 0.312 0.006 0.029h0.224l0.004-0.033 0.034-0.279 0.002-0.020-0.015-0.013-0.161-0.135-0.027-0.021zM43.106 7.946v0.416l0.045-0.010 0.402-0.085 0.005-0.002 0.403-0.211-0.014-0.032-0.127-0.287-0.008-0.019-0.021-0.003-0.243-0.034-0.185-0.042-0.025-0.005-0.015 0.022-0.134 0.201-0.074 0.082-0.008 0.010zM51.27 2.094l0.026 0.031 0.132-0.132 0.002-0.011 0.118-0.588 0.15-0.292-0.014-0.018-0.158-0.213-0.012-0.017-0.021 0.002-0.413 0.033-0.010 0.015-0.242 0.365v0.301l0.009 0.011 0.432 0.515zM48.659 6.614l0.019 0.013 0.020-0.012 0.144-0.085 0.025-0.015-0.008-0.028-0.051-0.178-0.009-0.033-0.034 0.007-0.169 0.034-0.021 0.004-0.007 0.020-0.051 0.144-0.010 0.028 0.024 0.016 0.127 0.084zM43.355 6.251l0.010 0.022h0.024l0.783 0.008 0.23-0.426 0.009-0.016-0.008-0.017-0.144-0.312-0.024-0.052-0.038 0.042-0.148 0.164-0.295-0.024-0.023-0.002-0.012 0.020-0.074 0.125h-0.18l-0.005 0.032-0.021 0.135-0.231-0.009 0.026 0.055 0.118 0.253zM41.449 7.094l0.001 0.010 0.007 0.008 0.155 0.196 0.057 0.221 0.005 0.021 0.021 0.006 0.336 0.095 0.007-0.001 0.341-0.029-0.003-0.037-0.022-0.276 0.175 0.020 0.024 0.003 0.012-0.021 0.155-0.256 0.177 0.037 0.021 0.005 0.015-0.016 0.159-0.179-0.025-0.025-0.142-0.142-0.009-0.003-0.285-0.082-0.191-0.225 0.111-0.029 0.163 0.248 0.008 0.013 0.015 0.003 0.373 0.077 0.001-0.045 0.008-0.38v-0.011l-0.005-0.009-0.12-0.203-0.020-0.002-0.402-0.026-0.011 0.008-0.19 0.135-0.336-0.055-0.005 0.038-0.025 0.212-0.002 0.017 0.012 0.013 0.162 0.17-0.055 0.065-0.268-0.222-0.012-0.010-0.015 0.002-0.386 0.037-0.002 0.031-0.025 0.287v0.004l0.001 0.004 0.034 0.299zM32.842 8.12l0.022-0.012 0.106-0.062 0.029-0.018-0.015-0.031-0.075-0.157-0.019-0.038-0.035 0.023-0.221 0.142 0.208 0.153zM32.597 8.186l-0.024 0.048-0.068 0.135 0.018 0.019 0.069 0.075 0.025 0.028 0.028-0.025 0.088-0.082 0.028-0.025-0.026-0.028-0.137-0.145zM41.095 7.3l0.002 0.009 0.006 0.007 0.202 0.237 0.018 0.020 0.025-0.010 0.165-0.066-0.020-0.037-0.152-0.279-0.005-0.009-0.009-0.005-0.303-0.179 0.019 0.084 0.052 0.229zM32.393 4.246l0.061 0.012-0.018-0.059-0.088-0.282-0.008-0.027-0.029 0.001-0.295 0.007-0.004 0.032-0.025 0.207-0.005 0.035 0.035 0.006 0.377 0.069zM28.291 3.285l-0.026-0.025-0.117-0.109-0.029-0.028-0.025 0.032-0.117 0.148-0.028 0.036 0.041 0.021 0.166 0.083 0.113-0.132 0.023-0.026zM36.577 9.925l-0.011 0.028-0.090 0.226-0.010 0.025 0.022 0.017 0.232 0.184 0.032 0.026 0.022-0.035 0.106-0.168 0.003-0.005 0.001-0.005 0.035-0.138 0.007-0.026-0.023-0.015-0.129-0.081-0.007-0.005-0.007-0.001-0.155-0.022-0.030-0.005zM33.462 6.974l0.004 0.015 0.082 0.295 0.015 0.055 0.044-0.035 0.342-0.275 0.372-0.025 0.214-0.214 0.001-0.015 0.025-0.451 0.001-0.014-0.008-0.011-0.233-0.296-0.030 0.030-0.148 0.148-0.057-0.061 0.012-0.254 0.003-0.066-0.059 0.032-0.319 0.173-0.002 0.020-0.043 0.556-0.209 0.382-0.005 0.013zM34.788 6.999l0.005 0.024 0.351 0.079-0.006-0.052-0.012-0.106-0.002-0.019-0.015-0.009-0.317-0.195-0.014 0.046-0.018 0.062-0.003 0.009 0.002 0.009 0.031 0.151zM26.203 3.123l-0.011 0.038-0.031 0.109-0.008 0.028 0.025 0.015 0.117 0.070 0.053 0.032 0.003-0.062 0.008-0.148 0.002-0.028-0.027-0.009-0.093-0.031-0.038-0.013zM60.508 21.904l-0.013 0.027-0.073 0.153-0.008 0.018 0.010 0.017 0.080 0.134 0.016 0.026 0.029-0.010 0.135-0.048 0.003-0.023 0.027-0.213 0.004-0.034-0.033-0.008-0.147-0.033-0.028-0.007zM60.102 18.517l-0.025-0.022-0.025 0.023-0.069 0.064-0.009 0.008-0.002 0.012-0.032 0.144 0.22 0.085 0.017-0.019 0.088-0.098 0.025-0.028-0.028-0.025-0.161-0.142zM60.569 21.236l-0.009-0.017-0.019-0.002-0.093-0.013-0.026-0.004-0.012 0.024-0.080 0.153-0.011 0.020 0.013 0.018 0.12 0.173 0.025 0.036 0.032-0.030 0.147-0.14 0.021-0.019-0.014-0.025-0.093-0.174zM60.254 19.496l-0.002-0.025-0.034-0.459-0.001-0.015-0.011-0.010-0.132-0.122-0.007-0.006-0.194-0.054-0.004 0.045-0.039 0.464-0.002 0.015 0.009 0.012 0.199 0.259 0.027-0.013 0.189-0.089zM60.181 19.849l-0.045-0.020-0.007 0.049-0.025 0.171-0.002 0.011 0.005 0.010 0.078 0.171 0.015 0.034 0.265-0.12 0.005-0.017 0.029-0.112 0.008-0.031-0.029-0.013-0.297-0.132zM14.195 8.951l-0.011-0.008-0.080-0.060-0.030-0.022-0.022 0.031-0.062 0.085-0.006 0.008-0.002 0.010-0.010 0.082-0.002 0.017 0.012 0.013 0.099 0.108 0.027-0.018 0.105-0.070 0.022-0.015-0.006-0.025-0.030-0.122-0.002-0.014zM36.36 10.481l-0.025-0.001-0.182-0.007-0.012 0.018-0.090 0.138-0.003 0.005-0.002 0.006-0.022 0.087-0.005 0.018 0.012 0.015 0.074 0.094 0.021 0.026 0.028-0.017 0.284-0.175-0.011-0.028-0.058-0.155-0.011-0.025zM57.296 11.186l-0.005-0.001-0.149-0.024-0.031-0.005-0.010 0.030-0.117 0.352-0.007 0.021 0.015 0.016 0.503 0.565 0.008-0.086 0.062-0.719 0.002-0.026-0.024-0.011-0.242-0.109-0.005-0.003zM60.74 12.462l-0.009-0.016-0.019-0.002-0.335-0.040-0.006 0.002-0.357 0.082 0.029 0.045 0.117 0.18 0.009 0.014 0.017 0.002 0.458 0.072 0.011-0.005 0.18-0.094 0.035-0.019-0.13-0.22zM59.709 18.673l-0.032 0.021-0.188 0.122 0.005 0.025 0.025 0.117 0.003 0.015 0.203 0.131 0.017-0.042 0.073-0.185 0.007-0.017-0.010-0.016-0.083-0.137-0.020-0.033zM60.75 22.481l-0.006-0.018-0.018-0.005-0.182-0.053-0.015 0.016-0.136 0.144 0.008 0.022 0.093 0.253 0.012 0.032 0.352-0.092-0.014-0.038-0.092-0.261zM60.12 18.465l-0.006-0.077-0.080-1.004v-0.002l-0.001-0.003-0.111-0.462-0.002-0.011-0.008-0.007-0.319-0.319 0.028-0.459 0.159-0.13 0.029-0.025-0.025-0.029-0.563-0.652 0.009-0.433 0.232-0.251 0.013-0.015-0.005-0.019-0.060-0.261-0.005-0.022-0.022-0.006-0.467-0.136-0.468-0.832 0.062-0.041 0.129 0.182 0.021 0.028 0.029-0.018 0.282-0.176-0.035-0.033-0.372-0.352-0.020-0.018-0.024 0.013-0.182 0.1-0.308-0.2-0.003-0.009-0.148-0.355-0.010-0.023h-0.388l-0.005 0.031-0.035 0.197-0.156-0.015-0.67-1.338 0.037-0.394 0.282-0.063-0.009-0.037-0.175-0.697 0.406 0.32 0.001-0.076 0.010-0.95 0.321-0.33 0.552-0.011-0.021-0.050-0.289-0.708-0.139-1.531-0.003-0.033-0.001-0.005-0.098-1.087-0.002-0.019-0.017-0.009-0.249-0.142 0.687-0.474-0.008-0.026-0.101-0.332-0.008-0.025-0.025-0.002-1.346-0.112-0.012 0.016-0.151 0.198-0.375 0.031-0.005 0.029-0.035 0.247-0.222-0.015v-0.33l0.306-0.102 0.015-0.005 0.007-0.014 0.131-0.271 0.005-0.009-0.001-0.011-0.071-0.713-0.002-0.023-0.022-0.008-0.131-0.050-0.018-0.007-0.015 0.010-0.106 0.066-0.008-0.196-0.002-0.052-0.048 0.019-0.287 0.111-0.182-0.208 0.064-0.31 0.213 0.189 0.024 0.021 0.025-0.019 0.123-0.099 0.198 0.215 0.039 0.042 0.022-0.053 0.131-0.302 0.004-0.008-0.001-0.009-0.028-0.342 0.214-0.179 0.421 0.040 0.012-0.008 0.735-0.556-0.025-0.030-0.107-0.125 0.298 0.042-0.002-0.045-0.010-0.342-0.002-0.044-0.042 0.008-0.353 0.065-0.099-0.215-0.008-0.018-0.019-0.004-0.452-0.089 0.187-0.234-0.032-0.023-0.219-0.16 0.23-0.163-0.024-0.031-0.322-0.418-0.028 0.017-0.87 0.512-0.002 0.018-0.049 0.402-0.255 0.332 0.045 0.018 0.492 0.199-0.219 0.099-0.927-0.252-0.015 0.009-1.074 0.713-1.614 0.877-0.005 0.008-0.439 0.716 0.002 0.014 0.034 0.177-0.267 0.073-0.006 0.006-0.438 0.396 0.33 0.409 0.024-0.008 0.245-0.075 0.356 0.201-0.035 0.338-0.339 0.038-0.007 0.004-0.222 0.129-0.55-0.346v0.702l-0.514 0.386-0.004 0.008-0.215 0.418-0.003 0.005-0.098 0.189-0.519 0.292-0.391-0.371-0.013-0.002-0.415-0.042-0.011 0.007-0.577 0.375-0.004 0.005-0.392 0.482-0.005 0.006-0.002 0.007-0.135 0.473-0.228 0.070-0.308-0.154-0.010-0.005-0.011 0.001-0.328 0.032-0.147 0.192-0.137-0.118-0.025 0.026-0.105 0.113-0.105-0.099 0.262-0.262-0.64-0.047-0.012 0.010-0.329 0.286 0.007 0.023 0.165 0.561-0.232 0.224v-0.401h-0.262l-0.011 0.010-0.163 0.148-0.032-0.147 0.375-0.339-0.106 0.006-0.332 0.020-0.008 0.001-0.007 0.003-1.026 0.524 0.030 0.036 0.169 0.205-0.277 0.267 0.014 0.025 0.111 0.201 0.018 0.032 0.183-0.092 0.016 0.235 0.001 0.012 0.008 0.009 0.202 0.235-0.326 0.079-0.008 0.011-0.122 0.168 0.009 0.019 0.082 0.198-0.246 0.041-0.43-0.128-0.010 0.038-0.112 0.419-0.693-0.122v1.005l-0.428-0.072-0.7-0.634 0.233-0.164 0.030-0.021-0.020-0.030-0.458-0.682-0.009-0.005-0.306-0.148-0.015 0.005-0.429 0.146-0.526-0.204-0.005 0.049-0.069 0.741-0.855 0.365-0.302-0.205 0.056-0.202-0.048-0.001-0.934-0.010-0.012 0.015-0.241 0.322-0.005 0.005-0.002 0.006-0.017 0.061-0.031-0.158-0.002-0.012-0.009-0.009-0.198-0.175-0.025 0.026-0.196 0.206-0.272 0.136-0.019 0.009-0.020 0.010-0.268 0.134-0.002 0.002-0.296 0.227-0.419 0.122-0.008 0.013-0.087 0.152 0.006-0.239 0.827-0.857 0.002-0.005 0.464-0.837 0.001-0.004 0.211-0.743 0.005-0.019-0.013-0.015-0.654-0.746-0.016-0.001-0.623-0.021-0.012 0.016-0.202 0.289-0.163 0.027 0.16-0.452 0.015-0.044-0.046-0.005-0.43-0.053 0.125-0.18 0.020-0.028-0.026-0.022-0.319-0.265-0.020 0.008-0.272 0.101-0.012 0.004-0.007 0.010-0.441 0.656 0.005 0.016 0.089 0.338-0.456 0.029 0.003 0.038 0.010 0.121 0.001 0.010 0.005 0.008 0.119 0.175-0.26-0.055-0.015 0.013-0.157 0.148-0.34-0.062-0.044-0.148-0.008-0.027-0.029 0.001-0.58 0.011 0.002 0.038 0.009 0.278-0.63 0.088-0.008 0.006-0.433 0.344-0.342 0.011-0.010 0.008-0.251 0.221-0.008 0.008-0.003 0.012-0.111 0.452-0.003 0.014 0.007 0.012 0.188 0.339-0.267 0.067-0.851-0.139-0.515-0.011-0.011 0.020-0.155 0.273-0.005 0.008v0.009l-0.020 0.703-0.001 0.016 0.012 0.012 0.306 0.296 0.125 0.292h-0.353l-0.361-0.673-0.012-0.021-0.024 0.002-0.274 0.016-0.037 0.002-0.229 0.014-0.007 0.026-0.084 0.303-0.286-0.26-0.045-0.040-0.017 0.058-0.090 0.312-0.006 0.020 0.015 0.015 0.342 0.372 0.014 0.228-0.564-0.502-0.018-0.332 0.27-0.329 0.001-0.012 0.040-0.532 0.005-0.063-0.058 0.026-0.11 0.050-0.015 0.006-0.005 0.015-0.127 0.352-0.188 0.169-0.215 0.062-0.008 0.012-0.207 0.311v0.012l0.010 0.783-0.493 0.775 0.001 0.012 0.030 0.472 0.002 0.035h0.519l0.392 0.469v0.446l-0.298 0.359 0.091 0.182 0.005 0.010 0.010 0.005 0.148 0.083-0.303 0.071-0.107-0.402 0.322-0.564-0.005-0.016-0.141-0.422-0.008-0.022-0.023-0.003-0.511-0.072-0.013 0.012-0.271 0.261-0.011 0.010-0.001 0.015-0.029 0.579-0.436 0.446-0.413 0.151-0.006 0.006-0.26 0.279-0.9-0.556v-0.202l0.594 0.274 0.015-0.005 0.335-0.132 0.003-0.002 0.541-0.347 0.005-0.009 0.367-0.734-0.002-0.012-0.058-0.382 0.61-1.45v-0.002l0.070-0.251 0.002-0.009-0.002-0.009-0.066-0.311 0.396-0.375 0.002-0.013 0.080-0.533 0.002-0.015-0.009-0.012-0.272-0.361 0.293-0.039-0.005-0.037-0.047-0.388-0.004-0.031-0.031-0.002-0.317-0.023-0.037-0.003-0.003 0.037-0.023 0.282-0.001 0.009 0.003 0.008 0.035 0.090-0.12-0.049-0.020-0.008-0.017 0.013-0.305 0.234-0.003 0.004-0.36 0.459-0.272 0.262-0.422 0.101-0.008 0.007-0.221 0.211-0.024 0.023 0.020 0.027 0.206 0.272-0.222 0.398-0.342 0.104-0.002 0.026-0.010 0.151-0.001 0.016 0.012 0.012 0.276 0.285-0.092 0.259-0.004 0.011 0.003 0.012 0.050 0.181 0.002 0.006 0.004 0.005 0.092 0.134-0.315 0.289-0.093-0.148-0.099-0.426-0.002-0.006-0.003-0.005-0.393-0.629-0.010-0.015-0.008-0.015-0.192-0.352-0.002-0.004-0.003-0.004-0.514-0.555h-0.428l-0.007 0.029-0.050 0.221-0.001 0.003v0.004l-0.009 0.311-0.241 0.143-0.137-0.028-0.025-0.005-0.014 0.021-0.078 0.117-0.125-0.098 0.189-0.172 0.012-0.012v-0.274l-0.037-0.001-0.701-0.010-0.353-0.262-0.014 0.002-0.522 0.049-0.139-0.191 0.256-0.024 0.021-0.002 0.009-0.018 0.171-0.332 0.022-0.042-0.047-0.011-0.454-0.105-0.015 0.018-0.166 0.199-0.074-0.133-0.008-0.015-0.016-0.004-1.126-0.276-0.13 0.13-0.134-0.126-0.021-0.019-0.024 0.014-0.558 0.327-0.264-0.255 0.082-0.239 0.004-0.012-0.004-0.012-0.078-0.225 0.308-0.102 0.349 0.242 0.021-0.034 0.161-0.261 0.005-0.009v-0.011l-0.010-0.472v-0.014l-0.009-0.010-0.487-0.532-0.018 0.065-0.127 0.459-0.605 0.393-0.003 0.016-0.049 0.289-0.278 0.251-0.002 0.002-0.014 0.012-0.017 0.015-0.267 0.241-0.094-0.175 0.152-0.030 0.049-0.010-0.024-0.045-0.263-0.496-0.026 0.004-0.372 0.059-0.382-0.131-0.009 0.001-0.494 0.073-0.008 0.020-0.246 0.613-0.143-0.082-0.262-0.613 0.039-0.483 0.004-0.045-0.045 0.005-0.467 0.053-0.007 0.024-0.121 0.422-0.005 0.019 0.012 0.015 0.172 0.209-0.144 0.192-0.247-0.136-0.048-0.321-0.004-0.025-0.002-0.014-0.024-0.159 0.028-0.134 0.003-0.016-0.010-0.013-0.117-0.162 0.108-0.197 0.363-0.451 0.315-0.102 0.007-0.012 0.181-0.312 0.004-0.006 0.001-0.007 0.068-0.452 0.002-0.013 0.007-0.045 0.069-0.425 0.059 0.084-0.048 0.347-0.002 0.011 0.005 0.010 0.148 0.315 0.040 0.526 0.001 0.010 0.005 0.008 0.206 0.315 0.049 0.323 0.002 0.018 0.015 0.009 0.796 0.479 0.014-0.002 0.496-0.093 0.008-0.012 0.362-0.492 0.005-0.007 0.002-0.008 0.102-0.53-0.002-0.009-0.159-0.618 0.020-0.899v-0.006l-0.002-0.006-0.101-0.332-0.002-0.005-0.002-0.004-0.247-0.395-0.036-0.279 0.061-0.038 0.13 0.182 0.022 0.029 0.030-0.020 0.179-0.119-0.015-0.030-0.141-0.271-0.005-0.008-0.008-0.005-0.54-0.367-0.010-0.001-0.777-0.072-0.012 0.008-0.149 0.109-0.399 0.232 0.011 0.312-0.245 0.395-0.51 0.010-0.011 0.014-0.177 0.222-0.012 0.015-0.006 0.008-0.416 0.524-0.215-0.010-0.010 0.007-0.271 0.184-0.188-0.009-0.026-0.002-0.010 0.025-0.079 0.199-0.085 0.162-0.179 0.135 0.015 0.028 0.078 0.146-0.078 0.078-0.385-0.062-0.009 0.032-0.1 0.352-0.001 0.002-0.001 0.003-0.068 0.511-0.192 0.079-0.981-0.129-0.82 0.030-0.005 0.002-0.435 0.159-0.002 0.025-0.020 0.332v0.006l0.002 0.005 0.034 0.128-0.062 0.052-0.072-0.183-0.008-0.022-0.024-0.002-0.147-0.009-0.262-0.252-0.025 0.016-0.304 0.196-0.433 0.049-0.011 0.002-0.008 0.006-0.316 0.244-0.003 0.005-0.169 0.235-0.353-0.021-0.213 0.355-0.265 0.032-0.002 0.032-0.009 0.252-0.356 0.231-0.018 0.012 0.002 0.022 0.020 0.352 0.001 0.012 0.008 0.009 0.132 0.168-0.152 0.188-0.012 0.015 0.004 0.018 0.040 0.171 0.005 0.022 0.022 0.005 0.218 0.055 0.043 0.215-0.069 0.124-0.001 0.018-0.012 0.022-0.008 0.013-0.033 0.059-0.331 0.19-0.005 0.008-0.173 0.275-0.184 0.378-0.001 0.007-0.020 0.302-0.001 0.006 0.002 0.006 0.045 0.162-0.119 0.145-0.008 0.009-0.001 0.012-0.007 0.108-0.261-0.022-0.178-0.169 0.018-0.162 0.004-0.034-0.255-0.053-0.012 0.029-0.107 0.263-0.41 0.349 0.003 0.020 0.030 0.221 0.005 0.034 0.034-0.001 0.197-0.009 0.139 0.113 0.058 0.269 0.007 0.033 0.034-0.004 0.175-0.019 0.175 0.033v0.098l-0.255 0.335-0.016 0.021h-0.015l-0.008 0.003-0.179 0.077-0.006 0.012-0.073 0.145-0.131 0.033-0.002 0.028-0.010 0.201-0.001 0.022 0.019 0.012 0.15 0.088-0.038 0.352-0.002 0.012-0.005 0.006-0.146 0.181-0.002 0.002-0.070 0.11-0.008 0.013 0.003 0.015 0.030 0.151 0.004 0.019 0.017 0.008 0.127 0.059-0.018 0.205-0.002 0.022 0.019 0.012 0.365 0.23 0.010 0.422v0.009l0.004 0.008 0.299 0.569 0.005 0.011 0.013 0.024 0.079 0.151-0.015 0.382v0.002l-0.001 0.018-0.002 0.064-0.296-0.010-0.012 0.017-0.111 0.167-0.163 0.020-0.009 0.017-0.184 0.329-0.281 0.105-0.224-0.331-0.017-0.002-0.561-0.072-0.013 0.013-0.283 0.296 0.041 0.024 0.492 0.292-0.092 0.064-0.261-0.159-0.022-0.014-0.020 0.016-0.155 0.122-0.006-0.012-0.005-0.005-0.422-0.384-0.008 0.074-0.045 0.429-0.16-0.082-0.010 0.001-0.399 0.021-0.011 0.013-0.107 0.138-0.253-0.425-0.023-0.039-0.255 0.232-0.013 0.012 0.001 0.018 0.019 0.337-0.101 0.119-0.014 0.016 0.007 0.020 0.054 0.162 0.154 0.115-0.009 0.232v0.005l0.001 0.005 0.089 0.396-0.030 0.366-0.070 0.612-0.002 0.015 0.008 0.012 0.080 0.111 0.018 0.025 0.028-0.012 0.131-0.057 0.088 0.149 0.015 0.026 0.004 0.007 0.241 0.404v0.255l0.010 0.011 0.473 0.523 0.010 0.308v0.011l0.005 0.009 0.064 0.099 0.005 0.007 0.001 0.012 0.015 0.345 0.001 0.022 0.020 0.010 0.382 0.181 0.002 0.036 0.001 0.010 0.001 0.015 0.002 0.025 0.004 0.073 0.001 0.018 0.014 0.011 0.106 0.078 0.008 0.006 0.003 0.007 0.071 0.19 0.029 0.144-0.003 0.003-0.119 0.118 0.001 0.017 0.020 0.302 0.001 0.010 0.006 0.008 0.274 0.392-0.019 0.405-0.049 0.198-0.005 0.018 0.012 0.015 0.251 0.312 0.018 0.022 0.159-0.065 0.006-0.011 0.052-0.089 0.122 0.065 0.003 0.001 0.161 0.051 0.016 0.005 0.015-0.009 0.191-0.121 0.018-0.011v-0.55l0.128-0.738 0.483-0.463 0.002-0.014 0.040-0.482 0.001-0.006-0.002-0.006-0.045-0.187 0.214-0.162 0.005-0.004h0.007l0.322 0.006 0.008-0.003 0.306-0.142 0.002 0.003 0.011 0.004 0.321 0.117h0.007l0.888-0.021-0.009-0.044-0.062-0.294 0.173-0.033 0.025-0.005 0.005-0.025 0.161-0.904 0.003-0.016-0.009-0.013-0.149-0.202-0.189-0.045 0.022-0.124 0.252-0.232 0.025-0.022-0.019-0.027-0.207-0.288 0.073-0.038 0.162-0.072 0.017-0.005 0.36-0.119 0.004-0.022 0.047-0.244 0.272-0.15 0.306-0.079 0.002-0.001 0.11-0.034 0.003 0.003 0.179 0.17-0.018 0.179-0.049 0.157-0.005 0.015 0.008 0.014 0.111 0.201 0.017 0.030 0.032-0.015 0.233-0.106 0.006-0.012 0.108-0.216 0.113-0.122 0.308 0.059 0.014-0.012 0.162-0.133 0.095-0.008 0.079 0.061 0.012 0.008 0.014-0.001 0.315-0.020 0.004-0.001 0.231-0.060 0.134-0.029-0.010 0.212v0.009l0.003 0.008 0.121 0.292 0.012 0.029 0.030-0.006 0.141-0.030 0.010-0.002 0.008-0.007 0.082-0.074 0.165 0.078-0.008 0.108-0.068 0.146 0.016 0.018 0.070 0.080 0.006 0.008 0.009 0.003 0.182 0.064 0.075 0.262 0.078 0.339-0.086 0.21-0.006 0.015 0.098 0.195 0.018 0.036 0.035-0.021 0.217-0.132 0.069 0.021 0.061 0.131 0.049 0.257 0.003 0.015 0.012 0.008 0.151 0.111 0.022 0.015 0.022-0.015 0.17-0.114 0.152 0.009 0.291 0.128-0.008 0.125-0.001 0.012 0.005 0.010 0.079 0.135 0.017 0.003 0.181 0.034 0.014-0.015 0.104-0.112 0.116 0.116 0.004 0.002 0.16 0.098-0.037 0.257-0.001 0.007 0.002 0.007 0.040 0.161 0.002 0.009 0.006 0.007 0.181 0.201 0.007 0.007 0.010 0.003 0.167 0.055 0.015-0.009 0.136-0.082 0.089 0.030 0.090 0.181 0.015 0.005 0.39 0.127 0.182-0.136 0.003-0.005 0.173-0.249-0.009-0.019-0.284-0.622-0.005-0.009-0.002-0.001 0.002-0.002 0.105-0.138 0.396-0.031 0.004-0.031 0.028-0.252 0.155-0.086 0.169 0.009 0.247 0.193 0.023-0.022 0.163-0.152-0.016-0.026-0.168-0.276-0.073-0.256 0.169-0.178 0.139-0.041 0.256 0.275 0.015 0.001 0.557 0.035 0.016 0.004 0.559 0.129 0.339 0.212 0.021-0.016 0.172-0.135 0.266 0.142 0.005 0.001 0.956 0.183 0.011-0.005 0.356-0.162h0.011l0.26-0.005 0.22 0.373 0.009 0.015 0.018 0.003 0.205 0.032 0.016 0.005 0.119 0.035 0.009 0.219-0.080 0.089-0.015 0.016 0.007 0.021 0.054 0.161-0.187 0.215-0.012 0.015 0.005 0.018 0.040 0.171 0.005 0.022 0.022 0.005 0.406 0.094 0.018 0.204 0.003 0.032 0.033 0.002 0.207 0.010 0.146 0.036 0.127 0.143-0.215 0.178v0.229l0.048-0.015 0.215-0.065 0.199 0.11 0.014-0.003 0.181-0.040 0.009-0.002 0.007-0.006 0.143-0.124 0.441-0.080h0.016l0.435 0.010-0.152 0.16-0.019 0.021 0.015 0.025 0.436 0.719 0.006 0.011 0.003 0.013 0.485 2.329 0.007 0.035 0.035-0.005 0.277-0.042 0.009-0.013 0.164-0.236 0.124 0.051 0.047 0.251 0.003 0.018 0.015 0.009 0.567 0.31 0.016-0.006 0.418-0.155 0.205 0.088 0.159 0.329 0.006 0.012 0.002 0.012 0.035 0.346 0.002 0.019 0.017 0.009 0.303 0.171 0.009 0.32 0.001 0.029 0.028 0.006 0.309 0.068 0.122 0.151 0.019 0.024 0.027-0.015 0.321-0.169 0.058 0.207 0.002 0.006 0.003 0.005 0.241 0.356 0.017 0.002 0.389 0.043 0.012-0.025 0.101-0.22 0.471-0.020 0.009-0.007 0.319-0.238 0.013-0.009 0.013-0.005 1.288-0.484 0.435-0.029 0.068 0.102 0.009 0.013 0.015 0.003 0.668 0.145 0.046 0.286 0.003 0.019 0.017 0.008 0.267 0.134 0.007 0.001 0.733 0.080 0.279 0.038 0.142 0.132 0.016 0.015 0.022-0.008 0.238-0.082 0.005-0.005 0.218-0.187 0.003-0.008 0.159-0.392-0.015-0.017-0.242-0.29 0.028-0.422 0.161-0.050 0.002-0.026 0.008-0.177 0.177-0.008 0.028-0.002 0.062-0.239 0.845 0.339 0.761 0.175 0.155 0.6 0.004 0.016 0.015 0.008 0.581 0.306 0.010-0.001 0.412-0.010 0.009-0.005 0.558-0.333 0.433 0.138 0.007-0.001 0.439-0.028 0.109 0.191 0.010 0.018 0.021 0.001 0.295 0.013 0.008 0.001 0.146 0.006 0.161 0.302 0.009 0.018 0.020 0.002 1.328 0.122 0.010-0.006 0.876-0.528 0.298-0.011 0.008-0.025 0.087-0.282 0.415-0.386 0.573-0.028 0.169 0.16 0.025 0.024 0.026-0.024 0.238-0.219 1.077 0.172 0.011-0.029 0.146-0.4 0.377-0.262-0.012-0.028-0.147-0.362 0.157-0.982 0.28-0.28-0.008-0.022-0.181-0.482-0.008-0.022-0.023-0.002-0.326-0.035 0.24-0.446 0.484-0.336 0.015-0.008 0.67-0.345 0.516 0.179 0.009-0.002 0.614-0.098 0.91 0.901 1.162 1.203 0.023-0.009 0.437-0.175 0.283 0.132 0.016-0.008 0.188-0.094 0.375 0.118 0.008-0.001 0.208-0.027 0.302 0.476 0.004 0.004 0.34 0.297 0.022-0.011 0.698-0.339 0.005-0.015 0.088-0.274 0.502-0.561 0.264-0.122 0.256 0.417-0.095 0.305-0.004 0.012 0.004 0.012 0.164 0.468 0.004 0.012v0.012l-0.038 1.173v0.011l0.005 0.009 0.182 0.311-0.787 0.067-0.009 0.020-0.271 0.593-0.011 0.023 0.018 0.018 0.754 0.773 0.019 0.278 0.005 0.079 0.058-0.055 0.411-0.392 0.722 0.010 0.010-0.008 0.529-0.427 0.004-0.007 0.311-0.622 0.003-0.007 0.001-0.007 0.151-1.705 0.21-0.891 0.002-0.006-0.001-0.007-0.14-1.046-0.002-0.016 0.002-0.015 0.091-1.185 0.001-0.008-0.002-0.008-0.132-0.374-0.001-0.002-0.585-1.19-0.002-0.003-0.185-0.224-0.169-0.828-0.001-0.003-0.089-0.213 0.487 0.264 0.186 0.489 0.002 0.005 0.004 0.005 0.289 0.369 0.351 0.561 0.251 0.412 0.003 0.006 0.006 0.005 0.282 0.214 0.087 0.25 0.080 0.231 0.005 0.015 0.014 0.007 0.343 0.162 0.048 0.342 0.002 0.010 0.006 0.008 0.431 0.548 0.007-0.096 0.030-0.412 0.001-0.004-0.001-0.005-0.044-0.271 0.251-0.017 0.007-0.001 0.006-0.003 0.094-0.043 0.354 0.184-0.048-0.101-0.221-0.462-0.010-0.022h-0.337l-0.331-0.146-0.379-0.272-0.247-0.632-0.131-0.382 0.267-0.151 0.666-0.036-1.356-0.915-0.887-0.797-0.413-0.776-0.007-0.005-0.558-0.389-0.276-0.349-0.027 0.012-0.199 0.088-0.004 0.019-0.040 0.191-0.005 0.024 0.020 0.015 0.326 0.227 0.162 0.243-0.069 0.090-0.137-0.035-0.038-0.009-0.009 0.038-0.050 0.231-0.005 0.023 0.019 0.015 0.313 0.235 0.28 0.639-0.368-0.152-0.129-0.155 0.12-0.239 0.018-0.036-0.362-0.148-0.005-0.001-0.686-0.123-0.012 0.006-0.538 0.279-0.004 0.017-0.163 0.717-0.172-0.22-0.029-0.038-0.029 0.038-0.209 0.267-0.189-0.548-0.015-0.044-0.040 0.025-0.43 0.264-0.325-0.053 0.018-0.312 0.48-1.2 0.002-0.005 0.001-0.005 0.12-1.203 0.14-0.58 0.002-0.009-0.002-0.008-0.118-0.471 0.157-0.421 0.004-0.009-0.002-0.009-0.068-0.443 0.987-0.967 0.337 0.063 0.008-0.034 0.030-0.121 0.004-0.015-0.009-0.014-0.071-0.109 0.415-0.274 0.174-0.145 0.242-0.058 0.034-0.008-0.005-0.034-0.075-0.481 0.419-0.133 0.338-0.298 0.223-0.007-0.208 0.298 0.025 0.022 0.249 0.215 0.025-0.028 0.329-0.37 0.002-0.012 0.077-0.551 0.28-0.106 0.007-0.008 0.254-0.332-0.030-0.022-0.241-0.181-0.029-0.022-0.022 0.028-0.185 0.229-0.181-0.172-0.059-1.020v-0.005l-0.001-0.005-0.189-0.605 0.058-0.435 0.356-0.51 0.192-0.009 0.025-0.002 0.009-0.025 0.078-0.232 0.389 0.534 0.014 0.018 0.022-0.004 0.33-0.055 0.002-0.028 0.020-0.221v-0.005l-0.001-0.005-0.070-0.452-0.001-0.003-0.076-0.319-0.001-0.004 0.213-0.199-0.022-0.027-0.499-0.597 0.109-0.364 0.369-0.128-0.199 0.299-0.008 0.013 0.003 0.015 0.060 0.302 0.003 0.015 0.012 0.008 0.4 0.278 0.010 0.001 0.145 0.008-0.009 0.245-0.001 0.031 0.030 0.007 0.135 0.032-0.154 0.768-0.003 0.014 0.008 0.012 0.176 0.293 0.060 0.925v0.003l0.001 0.003 0.142 0.606 0.185 0.582-0.206 0.225-0.015 0.015 0.006 0.020 0.065 0.213-0.109 0.145-0.018 0.024 0.020 0.023 0.303 0.352 0.049 0.561 0.001 0.012 0.008 0.009 0.937 1.058 0.004 0.003 2.773 1.858 0.063 0.049zM10.802 9.629l-0.115 0.134 0.001 0.015 0.012 0.244-0.030 0.206-0.154 0.118-0.008 0.006-0.004 0.010-0.044 0.116-0.306 0.006-0.122-0.179-0.011-0.016h-0.31l-0.067-0.082 0.513-0.619-0.001-0.015-0.015-0.311 0.005-0.001 0.238-0.047 0.305 0.042 0.118 0.165-0.006 0.207zM12.413 10.361l-0.174 0.169-0.305 0.344-0.002 0.009-0.086 0.308-0.002 0.002-0.128 0.122-0.262-0.012-0.099-0.105 0.084 0.002h0.014l0.011-0.008 0.138-0.11 0.009 0.012 0.010-0.027 0.010-0.008-0.005-0.006 0.008-0.022 0.038-0.103 0.003-0.008-0.001-0.008-0.025-0.307 0.11-0.215 0.401-0.433 0.222 0.052 0.069 0.126-0.038 0.227zM38.43 27.241l-0.139 0.128-0.005 0.004-0.003 0.005-0.046 0.082-0.008 0.014 0.005 0.015 0.047 0.15-0.055 0.138-0.142 0.035-0.027 0.007-0.011 0.194-0.189 0.308-0.297 0.092-0.007 0.010-0.185 0.253-0.242-0.022-0.006 0.034-0.058 0.326-0.158 0.178-0.526 0.233h-0.332l-0.060-0.128 0.136-0.082 0.207-0.029 0.008-0.002 0.008-0.005 0.424-0.293 0.006-0.004 0.004-0.006 0.151-0.231 0.32-0.289 0.003-0.009 0.069-0.209 0.184-0.316 0.224-0.346 0.002-0.004 0.002-0.004 0.194-0.531v-0.001l0.018-0.049h-0.002l0.115-0.338 0.032-0.093 0.022-0.062 0.001-0.002 0.001-0.004 0.082-0.508 0.125-0.222 0.148 0.017 0.029 0.178-0.082 0.456-0.001 0.004v0.005l0.031 0.447v0.004l0.001 0.005 0.069 0.238-0.086 0.227zM60.526 23.691l-0.001-0.009-0.005-0.008-0.12-0.193-0.025-0.040-0.185 0.185 0.001 0.016 0.007 0.293 0.007 0.307v0.001l0.007 0.14 0.002 0.035h0.209l0.009-0.025 0.12-0.347 0.002-0.008-0.001-0.008-0.028-0.339zM60.17 26.407l-0.002-0.008-0.005-0.006-0.081-0.113-0.025-0.035-0.031 0.030-0.081 0.078-0.011 0.011-0.001 0.015-0.003 0.13v0.008l0.003 0.008 0.049 0.113 0.014 0.032 0.033-0.012 0.179-0.063-0.006-0.032-0.033-0.157zM59.553 26.148l-0.018-0.011-0.018 0.009-0.148 0.069-0.004 0.002-0.003 0.002-0.081 0.064-0.021 0.016 0.008 0.025 0.070 0.222-0.025 0.288-0.001 0.008 0.002 0.008 0.069 0.197 0.013 0.038 0.037-0.016 0.072-0.032 0.021-0.009 0.002-0.023 0.029-0.509 0.082-0.095 0.007-0.008 0.002-0.012 0.017-0.136 0.003-0.024-0.020-0.012-0.094-0.061zM60.066 25.035l0.001-0.002 0.115-0.18-0.004-0.015-0.046-0.193-0.007-0.027-0.028-0.002-0.147-0.007-0.042-0.002 0.004 0.042 0.012 0.135-0.085 0.074-0.002 0.001-0.001 0.002-0.18 0.186-0.011 0.012 0.001 0.016 0.013 0.446v0.005l0.053 0.36 0.003 0.019 0.018 0.009 0.067 0.033 0.047 0.024 0.007-0.052 0.027-0.206 0.040-0.273v-0.003l0.012-0.209 0.134-0.192zM27.35 10.418l-0.023 0.008-0.114 0.036-0.035 0.011 0.010 0.035 0.042 0.145 0.007 0.024 0.025 0.003 0.14 0.015 0.032 0.004 0.008-0.031 0.026-0.093 0.005-0.020-0.014-0.015-0.093-0.104-0.016-0.017zM27.001 3.442l-0.009 0.012-0.085 0.125-0.018 0.026 0.023 0.022 0.149 0.14 0.025-0.022 0.127-0.11-0.033 0.043-0.022 0.028 0.028 0.023 0.094 0.078 0.019 0.016 0.022-0.012 0.164-0.085 0.015-0.008 0.004-0.016 0.047-0.195 0.008-0.036-0.035-0.009-0.125-0.031-0.024-0.006-0.015 0.019-0.088 0.114-0.008-0.012-0.085-0.125-0.015-0.022-0.025 0.006-0.125 0.031-0.015 0.005zM61.311 12.108l-0.133-0.032-0.011-0.003-0.011 0.004-0.382 0.146 0.221 0.221 0.026-0.022 0.363-0.298-0.073-0.017zM26.981 2.943l-0.036 0.060-0.047 0.078-0.008 0.013 0.003 0.015 0.032 0.132 0.013 0.055 0.156-0.114-0.013-0.028-0.070-0.148-0.030-0.063zM27.552 4.074l0.015-0.020-0.013-0.022-0.078-0.132-0.028-0.047-0.034 0.043-0.102 0.131 0.015 0.022 0.085 0.125 0.029 0.042 0.032-0.041 0.078-0.102zM27.72 2.789l0.003 0.015 0.013 0.008 0.187 0.122 0.021-0.031 0.094-0.14 0.012-0.018-0.010-0.019-0.085-0.172-0.017-0.033-0.033 0.017-0.187 0.094-0.025 0.013 0.005 0.028 0.023 0.115zM27.362 3.203l0.007 0.008 0.009 0.003 0.296 0.102 0.042 0.014 0.008-0.043 0.039-0.226 0.003-0.020-0.015-0.014-0.319-0.285-0.024 0.017-0.268 0.188 0.027 0.032 0.195 0.225zM26.861 2.522l0.025 0.035 0.152-0.152-0.029-0.026-0.156-0.14-0.039-0.035-0.020 0.048-0.039 0.093-0.008 0.019 0.012 0.017 0.102 0.141zM28.121 2.589l0.003 0.006 0.005 0.004 0.101 0.091 0.025-0.019 0.102-0.078 0.035-0.027-0.032-0.030-0.148-0.14-0.024-0.022-0.025 0.021-0.078 0.062-0.025 0.019 0.015 0.028 0.046 0.085zM21.444 9.364l0.005 0.068 0.055-0.040 0.129-0.094 0.015-0.012v-0.26l-0.029-0.007-0.202-0.047 0.004 0.050 0.023 0.342zM25.88 2.275l0.003 0.012 0.010 0.008 0.14 0.109 0.012 0.009 0.015-0.001 0.188-0.015 0.141 0.114-0.162 0.022-0.005 0.002-0.097 0.042-0.249-0.071-0.004 0.045-0.015 0.164-0.002 0.018 0.012 0.012 0.148 0.148 0.182 0.229 0.027-0.049 0.047-0.085 0.007-0.012-0.003-0.013-0.032-0.143 0.156-0.036 0.247 0.082 0.022 0.007 0.205-0.205-0.023-0.026-0.148-0.172-0.006-0.007-0.009-0.003-0.125-0.047-0.019-0.007-0.016 0.012-0.125 0.095-0.011 0.002 0.023-0.028 0.101-0.121-0.027-0.024-0.172-0.154-0.020 0.006-0.124 0.038-0.282-0.182-0.079-0.052 0.023 0.092 0.045 0.184zM3.76 9.53l0.016 0.035 0.035-0.018 0.442-0.23 0.001-0.022 0.037-0.808 0.001-0.012-0.006-0.010-0.249-0.385-0.1 0.4-0.147-0.094-0.176-0.509-0.040 0.025-0.192 0.122-0.263-0.018-0.063-0.004 0.026 0.057 0.68 1.469zM19.362 10.2l0.011 0.014 0.018 0.001 0.436 0.012 0.009-0.027 0.047-0.152 0.002-0.008-0.001-0.008-0.025-0.228-0.002-0.012-0.008-0.009-0.216-0.235-0.017-0.018-0.023 0.008-0.329 0.115-0.005 0.018-0.075 0.267-0.005 0.018 0.012 0.015 0.174 0.229zM26.793 3.047l-0.015-0.038-0.036 0.018-0.246 0.128 0.020 0.034 0.156 0.267 0.034-0.032 0.156-0.148 0.018-0.018-0.010-0.024-0.078-0.188zM21.691 9.048l0.011 0.309-0.219 0.219 0.011 0.024 0.165 0.364 0.008 0.019 0.021 0.002 0.157 0.019 0.010 0.134 0.002 0.028 0.235 0.052 0.137 0.069 0.049 0.024 0.005-0.054 0.094-0.891 0.068-0.329 0.28-0.302 0.355-0.119 0.007-0.010 0.141-0.199 0.011-0.015-0.006-0.018-0.049-0.147 0.181 0.115 0.013-0.001 0.259-0.026 0.057-0.172 0.124 0.009 0.038 0.003 0.002-0.038 0.009-0.126 0.182 0.069 0.008-0.043 0.021-0.104 0.091 0.098 0.030 0.033 0.027-0.036 0.105-0.141 0.005-0.008 0.002-0.009 0.025-0.152 0.151 0.107 0.025 0.017 0.022-0.020 0.115-0.105 0.273 0.059 0.015-0.017 0.212-0.245 1.707-0.035 0.008-0.005 0.411-0.223 0.016-0.009 0.003-0.018 0.047-0.306 0.002-0.016-0.011-0.013-0.192-0.23-0.023 0.006-0.429 0.11-0.008 0.016-0.059 0.129-0.666-0.055-0.316-0.268-0.022 0.013-0.254 0.143-0.253-0.11-0.018-0.008-0.017 0.011-0.331 0.217h-0.284l-0.011 0.009-0.111 0.098-0.164-0.174-0.048-0.051-0.015 0.068-0.088 0.384-0.214 0.012-0.005 0.030-0.020 0.141-0.493 0.153-0.175-0.077-0.025-0.012-0.018 0.022-0.118 0.141-0.022 0.026 0.149 0.149-0.165 0.157-0.36-0.149-0.008 0.045-0.041 0.226-0.251-0.012-0.002 0.037-0.011 0.179-0.308 0.159-0.215-0.072-0.25 0.188-0.014 0.011-0.001 0.018-0.012 0.259-0.001 0.016 0.012 0.012 0.211 0.212zM22.624 10.678l-0.035 0.009-0.305 0.076-0.004 0.024-0.047 0.27-0.002 0.014 0.007 0.012 0.176 0.294 0.012 0.021 0.024-0.002 0.223-0.024 0.032-0.003 0.002-0.032 0.012-0.306v-0.006l-0.001-0.005-0.082-0.306-0.010-0.036zM1.719 19.233l-0.492-0.647 0.29-0.824-0.251-0.207-0.182 0.128-0.722-0.493-0.118 0.188 0.027 0.572-0.272 0.29 0.082 0.449 0.482-0.028 0.514 0.646 0.385 0.227 0.021-0.025 0.236-0.275z">
      </path>
    </symbol>
    <symbol id="setl" viewBox="0 0 72 32">
      <path fill="#fff" style="fill: var(--color2, #fff)"
        d="M13.21 11.036h-2.011c0-0.151-0.382-1.302-1.998-1.302-1.184 0-1.434 0.621-1.434 1.035 0 0.962 1.604 1.156 2.559 1.399 1.079 0.274 3.195 0.834 3.195 2.967 0 1.183-0.636 1.953-1.197 2.398-0.741 0.577-1.776 0.873-2.988 0.873-3.001 0-4.312-1.716-4.452-3.36h2.288c0.044 0.366 0.507 1.583 2.238 1.583 1.48 0 1.657-0.785 1.657-1.111 0-0.931-1.302-1.151-2.45-1.449-1.186-0.31-3.216-0.814-3.216-3.005 0-1.613 1.169-3.107 3.92-3.107 3.505 0.001 3.89 2.552 3.89 3.078z">
      </path>
      <path fill="#fff" style="fill: var(--color2, #fff)"
        d="M21.739 15.758c-0.106 0.552-0.822 2.649-3.611 2.649-1.243 0-2.161-0.49-2.723-1.051-0.518-0.518-1.079-1.438-1.079-2.857 0-1.657 0.739-2.591 1.33-3.094 0.874-0.739 1.82-0.843 2.486-0.843 1.435 0 2.338 0.651 2.841 1.259 0.459 0.547 0.873 1.449 0.873 2.723v0.384h-5.166c0 0.993 0.382 1.999 1.542 1.999 0.989 0 1.39-0.762 1.48-1.17h2.030zM19.591 13.671c0-0.367-0.166-1.629-1.421-1.629s-1.483 1.107-1.483 1.629h2.904z">
      </path>
      <path fill="#fff" style="fill: var(--color2, #fff)"
        d="M25.799 10.711h1.567v1.555h-1.567v3.388c0 0.266 0 0.592 0.236 0.843 0.192 0.193 0.443 0.222 0.68 0.222h0.814v1.556c-0.503 0.072-1.153 0.133-1.627 0.133-0.547 0-1.287-0.119-1.776-0.637-0.56-0.59-0.531-1.333-0.531-2.056v-3.449h-1.185v-1.555h1.185l0.206-2.308h1.998v2.308z">
      </path>
      <path fill="#fff" style="fill: var(--color2, #fff)"
        d="M41.494 18.259h-1.243l-0.368-1.109c-0.253 0.341-0.593 0.635-0.918 0.829-0.547 0.311-1.258 0.429-1.878 0.429-0.917 0-2.071-0.194-3.033-1.258-0.886-0.978-1.347-2.517-1.347-3.833 0-1.348 0.385-2.857 1.271-3.879 1.052-1.213 2.367-1.479 3.417-1.479 3.063 0 3.926 2.045 4.068 3.582h-2.294c-0.043-0.37-0.191-0.813-0.413-1.111-0.236-0.325-0.666-0.695-1.405-0.695-0.578 0-1.258 0.236-1.702 1.095-0.118 0.236-0.398 0.858-0.398 2.338 0 0.873 0.102 1.835 0.473 2.457 0.312 0.517 0.842 1.007 1.715 1.007 0.549 0 0.992-0.207 1.288-0.504 0.295-0.296 0.519-0.798 0.519-1.332v-0.253h-2.029v-1.732h4.277v5.446h-0.001z">
      </path>
      <path fill="#fff" style="fill: var(--color2, #fff)"
        d="M43.131 18.258v-7.548h1.924v1.672h0.030c0.072-0.577 0.355-0.977 0.547-1.183 0.251-0.266 0.723-0.637 1.493-0.637 0.134 0 0.267 0.017 0.4 0.030v1.983h-0.355c-0.369 0-0.725 0.074-1.007 0.252-0.724 0.458-0.829 1.17-0.829 1.968v3.462l-2.204 0.001z">
      </path>
      <path fill="#fff" style="fill: var(--color2, #fff)"
        d="M54.491 11.598c0.355 0.356 1.124 1.287 1.124 2.871 0 1.214-0.473 2.295-1.182 2.976-0.517 0.488-1.361 0.962-2.559 0.962-1.2 0-2.042-0.474-2.56-0.962-0.71-0.681-1.182-1.762-1.182-2.976 0-1.583 0.77-2.516 1.126-2.871 0.873-0.859 1.877-1.036 2.618-1.036 0.738 0 1.744 0.178 2.617 1.036zM50.822 12.635c-0.356 0.547-0.385 1.272-0.385 1.834 0 1.021 0.162 1.509 0.341 1.821 0.281 0.488 0.696 0.637 1.096 0.637 0.398 0 0.814-0.15 1.095-0.637 0.179-0.312 0.34-0.799 0.34-1.821 0-0.563-0.029-1.287-0.384-1.834-0.252-0.399-0.578-0.592-1.051-0.592s-0.801 0.194-1.051 0.592z">
      </path>
      <path fill="#fff" style="fill: var(--color2, #fff)"
        d="M58.904 10.711v4.544c0 0.28 0 0.813 0.25 1.139 0.163 0.222 0.444 0.341 0.753 0.341 0.355 0 0.74-0.162 0.993-0.503 0.294-0.384 0.34-0.841 0.34-1.227v-4.292h2.203v7.548h-2.042v-1.347h-0.028c-0.386 0.889-1.156 1.496-2.263 1.496-0.682 0-1.183-0.207-1.568-0.535-0.741-0.621-0.845-1.48-0.845-2.263v-4.899l2.207-0.001z">
      </path>
      <path fill="#fff" style="fill: var(--color2, #fff)"
        d="M65.054 20.685v-9.975h2.042v1.214c0.458-0.888 1.347-1.362 2.293-1.362 1.85 0 2.841 1.613 2.841 3.849 0 2.841-1.465 3.996-2.929 3.996-0.902 0-1.581-0.371-2.041-1.111v3.389l-2.205-0.001zM67.259 15.24c0 1.051 0.487 1.688 1.286 1.688 1.097 0 1.374-1.199 1.374-2.472 0-1.717-0.531-2.413-1.374-2.413-0.784 0-1.286 0.667-1.286 1.57v1.628z">
      </path>
      <path fill="#fff" style="fill: var(--color2, #fff)" d="M31.424 7.024h-2.241v11.212h2.241v-11.212z"></path>
      <path fill="#fff" style="fill: var(--color2, #fff)" d="M31.413 7.027h-2.242v11.211h2.242v-11.211z"></path>
      <path fill="#fff" style="fill: var(--color2, #fff)"
        d="M0 0.303v31.395h31.417v-11.177h-2.244v8.931h-26.9l-0.008-26.894 26.908-0.008v2.247h2.244v-4.493h-31.417z">
      </path>
    </symbol>
    <symbol id="skill" viewBox="0 0 32 32">
      <path fill="#e4b564" style="fill: var(--color1, #e4b564)"
        d="M12.4 5.2c-0.438 0-0.8 0.362-0.8 0.8v0.189c-2.466 0.55-4.32 2.68-4.378 5.292-0.467 0.28-0.822 0.736-0.822 1.319v1.2h0.8v1.419h0.002c0.003 0.227 0.067 0.405 0.119 0.581 0.027 0.092 0.053 0.177 0.069 0.239 0.017 0.063 0.019 0.125 0.019 0.061 0 0.502 0.427 0.9 0.922 0.9h0.108c0.062 1.267 0.655 2.391 1.562 3.15v1.317c-0.575 0.136-1.855 0.469-3.15 0.988-0.869 0.348-1.747 0.78-2.433 1.316-0.688 0.536-1.217 1.209-1.217 2.030v2h19.2v-2c0-0.442-0.158-0.841-0.408-1.2h6.808v-1.52c0-0.703-0.436-1.289-0.994-1.77s-1.267-0.881-1.97-1.214c-1.275-0.6-2.409-0.931-2.636-0.995v-0.494c0.888-0.609 1.477-1.614 1.556-2.761h0.055c0.441 0 0.82-0.355 0.82-0.803 0 0.072 0 0.020 0.012-0.030 0.014-0.048 0.034-0.116 0.056-0.189 0.036-0.12 0.072-0.25 0.088-0.405h0.212v-1.419h0.8v-1.2c0-0.592-0.33-1.128-0.842-1.405-0.245-1.95-1.661-3.553-3.558-4.041v-0.155c0-0.441-0.359-0.8-0.8-0.8h-0.8c-0.441 0-0.8 0.359-0.8 0.8v0.156c-0.67 0.172-1.28 0.486-1.8 0.903 0.162 0.213 0.316 0.433 0.452 0.662 0.403-0.333 0.875-0.587 1.391-0.744 0.067 0.136 0.206 0.222 0.358 0.222 0.217 0 0.395-0.173 0.4-0.391v-0.809h0.8v0.809c0.006 0.217 0.183 0.391 0.4 0.391 0.152 0 0.291-0.088 0.358-0.223 1.408 0.425 2.467 1.594 2.756 3.033-0.183 0.041-0.314 0.203-0.314 0.391 0 0.22 0.18 0.4 0.4 0.4 0.030 0 0.059-0.003 0.088-0.011l0.167 0.058c0.327 0.111 0.545 0.412 0.545 0.753v0.4h-5.6v0.8h3.6v1.556l0.534-0.283c0.009-0.005 0.019-0.009 0.030-0.011 0.034-0.006 0.088-0.012 0.141-0.017 0.052-0.005 0.103-0.009 0.142-0.012 0.020 0 0.036-0.002 0.047-0.002h0.002c0.070 0 0.105 0.041 0.105 0.083 0-0.017-0.027 0.145-0.067 0.283-0.020 0.069-0.042 0.139-0.059 0.208-0.019 0.067-0.042 0.109-0.042 0.237 0-0.002 0.005 0.003-0.020 0.003h-0.811v0.555c0 1.402-0.977 2.547-2.3 2.783l-0.112 0.020-0.086 0.078c-0.084 0.075-0.186 0.119-0.302 0.119s-0.217-0.044-0.302-0.119l-0.086-0.078-0.112-0.020c-0.23-0.041-0.47-0.081-0.7-0.12v-0.062h-0.8v1.58l0.042 0.084c0 0 0.602 1.136 1.958 1.136 1.262 0 1.847-0.95 1.925-1.086 0.364 0.108 1.28 0.392 2.369 0.905 0.664 0.314 1.323 0.694 1.791 1.097s0.716 0.803 0.716 1.164v0.72h-6.781c-0.011-0.009-0.023-0.020-0.036-0.030-0.686-0.536-1.564-0.967-2.433-1.316-1.295-0.519-2.575-0.852-3.15-0.988v-1.317c0.908-0.759 1.5-1.883 1.562-3.15h0.108c0.495 0 0.922-0.398 0.922-0.9 0 0.064 0.002 0.002 0.019-0.061 0.016-0.062 0.042-0.147 0.069-0.239 0.052-0.177 0.116-0.355 0.119-0.581h0.002v-1.419h0.8v-1.2c0-0.581-0.355-1.039-0.82-1.317-0.058-2.614-1.914-4.744-4.38-5.294v-0.189c0-0.438-0.362-0.8-0.8-0.8h-0.8zM12.4 6h0.8v0.811c0.006 0.216 0.183 0.389 0.4 0.389 0.162 0 0.309-0.098 0.37-0.25 1.961 0.491 3.441 2.18 3.611 4.25-0.213 0.011-0.381 0.186-0.381 0.4 0 0.22 0.18 0.4 0.4 0.4 0.030 0 0.061-0.003 0.089-0.011l0.172 0.059c0.314 0.109 0.539 0.398 0.539 0.752v0.4h-11.2v-0.4c0-0.352 0.225-0.641 0.539-0.75l0.17-0.061c0.030 0.008 0.059 0.011 0.091 0.011 0.22 0 0.4-0.18 0.4-0.4 0-0.214-0.169-0.389-0.381-0.4 0.17-2.070 1.65-3.758 3.611-4.25 0.061 0.152 0.208 0.25 0.37 0.25 0.217 0 0.394-0.173 0.4-0.389v-0.811zM12 8c-0.22 0-0.4 0.18-0.4 0.4s0.18 0.4 0.4 0.4c0.22 0 0.4-0.18 0.4-0.4s-0.18-0.4-0.4-0.4zM13.6 8c-0.22 0-0.4 0.18-0.4 0.4s0.18 0.4 0.4 0.4c0.22 0 0.4-0.18 0.4-0.4s-0.18-0.4-0.4-0.4zM20.4 8.4c-0.22 0-0.4 0.18-0.4 0.4s0.18 0.4 0.4 0.4c0.22 0 0.4-0.18 0.4-0.4s-0.18-0.4-0.4-0.4zM22 8.4c-0.22 0-0.4 0.18-0.4 0.4s0.18 0.4 0.4 0.4c0.22 0 0.4-0.18 0.4-0.4s-0.18-0.4-0.4-0.4zM12 9.6c-0.22 0-0.4 0.18-0.4 0.4s0.18 0.4 0.4 0.4c0.22 0 0.4-0.18 0.4-0.4s-0.18-0.4-0.4-0.4zM13.6 9.6c-0.22 0-0.4 0.18-0.4 0.4s0.18 0.4 0.4 0.4c0.22 0 0.4-0.18 0.4-0.4s-0.18-0.4-0.4-0.4zM23.6 10.4c-0.22 0-0.4 0.18-0.4 0.4s0.18 0.4 0.4 0.4c0.22 0 0.4-0.18 0.4-0.4s-0.18-0.4-0.4-0.4zM9.6 11.2c-0.22 0-0.4 0.18-0.4 0.4s0.18 0.4 0.4 0.4c0.22 0 0.4-0.18 0.4-0.4s-0.18-0.4-0.4-0.4zM16 11.2c-0.22 0-0.4 0.18-0.4 0.4s0.18 0.4 0.4 0.4c0.22 0 0.4-0.18 0.4-0.4s-0.18-0.4-0.4-0.4zM24.8 13.2h0.4v0.488c-0.097-0.036-0.198-0.056-0.305-0.056-0.044 0-0.031 0-0.047 0-0.012 0.002-0.030 0.003-0.048 0.005v-0.436zM8 14h0.4v0.412c-0.019-0.002-0.041-0.005-0.056-0.006-0.027-0.002-0.048-0.003-0.066-0.005-0.017 0-0.008-0.002-0.053-0.002-0.077 0-0.152 0.011-0.225 0.027v-0.427zM9.2 14h7.2v1.538l0.538-0.281c0.008-0.005 0.028-0.012 0.048-0.017 0.042-0.006 0.103-0.014 0.164-0.020 0.061-0.005 0.12-0.011 0.167-0.014 0.022-0.002 0.041-0.003 0.053-0.005 0.014 0 0.044 0 0.005 0 0.137 0 0.225 0.094 0.225 0.2 0 0.006-0.038 0.203-0.088 0.375-0.027 0.087-0.052 0.173-0.075 0.255-0.022 0.081-0.045 0.136-0.045 0.27 0 0.050-0.041 0.1-0.122 0.1h-0.87v0.589c0 1.775-1.28 3.241-2.964 3.541l-0.114 0.020-0.084 0.078c-0.12 0.108-0.269 0.172-0.438 0.172s-0.317-0.064-0.438-0.172l-0.084-0.078-0.114-0.020c-1.684-0.3-2.964-1.764-2.964-3.541v-0.589h-0.87c-0.081 0-0.122-0.050-0.122-0.1 0-0.134-0.023-0.189-0.045-0.27-0.023-0.081-0.048-0.167-0.075-0.255-0.050-0.172-0.088-0.369-0.088-0.375 0-0.106 0.088-0.2 0.225-0.2-0.039 0-0.009 0 0.003 0 0.012 0.002 0.033 0.003 0.055 0.005 0.047 0.003 0.106 0.009 0.167 0.014 0.061 0.006 0.122 0.014 0.164 0.020 0.022 0.005 0.047 0.016 0.053 0.017l0.533 0.281v-1.538zM17.2 14h0.4v0.427c-0.073-0.016-0.148-0.027-0.225-0.027-0.045 0-0.036 0.002-0.053 0.002-0.017 0.002-0.039 0.003-0.066 0.005-0.016 0.002-0.039 0.005-0.056 0.006v-0.412zM22.6 14c-0.331 0-0.6 0.269-0.6 0.6s0.269 0.6 0.6 0.6c0.331 0 0.6-0.269 0.6-0.6s-0.269-0.6-0.6-0.6zM11 15.2c-0.331 0-0.6 0.269-0.6 0.6s0.269 0.6 0.6 0.6c0.331 0 0.6-0.269 0.6-0.6s-0.269-0.6-0.6-0.6zM14.6 15.2c-0.331 0-0.6 0.269-0.6 0.6s0.269 0.6 0.6 0.6c0.331 0 0.6-0.269 0.6-0.6s-0.269-0.6-0.6-0.6zM22.4 19.216v0.545c-0.047 0.092-0.342 0.639-1.2 0.639s-1.153-0.547-1.2-0.639v-0.486c0.191 0.031 0.292 0.048 0.469 0.080 0.205 0.148 0.456 0.245 0.731 0.245 0.28 0 0.534-0.098 0.741-0.252 0.158-0.034 0.311-0.080 0.459-0.133zM10.8 20.88c0.348 0.18 0.722 0.317 1.119 0.398 0.244 0.191 0.544 0.322 0.881 0.322s0.638-0.131 0.881-0.322c0.397-0.081 0.77-0.219 1.119-0.398v1.383c-0.048 0.097-0.569 1.098-2 1.098s-1.952-1.002-2-1.098v-1.383zM21.2 22.4c-0.22 0-0.4 0.18-0.4 0.4s0.18 0.4 0.4 0.4c0.22 0 0.4-0.18 0.4-0.4s-0.18-0.4-0.4-0.4zM22.8 22.4c-0.22 0-0.4 0.18-0.4 0.4s0.18 0.4 0.4 0.4c0.22 0 0.4-0.18 0.4-0.4s-0.18-0.4-0.4-0.4zM24.4 22.4c-0.22 0-0.4 0.18-0.4 0.4s0.18 0.4 0.4 0.4c0.22 0 0.4-0.18 0.4-0.4s-0.18-0.4-0.4-0.4zM26 22.4c-0.22 0-0.4 0.18-0.4 0.4s0.18 0.4 0.4 0.4c0.22 0 0.4-0.18 0.4-0.4s-0.18-0.4-0.4-0.4zM10.005 22.491l0.037 0.077c0 0 0.83 1.594 2.758 1.594s2.758-1.594 2.758-1.594l0.037-0.077c0.608 0.15 1.716 0.448 2.855 0.906 0.831 0.333 1.653 0.745 2.242 1.203 0.588 0.459 0.908 0.931 0.908 1.4v1.2h-17.6v-1.2c0-0.469 0.32-0.941 0.908-1.4 0.589-0.458 1.411-0.87 2.242-1.203 1.139-0.458 2.247-0.756 2.855-0.906zM5.6 25.6c-0.22 0-0.4 0.18-0.4 0.4s0.18 0.4 0.4 0.4c0.22 0 0.4-0.18 0.4-0.4s-0.18-0.4-0.4-0.4zM7.2 25.6c-0.22 0-0.4 0.18-0.4 0.4s0.18 0.4 0.4 0.4c0.22 0 0.4-0.18 0.4-0.4s-0.18-0.4-0.4-0.4zM8.8 25.6c-0.22 0-0.4 0.18-0.4 0.4s0.18 0.4 0.4 0.4c0.22 0 0.4-0.18 0.4-0.4s-0.18-0.4-0.4-0.4zM10.4 25.6c-0.22 0-0.4 0.18-0.4 0.4s0.18 0.4 0.4 0.4c0.22 0 0.4-0.18 0.4-0.4s-0.18-0.4-0.4-0.4zM12 25.6c-0.22 0-0.4 0.18-0.4 0.4s0.18 0.4 0.4 0.4c0.22 0 0.4-0.18 0.4-0.4s-0.18-0.4-0.4-0.4zM13.6 25.6c-0.22 0-0.4 0.18-0.4 0.4s0.18 0.4 0.4 0.4c0.22 0 0.4-0.18 0.4-0.4s-0.18-0.4-0.4-0.4zM15.2 25.6c-0.22 0-0.4 0.18-0.4 0.4s0.18 0.4 0.4 0.4c0.22 0 0.4-0.18 0.4-0.4s-0.18-0.4-0.4-0.4zM16.8 25.6c-0.22 0-0.4 0.18-0.4 0.4s0.18 0.4 0.4 0.4c0.22 0 0.4-0.18 0.4-0.4s-0.18-0.4-0.4-0.4zM18.4 25.6c-0.22 0-0.4 0.18-0.4 0.4s0.18 0.4 0.4 0.4c0.22 0 0.4-0.18 0.4-0.4s-0.18-0.4-0.4-0.4zM20 25.6c-0.22 0-0.4 0.18-0.4 0.4s0.18 0.4 0.4 0.4c0.22 0 0.4-0.18 0.4-0.4s-0.18-0.4-0.4-0.4z">
      </path>
    </symbol>
    <symbol id="truba" viewBox="0 0 32 32">
      <path fill="#e4b564" style="fill: var(--color1, #e4b564)"
        d="M4.4 3.2c-0.22 0-0.4 0.18-0.4 0.4s0.18 0.4 0.4 0.4c0.22 0 0.4-0.18 0.4-0.4s-0.18-0.4-0.4-0.4zM11.6 3.2c-0.22 0-0.4 0.18-0.4 0.4s0.18 0.4 0.4 0.4c0.22 0 0.4-0.18 0.4-0.4s-0.18-0.4-0.4-0.4zM4.4 4.8c-0.22 0-0.4 0.18-0.4 0.4s0.18 0.4 0.4 0.4c0.22 0 0.4-0.18 0.4-0.4s-0.18-0.4-0.4-0.4zM11.6 4.8c-0.22 0-0.4 0.18-0.4 0.4s0.18 0.4 0.4 0.4c0.22 0 0.4-0.18 0.4-0.4s-0.18-0.4-0.4-0.4zM4.394 6.394c-0.22 0.005-0.397 0.186-0.394 0.406v2.8c0 5.519 4.481 10 10 10h0.167c0.177 0.442 0.53 0.8 1.033 0.8s0.856-0.358 1.033-0.8h2.567c0.667 0 1.2 0.533 1.2 1.2v5.2h8v-4.4c0-5.519-4.481-10-10-10h-1.767c-0.177-0.442-0.53-0.8-1.033-0.8s-0.856 0.358-1.033 0.8h-0.967c-0.667 0-1.2-0.533-1.2-1.2v-3.6c0.002-0.144-0.073-0.278-0.198-0.352-0.125-0.072-0.278-0.072-0.403 0-0.125 0.073-0.2 0.208-0.198 0.352v3.6c0 1.1 0.9 2 2 2h0.8c0 0.22 0.18 0.4 0.4 0.4s0.4-0.18 0.4-0.4v-0.4c0-0.227 0.173-0.4 0.4-0.4s0.4 0.173 0.4 0.4v0.4c0 0.22 0.18 0.4 0.4 0.4s0.4-0.18 0.4-0.4h1.6c5.086 0 9.2 4.114 9.2 9.2v3.6h-6.4v-4.4c0-1.1-0.9-2-2-2h-2.4c0-0.22-0.18-0.4-0.4-0.4s-0.4 0.18-0.4 0.4v0.4c0 0.227-0.173 0.4-0.4 0.4s-0.4-0.173-0.4-0.4v-0.4c0-0.22-0.18-0.4-0.4-0.4s-0.4 0.18-0.4 0.4c-5.086 0-9.2-4.114-9.2-9.2v-2.8c0.002-0.108-0.041-0.213-0.117-0.289s-0.181-0.119-0.289-0.117zM14.4 13.6c-0.22 0-0.4 0.18-0.4 0.4s0.18 0.4 0.4 0.4c0.22 0 0.4-0.18 0.4-0.4s-0.18-0.4-0.4-0.4zM16 13.6c-0.22 0-0.4 0.18-0.4 0.4s0.18 0.4 0.4 0.4c0.22 0 0.4-0.18 0.4-0.4s-0.18-0.4-0.4-0.4zM14.4 15.2c-0.22 0-0.4 0.18-0.4 0.4s0.18 0.4 0.4 0.4c0.22 0 0.4-0.18 0.4-0.4s-0.18-0.4-0.4-0.4zM16 15.2c-0.22 0-0.4 0.18-0.4 0.4s0.18 0.4 0.4 0.4c0.22 0 0.4-0.18 0.4-0.4s-0.18-0.4-0.4-0.4zM14.4 16.8c-0.22 0-0.4 0.18-0.4 0.4s0.18 0.4 0.4 0.4c0.22 0 0.4-0.18 0.4-0.4s-0.18-0.4-0.4-0.4zM16 16.8c-0.22 0-0.4 0.18-0.4 0.4s0.18 0.4 0.4 0.4c0.22 0 0.4-0.18 0.4-0.4s-0.18-0.4-0.4-0.4zM24 27.2c0 0-0.8 1.558-0.8 2s0.358 0.8 0.8 0.8c0.442 0 0.8-0.358 0.8-0.8s-0.8-2-0.8-2z">
      </path>
    </symbol>
    <symbol id="upload" viewBox="0 0 32 32">
      <path fill="#fff" style="fill: var(--color2, #fff)"
        d="M15 3.586l-7.703 7.711 1.406 1.406 5.297-5.289v14.586h2v-14.586l5.289 5.289 1.422-1.406-7.711-7.711zM6 26v2h18v-2h-18z">
      </path>
    </symbol>
  </defs>
</svg>