<svg width="360" height="477" viewBox="0 0 360 477" fill="none" xmlns="http://www.w3.org/2000/svg">
<path d="M444.628 127.778L444.468 128.157L443.929 129.464L443.814 129.751L443.998 130.003L445.156 131.621L445.546 132.171L446.005 131.678L447.244 130.37L447.382 130.221L447.393 130.015L447.474 128.547L447.496 128.007L446.957 127.962L445.03 127.812L444.628 127.778ZM447.129 147.954L447.049 149.652L447.038 149.961L447.301 150.134L448.46 150.902L448.976 151.246L449.263 150.696L449.963 149.388L450.204 148.941L449.779 148.665L448.001 147.507L447.187 146.979L447.129 147.954ZM445.627 152.863L444.961 152.118L444.674 153.081L444.055 155.169L443.94 155.547L444.261 155.777L445.42 156.626L445.936 157.004L446.235 156.431L447.003 154.962L447.187 154.618L446.934 154.332L445.627 152.863ZM449.171 146.784L449.229 146.933L449.355 147.037L450.663 148.046L451.122 148.402L451.454 147.92L452.693 146.142L453.003 145.695L452.567 145.373L450.559 143.905L450.238 143.664L449.906 143.894L448.827 144.662L448.483 144.915L448.632 145.316L449.171 146.784ZM467.928 115.757L467.962 116.044L468.215 116.182L470.922 117.673L471.668 118.086L471.737 117.226L471.92 115.081L471.943 114.851L471.794 114.668L470.016 112.614L469.649 112.19L469.224 112.546L467.916 113.67L467.687 113.865L467.721 114.151L467.928 115.757ZM452.246 61.595L452.28 61.9735L452.647 62.0882L455.022 62.8223L455.171 62.8682L455.32 62.8338L457.924 62.157L458.567 61.985L458.303 61.3885L456.777 57.9934L456.72 57.8672L456.617 57.7869L454.701 56.2614L454.322 55.9631L453.967 56.2958L452.613 57.6034L452.475 57.741L452.452 57.936L452.166 60.0924L452.154 60.1612V60.2071L452.246 61.595ZM428.35 141.6L428.281 141.921L427.971 143.469L427.925 143.722L428.086 143.928L429.394 145.626L429.795 146.142L430.243 145.672L431.631 144.203L431.849 143.974L431.768 143.676L431.149 141.359L431 140.797L430.449 140.969L428.671 141.508L428.35 141.6ZM425.723 162.223L425.459 162.085L423.681 161.156L423.233 160.927L422.958 161.34L420.95 164.357L420.732 164.689L420.973 165.01L423.52 168.325L423.784 168.669L424.186 168.497L425.964 167.729L426.342 167.568L426.296 167.155L425.757 162.521L425.723 162.223ZM420.228 54.862L420.079 54.4032L419.149 51.6159L419.069 51.3751L418.84 51.2718L415.467 49.8839L415.157 49.7577L414.905 49.9757L412.002 52.4188L411.819 52.5679L411.807 52.8088L411.693 54.7817L411.681 55.0455L411.876 55.229L414.32 57.4313L414.607 57.6837L414.951 57.5116L419.826 55.0685L420.228 54.862ZM417.36 165.228L416.752 165.561L413.666 167.259L413.517 167.339L413.436 167.488L412.587 169.105L412.301 169.667L412.897 169.885L415.364 170.814L415.501 170.872L415.65 170.849L418.197 170.378L418.805 170.264L418.633 169.679L417.555 165.894L417.36 165.228ZM421.444 52.3041L421.249 52.7285L420.664 54.0017L420.583 54.1738L420.629 54.3573L421.214 56.9152L421.318 57.3625L421.776 57.351L426.652 57.2363L426.95 57.2249L427.111 56.961L429.084 53.7035L429.256 53.4167L429.084 53.13L427.455 50.4574L427.008 49.7233L426.526 50.4345L424.656 53.13L421.891 52.4188L421.444 52.3041ZM439.925 136.289L439.982 136.346L440.04 136.392L441.508 137.402L441.806 137.608L442.116 137.425L444.273 136.117L444.743 135.83L444.479 135.36L443.24 133.192L443.126 132.997L442.908 132.928L441.049 132.389L440.762 132.309L440.533 132.504L438.755 134.052L438.342 134.408L438.698 134.832L439.925 136.289ZM442.564 79.1674L442.724 79.3279H442.954L445.5 79.3853L446.097 79.3968L446.062 78.8003L445.948 76.5292L445.936 76.3572L445.833 76.2195L444.078 73.9025L443.814 73.547L443.412 73.7305L441.256 74.694L440.992 74.8087L440.935 75.0954L440.602 76.8504L440.544 77.1371L440.751 77.3436L442.564 79.1674ZM442.965 150.764L442.644 150.684L440.866 150.225L440.453 150.111L440.246 150.489L439.088 152.577L438.881 152.955L439.202 153.253L441.29 155.18L441.68 155.547L443.447 153.781L443.665 153.552L443.585 153.242L443.045 151.086L442.965 150.764ZM426.801 46.1561L426.985 46.7182L427.535 46.5002L429.623 45.6858L430.105 45.5023L429.956 45.0091L429.141 42.3365L428.923 41.6254L428.304 42.0268L426.331 43.3L425.975 43.5294L426.101 43.9309L426.801 46.1561ZM497.158 78.3644L496.929 80.1538L495.954 80.4406L494.795 76.0475L494.623 75.3937L494.015 75.6919L486.822 79.2362L486.627 79.3279L486.547 79.5229L483.931 85.9692L483.897 86.0495V86.1527L483.805 88.2059L483.782 88.5844L484.126 88.7335L486.765 89.9149L491.468 93.9754L491.491 93.9983L491.514 94.0098L496.837 97.6459L497.112 97.8409L497.411 97.6803L500.026 96.2809L500.279 96.1433L500.325 95.868L500.887 92.2319L500.921 91.9796L500.761 91.7846L498.971 89.6626L501.185 86.0839L501.265 85.9692L501.277 85.8315L501.552 81.6335L501.564 81.3811L501.38 81.1976L498.111 78.0203L497.308 77.2518L497.158 78.3644ZM628.879 124.578L628.432 124.521L622.638 123.764L621.675 123.637L622.053 124.532L623.189 127.182L623.258 127.342L623.407 127.434L626.057 129.074L626.263 129.2L626.493 129.132L628.764 128.501L629.212 128.375L629.177 127.916L628.925 125.014L628.879 124.578ZM641.98 74.0975L642.462 74.2008L642.634 73.742L643.517 71.3447L643.712 70.8285L643.184 70.6335L640.787 69.7503L640.225 69.5439L640.064 70.1288L639.307 72.9046L639.158 73.4667L639.731 73.5928L641.98 74.0975ZM477.094 80.8191L477.14 81.0255L477.312 81.1402L481.235 83.8472L481.522 84.0422L481.82 83.8816L484.528 82.3905L484.723 82.2758L484.792 82.0579L485.629 79.2591L485.755 78.8462L485.836 78.915L486.168 78.7659L493.832 75.3134L494.164 75.1643V72.2394L496.952 70.7138L497.422 70.4615L497.193 69.9797L496.091 67.6742L494.233 62.375L494.187 62.2373L494.084 62.1456L490.723 59.1633L490.333 58.8192L489.966 59.1863L487.017 62.1341L484.08 64.0611L483.759 64.2676L483.839 64.6346L484.539 68.0298L481.602 71.9411L481.488 72.0902V74.9463L481.671 75.1184L485.595 78.6627L485.618 78.6741L485.331 78.5709L479.446 76.3228L479.205 76.231L478.975 76.3572L476.738 77.573L476.36 77.7795L476.463 78.1924L477.094 80.8191ZM639.295 112.477L638.94 112.832L637.426 114.346L637.219 114.564L637.288 114.863L638.297 119.52L638.389 119.955H641.727L641.785 119.462L642.29 115.299L642.324 115L642.095 114.805L639.697 112.787L639.295 112.477ZM642.542 118.441V124.635L643.219 124.486L649.138 123.224L649.207 123.213L649.276 123.179L654.817 120.277L655.276 120.036L655.069 119.565L653.176 115.287L653.05 115L652.741 114.954L649.115 114.45L646.362 113.83L645.984 113.75L645.766 114.071L643.77 117.065L642.668 118.292L642.542 118.441ZM764.247 31.2104L764.638 31.6692L765.074 31.2334L766.485 29.8225L766.611 29.6964L766.645 29.5358L768.4 20.7725L770.477 16.7236L770.637 16.4139L770.431 16.1386L768.079 12.9613L767.896 12.709L767.586 12.7319L761.712 13.2022L761.437 13.2251L761.288 13.4546L757.766 18.7538L757.674 18.8914V23.3763L757.812 23.5369L764.247 31.2104ZM725.323 98.5864L725.61 98.7814L725.908 98.6094L728.054 97.3476L728.432 97.1297L728.318 96.7168L727.56 94.0672L727.423 93.5739L726.918 93.6772L724.394 94.1819L724.084 94.2392L723.981 94.5374L723.224 96.6824L723.075 97.0953L723.43 97.3362L725.323 98.5864ZM646.259 93.184L646.408 93.5051H646.764L658.109 93.6313H658.442L658.603 93.3331L661.872 87.2883L662.01 87.0474L661.895 86.7951L659.75 82.1381L659.394 81.3696L658.832 81.989L656.63 84.4322L652.236 84.0766L651.892 84.0537L651.72 84.3519L650.618 86.2215H647.934L647.865 86.7033L647.555 88.722L645.031 88.6188L644.114 88.5844L644.504 89.4103L646.259 93.184ZM617.854 105.744L617.866 105.893L617.969 106.019L620.286 108.944L621.135 112.236L621.216 112.546L621.525 112.637L626.435 114.025L626.527 114.048L626.63 114.037L631.162 113.658L631.713 113.612L631.667 113.062L631.345 108.944L633.95 109.242L634.305 109.288L634.489 108.978L636.806 105.159L639.445 105.709L639.754 105.778L639.972 105.537L641.991 103.266L642.336 102.876L641.968 102.498L639.949 100.479L639.846 100.376L639.708 100.33L635.464 99.114L632.619 95.7647L634.271 95.3289L636.703 99.0223L636.829 99.2173L637.058 99.2632L641.968 100.273L642.622 100.41L642.634 99.7449L642.76 94.0786V93.918L642.68 93.7804L641.039 91.0046L640.89 90.7523L640.592 90.7293L634.798 90.3508L634.603 90.3393L634.443 90.454L631.609 92.4613L627.17 91.7387L626.596 91.6469L626.527 92.2205L626.149 95.3748L626.114 95.6271L626.298 95.8221L628.718 98.357L627.892 99.3205L623.9 96.0171L623.728 95.868L623.499 95.8909L618.21 96.3956L617.751 96.4415L617.717 96.9003L617.338 101.179V101.236L617.35 101.293L617.854 105.744ZM489.552 121.034L489.874 120.85L491.457 119.921L491.893 119.657L491.675 119.198L490.551 116.858L490.275 116.285L489.748 116.629L487.132 118.315L486.455 118.751L487.109 119.233L489.254 120.816L489.552 121.034ZM485.893 122.02L485.537 122.731L484.528 124.75L484.792 125.037L485.813 126.161L486.191 126.574L486.604 126.195L487.912 124.979L488.325 124.601L487.935 124.188L486.444 122.605L485.893 122.02ZM612.577 108.818L612.612 108.955L612.704 109.059L615.721 112.592L615.984 112.89L616.352 112.741L618.245 111.984L618.818 111.754L618.52 111.204L616.248 107.051L616.18 106.914L616.042 106.834L612.635 104.815L611.533 104.161L611.809 105.411L612.577 108.818ZM482.853 63.2926L483.759 63.4646L483.484 62.5814L482.176 58.3834L482.05 57.9819L481.625 57.9934L477.702 58.0851L477.22 58.0966L477.163 58.5783L476.784 61.6638L476.715 62.18L477.232 62.2717L482.853 63.2926ZM421.719 48.9663L421.329 48.5993L419.585 46.9705L419.149 46.5576L418.771 47.0278L417.027 49.2301L416.603 49.7692L417.211 50.0789L419.298 51.1227L419.689 51.3177L419.975 50.9851L421.375 49.3563L421.719 48.9663ZM545.226 147.943L545.065 148.356L543.723 151.728L543.574 152.106L543.895 152.359L547.348 155.1L547.83 155.49L548.163 154.962L549.746 152.462L549.792 152.382L549.814 152.301L550.342 150.237L550.445 149.847L550.101 149.629L548.185 148.424L548.082 148.356L547.979 148.344L545.673 148.012L545.226 147.943ZM498.799 103.954L498.856 104.172L500.072 108.565L500.302 109.38L500.956 108.852L506.049 104.757L511.384 104.39L511.59 104.379L514.63 101.339L514.779 101.19L514.791 100.972L515.169 94.2507L515.181 94.0442L515.055 93.8836L511.969 89.9608L511.579 89.4676L511.131 89.9149L508.929 92.1172L508.08 91.2111L508.252 87.4259L508.298 86.4395L507.426 86.9097L502.94 89.3414L502.665 89.4905L502.642 89.7888L502 98.0703L498.879 103.759L498.799 103.954ZM518.554 104.322L518.622 104.677L518.978 104.757L523.085 105.686L523.854 105.859L523.762 105.079L523.578 103.496L523.544 103.22L523.314 103.083L519.207 100.559L518.588 100.181L518.381 100.869L518.106 101.798L518.06 101.936L518.095 102.073L518.554 104.322ZM390.596 46.5576L390.435 47.1196L389.976 48.7484L389.862 49.1613L390.229 49.3792L391.972 50.423L392.764 50.9048L392.81 49.9757L392.925 47.7734L392.948 47.349L392.546 47.2114L391.158 46.7526L390.596 46.5576ZM901.945 326.511L901.75 326.912L900.66 329.195L900.534 329.47L900.683 329.723L901.876 331.718L902.117 332.108L902.542 331.959L904.228 331.363L904.549 331.248L904.595 330.904L904.996 327.727L905.054 327.222L904.561 327.107L902.369 326.614L901.945 326.511ZM895.899 276.019L895.521 275.686L895.154 276.03L894.133 276.983L894.006 277.097L893.972 277.269L893.605 278.944L893.502 279.414L893.949 279.586L896.427 280.538L896.783 280.676L897.035 280.389L898.343 278.932L898.721 278.508L898.297 278.13L895.899 276.019ZM902.851 316.555L902.714 316.302L902.438 316.268L901.05 316.073L900.66 316.016L900.477 316.371L899.283 318.654L899.123 318.952L899.318 319.227L901.108 321.808L901.475 322.347L901.945 321.9L904.136 319.812L904.446 319.526L904.239 319.147L902.851 316.555ZM898.159 290.609L898.125 290.231L897.62 283.394L897.609 283.176L897.448 283.027L895.486 281.204L895.383 281.112L895.257 281.077L893.146 280.492L892.492 280.309L892.435 280.974L891.85 287.891L891.827 288.109L891.964 288.281L894.66 291.779L894.936 292.135L895.337 291.94L897.815 290.77L898.159 290.609ZM897.069 295.874L896.393 295.576L896.289 296.31L895.922 298.856L895.899 299.017L895.968 299.166L897.138 301.712L897.368 302.217L897.872 301.988L901.073 300.531L901.314 300.428L901.383 300.175L901.819 298.501L901.933 298.042L901.498 297.847L897.069 295.874ZM211.599 133.433L211.439 133.318L210.246 132.424L209.798 132.091L209.466 132.55L208.536 133.811L208.445 133.926L208.422 134.075L208.273 135.303L208.238 135.555L208.41 135.75L209.557 137.012L209.879 137.367L210.28 137.103L211.84 136.06L212.162 135.842L212.07 135.463L211.622 133.639L211.599 133.433ZM541.991 156.236L541.624 156.224L539.226 156.132L538.916 156.121L538.744 156.385L537.402 158.449L537.356 158.53L537.333 158.621L537 159.918L536.932 160.181L537.104 160.399L538.205 161.799L538.515 162.189L538.939 161.936L542.782 159.574L543.172 159.333L543.012 158.908L542.151 156.603L541.991 156.236ZM854.073 166.742L853.992 166.731L851.778 166.375L851.319 166.307L851.17 166.754L849.427 171.996L849.323 172.305L849.541 172.546L856.183 180.002L857.044 180.965L857.159 179.681L858.088 168.968L858.122 168.578L857.767 168.417L854.153 166.788L854.073 166.742ZM905.409 185.76L905.272 185.519L904.996 185.485L900.098 184.9L900.006 184.888L899.914 184.911L895.372 185.955L894.591 186.139L895.027 186.804L896.771 189.488L896.909 189.694L897.161 189.729L903.803 190.772L903.987 190.795L904.148 190.715L906.832 189.316L907.348 189.04L907.05 188.536L905.409 185.76ZM890.037 278.348L889.555 278.657L887.077 280.263L886.756 280.469L886.836 280.848L887.203 282.591L887.249 282.821L887.444 282.947L889.704 284.404L890.278 284.771L890.53 284.14L891.62 281.376L891.723 281.123L891.574 280.882L890.335 278.841L890.037 278.348ZM905.559 335.114L905.467 334.85L905.192 334.769L902.805 334.07L902.484 333.978L902.255 334.219L900.465 336.111L900.224 336.364L900.339 336.685L901.727 340.459L901.899 340.94L902.381 340.814L906.557 339.725L907.142 339.575L906.935 339.002L905.559 335.114ZM896.163 275.251L896.071 274.104L894.878 259.135V259.1L894.867 259.055L893.215 252.172L893.18 252.012L893.066 251.909L888.305 247.149L888.729 240.301L891.093 238.362L891.528 237.995L891.15 237.559L882.752 227.844L882.89 221.386L886.343 217.647L886.538 217.429L886.469 217.142L885.575 213.254L885.506 212.933L885.185 212.841L878.221 210.811L871.246 198.412L872.164 197.804L874.091 200.511L874.401 200.935L874.837 200.66L878.428 198.412L879.036 198.033L878.508 197.54L872.967 192.298L872.669 192.023L872.313 192.218L869.606 193.709L865.109 190.784L865.017 190.727L864.971 190.6L862.768 185.313L862.619 184.969H856.837L856.757 185.427L856.241 188.364L853.912 188.146L843.931 168.199L844.482 162.326L848.13 161.512L848.692 161.386L848.555 160.835L845.951 150.443L851.113 154.515L852.008 155.215L852.019 154.079L852.168 139.925L856.952 135.004L864.363 134.855L865.177 134.844L864.868 134.098L860.566 123.546L858.501 100.731L858.455 100.238L858.443 100.158L856.975 83.9504L856.952 83.6637L856.7 83.526L852.983 81.4155L862.883 74.5793L863.216 74.3499L863.101 73.9599L861.598 69.0162L861.483 68.6492L861.105 68.6148L841.339 66.9631L841.041 66.9401L840.857 67.181L838.608 70.1288L833.458 70.5532L833.022 70.5876L832.953 71.0235L832.425 74.7054L829.121 74.476V69.5553L833.676 68.0413L833.905 67.9724L834.008 67.766L835.958 63.7285L836.027 63.5908L836.016 63.4302L834.96 52.7974L834.926 52.4533L834.605 52.3271L832.655 51.5815L832.391 51.4783L832.161 51.6274L830.578 52.6138L830.463 49.6889L830.429 48.909L829.706 49.1957L825.427 50.8474L822.72 47.7505L823.672 43.128L826.85 45.9382L827.205 46.2479L827.573 45.9611L829.408 44.4929L832.356 47.7046L832.941 48.3355L833.274 47.544L835.224 43.0477L835.282 42.9215L835.27 42.7839L834.846 37.6796L838.035 35.0185L844.092 35.592L844.31 35.615L844.482 35.4888L854.967 27.5514L855.438 27.1959L855.059 26.7485L853.465 24.8789L857.25 25.418L857.904 25.5097L857.881 24.8445L857.732 19.7517L857.709 19.0979L857.078 19.2126L851.813 20.1761L850.344 16.9759L850.23 16.7121L849.954 16.6547L843.22 15.3357L845.641 12.3075L846.008 11.8487L845.538 11.5046L842.268 9.11881L845.228 7.01977L845.698 6.68713L845.342 6.22832L840.846 0.389983L840.547 0L840.123 0.252346L827.389 7.74239L827.148 7.88003L827.114 8.15532L826.379 14.1428L823.03 18.5129L822.582 19.0979L823.259 19.3732L830.59 22.3325L827.32 23.8121L813.737 20.1187L813.496 20.0499L813.279 20.1876L797.264 30.809L773.333 43.8162L773.207 43.885L773.127 44.0112L766.691 54.4949L766.576 54.6785L766.611 54.8849L767.115 57.5231L763.261 58.5783L763.135 58.6128L763.043 58.7045L756.906 64.2446L756.515 64.6002L756.848 65.0131L761.196 70.4041L761.437 70.7024L761.793 70.5876L765.452 69.4636L770.764 72.4573L770.247 77.4927L765.303 78.0433L765.188 78.0547L765.085 78.1121L761.781 80.0391L754.428 75.4281L753.579 74.889V85.3498L746.019 91.0161L745.915 91.0964L745.858 91.2111L742.898 96.9462L742.68 97.3706L742.646 97.4394L742.6 97.5197L741.143 100.33L733.411 104.689L727.721 99.2861L727.583 99.1599L727.388 99.137L721.4 98.5405L721.205 98.5176L721.044 98.6208L712.509 104.161L712.44 104.207L712.383 104.276L706.544 111.467L706.475 111.559L706.441 111.662L704.433 118.705L701.037 119.749L696.449 117.455L696.299 117.386L696.139 117.398L691.493 117.845L691.252 117.868L691.103 118.063L689.061 120.735L687.42 119.325L687.019 118.98L686.652 119.37L685.08 121.057L683.508 119.588L687.409 115.688L686.193 115.597L678.105 115L677.875 114.989L677.703 115.138L673.057 119.175L672.793 119.405L672.897 119.749L675.352 128.111L671.899 131.449V125.473H667.987L667.826 125.622L665.394 127.824L664.912 125.633L669.317 121.653L670.499 120.586L668.916 120.678L663.972 120.976L663.857 120.988L663.754 121.034L649.081 128.524L648.461 128.845L648.909 129.384L651.421 132.435L647.601 136.117L647.291 136.415L647.498 136.794L649.15 139.787L649.414 140.258L649.896 140.017L652.144 138.893L652.385 142.403L652.396 142.586L652.511 142.724L655.517 146.222L650.859 147.358L650.664 147.404L650.549 147.564L648.909 149.812L648.725 150.065L648.852 150.351L650.079 153.299L646.408 153.907L640.546 152.152L639.995 151.992L639.846 152.554L638.183 158.794L628.5 157.084L627.846 156.97V171.95L621.468 170.883L611.029 161.432L614.505 158.989L614.952 158.679L614.654 158.232L607.908 148.195L607.828 148.069L607.69 148L603.342 145.901L603.136 145.798L602.918 145.867L596.517 148.046L589.37 145.27L588.681 145.006L588.613 145.74L587.591 156.786L574.846 162.223L570.338 159.172L570.98 156.867L571.175 156.167L570.452 156.155L556.824 156.006H556.537L556.365 156.236L552.774 161.03L552.705 161.111L552.682 161.202L552.43 162.108L551.971 159.757L551.937 159.574L551.799 159.447L549.252 157.199L548.851 156.844L548.484 157.234L545.558 160.308L541.796 162.189L541.75 162.212L541.497 162.338L541.211 162.475L540.912 162.625L536.966 164.597L536.92 164.62L536.886 164.643L532.48 168.027L526.446 169.793L526.228 169.851L526.113 170.046L524.817 172.317L524.909 168.75L537.184 156.029L537.23 155.983L537.264 155.915L544.147 143.492L544.182 143.435L544.193 143.378L547.337 132.297L547.417 132.011L547.222 131.781L537.631 120.85L537.471 120.667L537.23 120.655L528.247 120.357L527.949 120.345L527.777 120.586L524.771 124.888L522.339 125.289L524.725 118.545L524.955 117.891L524.267 117.81L517.854 117.019L519.724 114.335L520.022 113.922L519.632 113.589L515.135 109.85L514.882 109.644L514.584 109.758L510.535 111.261L510.363 111.318L510.259 111.467L503.824 121.045L503.686 121.252L503.755 121.492L505.085 126.528L498.868 126.929L498.294 126.964L498.34 127.526L498.489 129.327L498.501 129.476L498.581 129.602L500.348 132.206L496.757 131.449L496.47 131.391L496.252 131.586L493.912 133.788L488.841 132.859L488.187 130.646L488.073 130.244L487.648 130.256L479.56 130.405L478.998 130.416L479.021 130.978L479.159 135.119L469.924 136.404L469.775 136.427L469.66 136.518L463.213 141.646L458.314 141.795L458.108 141.806L457.959 141.932L454.219 145.224L454.093 145.339L454.047 145.511L452.395 152.255L452.349 152.462L452.452 152.645L455.251 157.704L451.271 158.702L438.663 156.626H438.629H438.583L431.241 156.477L430.908 156.465L430.747 156.763L428.43 160.835L428.361 160.95V161.088L428.063 171.571L428.052 171.812L428.224 171.984L432.789 176.4L434.659 180.759H429.394L424.013 170.723L423.841 170.413L423.486 170.436L419.425 170.677H419.402L419.138 170.688L418.851 170.7L415.845 170.883L415.444 170.906L415.341 171.296L414.09 175.815L409.823 171.938L409.157 171.342L408.905 172.202L407.563 176.848L407.471 177.146L407.689 177.375L412.794 182.915L413 186.311L404.591 178.832L404.316 173.888L408.228 169.117L408.343 168.979L408.354 168.807L408.951 160.87L409.02 159.929L408.159 160.319L406.519 161.065L406.301 161.156L406.221 161.374L404.328 166.628L401.528 169.14L398.511 170L398.316 170.057L398.202 170.229L395.207 174.726L395.116 174.863V175.035L395.265 186.701L388.015 198.09L387.911 198.251L387.923 198.435L388.37 205.466L388.405 205.993H396.148L401.987 212.979V219.62L397.777 224.701L397.548 224.977L397.708 225.298L398.901 227.695L398.982 227.844L399.131 227.924L401.333 229.163L396.814 230.219L395.219 224.231L399.899 216.041L400.026 215.823L399.945 215.583L397.846 209.297L397.731 208.964L397.387 208.918L390.045 207.875L389.77 207.84L389.575 208.024L385.537 211.912L385.376 212.061L385.365 212.279L384.929 220.905L378.424 227.546L372.401 229.748L372.275 229.794L372.183 229.886L368.306 234.05L354.884 225.768V222.751L363.522 226.732L363.74 226.835L363.958 226.755L368.902 224.805L368.948 224.782L368.994 224.747L376.933 219.654L377.059 219.574L377.128 219.437L382.52 208.655L382.6 208.494L382.577 208.322L381.705 202.633L390.779 181.069L390.802 181.023V181L391.846 177.261L391.881 177.123L391.846 176.985L390.86 172.351L396.618 166.88L396.756 166.754L396.791 166.559L397.984 158.621L398.018 158.392L397.88 158.209L393.819 152.829L397.64 152.324L398.19 152.255L398.121 151.705L397.422 145.924L397.364 145.465L396.905 145.431L392.179 145.087L391.628 145.041L391.582 145.591L391.238 149.789L391.227 149.916L391.273 150.042L391.8 151.384L390.011 150.661L389.712 150.546L389.46 150.741L384.975 154.183L384.917 154.228L384.871 154.286L379.502 161.133L375.441 165.045L369.292 166.513L369.143 166.547L369.029 166.651L365.736 169.793L365.38 170.138L365.679 170.539L368.753 174.588L365.449 180.518L360.723 181.952L360.356 182.067L360.333 182.457L360.184 184.705L360.172 184.946L360.344 185.118L364.451 189.362L363.075 193.227L363.017 193.388L363.063 193.56L363.809 196.255L363.832 196.347L363.889 196.427L365.266 198.423L360.574 202.736L359.186 200.534L357.706 194.191L357.683 194.099L357.637 194.019L351.786 184.636L351.637 184.406L351.511 184.177L348.654 178.924L348.62 178.866L348.574 178.809L341.083 170.723L340.911 170.539H334.533L334.429 170.975L333.684 174.267L333.672 174.313V174.37L333.534 179.004L329.944 181.138L327.902 180.725L327.535 180.656L327.328 180.965L326.169 182.709L324.311 181.241L327.122 178.683L327.305 178.511V174.427L326.755 174.416L316.304 174.267L311.21 170.482L311.038 170.355L310.832 170.378L303.054 171.101L300.977 168.256L304.797 167.901L305.107 167.866L305.245 167.591L307.791 162.648L308.124 162.017L307.424 161.856L300.989 160.365L300.656 160.285L300.438 160.548L297.96 163.519L296.859 161.535L296.744 161.317L296.503 161.26L280.029 157.222L279.72 157.142L277.781 159.08L275.785 157.199L275.475 156.912L275.119 157.119L266.802 161.994L262.867 158.186L264.095 154.63L264.152 154.446L264.095 154.263L262.925 150.902L267.514 149.376L272.229 152.657L272.71 152.99L273.02 152.485L275.418 148.596L275.498 148.459V148.298L275.349 141.256V141.049L275.211 140.9L268.626 133.708L267.95 132.963L267.686 133.926L265.793 140.762L256.982 146.486L256.776 146.624L256.73 146.865L256.007 151.166L252.118 154.676L251.866 154.905L251.831 154.928L251.625 155.112L251.373 155.341L247.392 158.931L245.992 156.327L248.252 155.88L248.986 155.731L248.631 155.066L244.891 148.023L244.707 147.679L244.317 147.736L238.765 148.619L233.201 146.715L233.075 146.67L232.937 146.692L225.893 147.736L225.572 147.782L225.458 148.08L221.798 157.211L219.664 155.983L215.752 146.853L216.337 139.65L216.395 138.973L215.718 139.053L209.133 139.799L208.754 139.845L208.651 140.2L206.85 146.486L206.77 146.773L206.953 147.002L209.523 150.111L207.378 152.967L203.695 150.936L202.984 146.153L202.927 145.786L202.892 145.58L202.537 143.217L202.961 141.221L203.007 140.98L202.858 140.785L201.114 138.377L202.72 135.44L208.124 128.719L212.609 127.273L212.816 127.205L212.919 127.021L215.615 122.376L215.672 122.284L215.683 122.181L216.693 115.448L216.727 115.253L216.831 114.587L217.863 108.256L218.746 109.506L218.024 114.679L218.001 114.84L218.07 114.989L220.272 119.68L220.869 127.514L220.88 127.663L220.961 127.778L224.035 132.469L224.769 137.287L224.804 137.551L225.033 137.688L236.712 144.72L236.895 144.834L237.102 144.8L244.283 143.458L244.501 143.412L244.627 143.24L250.019 135.899L250.088 135.796L250.111 135.67L251.614 127.881L251.636 127.767L251.602 127.64L249.227 118.43L249.526 105.033V104.941L249.503 104.849L248 99.9055L247.977 99.8252L247.943 99.7679L244.26 93.8836L243.721 89.7199L244.627 89.1464L246.566 91.8649L246.887 92.3007L247.335 92.0025L249.583 90.4999L249.996 90.2246L249.767 89.7773L247.667 85.7398L247.598 85.6136L247.484 85.5333L239.545 80.1423L239.43 80.062L239.281 80.0506L227.901 79.0068L227.695 78.9838L227.522 79.11L225.297 80.7388L219.63 84.0192L219.343 84.1913L219.504 88.8482L215.856 94.7324L208.525 94.8815H208.261L208.101 95.088L205.646 98.1735L205.462 98.4029L205.278 98.6208L205.187 98.7355L198.98 106.547L195.963 106.409L195.78 106.398L195.631 106.501L191.592 109.242L188.782 109.105L188.392 109.082L188.243 109.449L187.061 112.419L185.788 114.828L183.115 116.836L183.333 117.26L184.491 119.439L183.333 120.598L178.079 119.749L177.597 119.669L177.459 120.139L175.968 125.381L175.956 125.415L175.945 125.461L174.935 133.077L172.079 134.247L157.544 132.32H157.498H157.452L150.821 132.561L150.534 132.573L150.259 132.584L145.315 132.768H145.223L145.143 132.802L139.005 135.05L138.661 135.176L138.638 135.543L138.34 140.487V140.579L138.363 140.659L138.868 142.563L137.938 143.332L136.871 140.602L136.745 140.269L136.39 140.246L134.198 140.109L130.608 136.656L130.287 136.346L129.919 136.587L125.388 139.512L122.417 139.845L121.832 139.914L118.929 140.246L118.769 140.269L118.643 140.361L113.996 143.951L113.939 143.997L113.893 144.066L111.381 147.564L106.448 147.277L106.115 147.255L105.943 147.541L102.937 152.542L99.4615 152.955L98.9912 153.013L98.9682 153.494L98.8306 157.245L93.5305 160.686L93.2552 160.858L93.2781 161.179L93.5764 166.421L93.5879 166.593L93.7026 166.731L95.6758 169.231L93.4158 172.03L93.2437 172.248L93.3011 172.512L93.8976 175.058L93.9779 175.391L94.3106 175.471L97.5572 176.286L98.1996 179.486L97.1671 181.332L97.1557 181.596L96.9721 181.917L96.8574 182.112L96.3641 182.996L91.5574 185.76L91.4312 185.829L91.3623 185.943L88.8156 189.981L88.7926 190.015L88.7812 190.038L86.0853 195.578L86.0394 195.67L86.0279 195.773L85.7296 200.27L85.7182 200.362L85.7411 200.453L86.4065 202.874L84.6398 205.041L84.5251 205.179L84.5136 205.351L84.4104 206.968L80.5214 206.647L77.8714 204.135L78.1352 201.715L78.1926 201.21L77.6993 201.107L74.8542 200.511L74.3954 200.419L74.2233 200.855L72.6287 204.778L66.7436 209.779L66.5142 209.974L66.5601 210.272L67.0075 213.564L67.0763 214.068L67.581 214.046L70.5179 213.908L72.5943 215.594L73.4547 219.597L73.5579 220.09L74.0627 220.033L76.6783 219.746L79.2824 220.239V221.696L75.4852 226.686L75.2443 226.995H75.141H75.0149L74.9001 227.041L72.4222 228.108L72.2387 228.188L72.1469 228.372L71.057 230.54L69.5083 230.93L69.1068 231.033L69.0839 231.446L68.9347 234.44L68.9233 234.772L69.2101 234.944L71.4471 236.263L70.8735 241.505L70.8505 241.677L70.7817 241.769L68.6135 244.453L68.6021 244.465L68.5791 244.499L67.5352 246.139L67.409 246.334L67.4549 246.552L67.9023 248.8L67.9596 249.076L68.212 249.19L70.1049 250.073L69.841 253.136L69.8066 253.469L70.0934 253.652L75.5311 257.082L75.6802 263.367V263.505L75.7376 263.62L80.2002 272.108L80.2805 272.268L80.4755 272.624L81.6571 274.872L81.4621 279.965L81.4391 280.561V280.584L81.4277 280.859L81.3932 281.811L77.2978 281.674L76.988 281.662L76.8159 281.915L75.164 284.404L73.0187 284.668L72.7319 284.702L72.5943 284.954L69.8525 289.864L65.6652 291.435L62.4646 286.709L62.3269 286.503L62.0745 286.468L53.9868 285.425L53.7115 285.39L53.5165 285.585L49.7766 289.485L49.2948 289.99L49.9028 290.345L57.2334 294.693L55.8568 295.645L51.9678 293.282L51.6351 293.075L51.3368 293.316L49.0195 295.14L48.9736 295.048L48.9277 294.956L48.8589 294.888L43.3753 289.909L42.5608 289.164L42.4461 290.265L41.7807 296.654L39.5322 295.507L39.3946 295.438L39.2454 295.45L33.5554 295.748L33.303 295.759L33.1424 295.954L31.5478 298.007L27.7735 291.676L27.4293 291.091L26.9246 291.55L23.6321 294.543L23.4371 294.715L23.4486 294.979L23.7354 300.003L22.2326 301.781L22.0261 302.022L22.1293 302.32L22.9324 304.729L23.07 304.832L25.2267 306.449L25.0891 309.902V309.982L25.1005 310.051L26.4313 315.958L25.9839 321.418L24.9399 330.537L24.917 330.755L25.0432 330.927L26.2363 332.579L26.5001 332.946L26.9131 332.762L28.8633 331.913L30.1826 334.127L30.412 334.517L30.4694 334.62L34.0601 340.642V344.439L34.2093 344.599L37.8458 348.614L38.2474 349.061L41.2645 352.388L41.4136 356.976V357.136L41.4939 357.263L42.4461 358.742L42.5149 358.845L42.5264 359.029L42.7558 364.168L42.7673 364.5L43.0656 364.649L48.7556 367.345L48.7901 367.884L48.8015 368.033L48.813 368.251L48.8359 368.618L48.8933 369.708L48.9048 369.971L49.1113 370.132L50.6944 371.302L50.8091 371.394L50.855 371.497L51.9104 374.33L52.3463 376.475L52.3005 376.521L50.7059 378.115L50.5338 378.287L50.5453 378.54L50.8435 383.036L50.855 383.185L50.9468 383.311L55.0308 389.15L54.744 395.194L54.0098 398.142L53.9409 398.406L54.113 398.624L57.8529 403.27L58.1167 403.591L58.5068 403.43L60.3079 402.685L60.4799 402.616L60.5717 402.455L61.3518 401.125L63.1185 402.077L63.1644 402.1L63.2103 402.111L65.6079 402.868L65.8488 402.948L66.0668 402.811L68.9118 401.01L69.1756 400.849V392.648L71.08 381.648L78.1352 374.892L78.2843 374.743L78.3073 374.537L78.9038 367.345L78.9153 367.253L78.8924 367.161L78.227 364.374L81.4162 361.965L81.4965 361.908H81.5997L86.2688 362H86.395L86.5097 361.954L90.9723 359.889L91.0641 359.843L91.0985 359.889L91.2591 359.947L95.9511 361.656L96.0429 361.69H96.1461L108.719 361.392L109.385 361.38L109.247 360.727L108.318 356.345L110.899 355.852L111.278 355.783L111.346 355.404L113.744 341.927L113.79 341.686L113.652 341.491L111.553 338.646L111.427 338.474L111.232 338.428L108.605 337.809L108.926 335.962L112.677 332.498L113.044 332.166L112.757 331.764L109.672 327.474L110.761 326.901L112.941 325.937L113.17 325.834L113.423 325.754L118.482 324.079L118.792 323.976L118.849 323.655L119.549 320.019L123.61 317.782L128.176 316.601L128.199 316.589L129.839 316.084L129.885 316.13L132.547 318.665L132.283 321.326L131.548 323.666L131.48 323.896L131.594 324.102L133.246 327.096L133.499 327.543L133.969 327.325L137.261 325.823L137.445 325.742L137.537 325.57L139.143 322.347L140.829 320.535L145.166 321.372L145.418 321.418L145.624 321.246L148.034 319.262L149.445 319.147L150.615 320.053L150.787 320.179L150.993 320.168L155.639 319.87H155.685L155.743 319.858L159.184 318.964L161.18 318.528L161.031 321.693V321.82L161.077 321.934L162.878 326.281L163.062 326.706L163.509 326.614L165.609 326.167L165.758 326.132L165.872 326.029L167.088 324.928L169.555 326.098L169.44 327.715L168.58 329.573L168.431 329.895L168.672 330.17L169.716 331.363L169.807 331.478L169.945 331.523L172.664 332.475L173.777 336.387L174.935 341.434L173.65 344.565L173.559 344.794L175.016 347.708L175.291 348.247L175.807 347.937L179.042 345.964L180.063 346.274L180.969 348.224L181.704 352.055L181.75 352.273L181.922 352.399L184.17 354.051L184.491 354.28L184.813 354.062L187.348 352.365L189.608 352.502L193.944 354.406L193.818 356.265L193.807 356.437L193.887 356.586L194.931 358.387L195.057 358.605L195.309 358.65L197.707 359.098L198.005 359.155L198.212 358.926L199.76 357.251L201.447 358.937L201.493 358.983L201.55 359.017L203.936 360.474L203.386 364.305L203.374 364.408L203.397 364.512L203.994 366.909L204.028 367.047L204.12 367.15L206.816 370.144L206.919 370.247L207.068 370.293L209.317 371.038L209.557 371.119L209.775 370.992L211.806 369.776L213.137 370.224L214.376 372.713L214.479 372.919L214.708 372.988L220.249 374.789L220.525 374.881L220.754 374.709L223.152 372.908L223.232 372.85L223.278 372.782L225.676 369.341L225.859 369.077L225.721 368.79L221.488 359.522L221.419 359.384L221.385 359.362L221.408 359.339L222.968 357.285L228.417 356.861L228.876 356.827L228.934 356.368L229.347 352.617L231.652 351.332L234.165 351.47L237.469 354.051L237.847 354.349L238.191 354.028L240.291 352.078L240.623 351.768L240.383 351.378L237.882 347.26L236.792 343.441L239.316 340.791L241.392 340.183L245.052 344.118L245.201 344.278L245.419 344.29L253.495 344.794L253.724 344.806L253.965 344.863L262.305 346.79L267.02 349.738L267.353 349.945L267.663 349.704L270.221 347.685L274.098 349.761L274.179 349.807L274.259 349.818L288.335 352.514L288.507 352.548L288.668 352.479L293.784 350.14L293.968 350.059H294.128L298.006 349.99L301.287 355.553L301.425 355.783L301.688 355.829L304.465 356.265L304.751 356.31L304.992 356.379L306.77 356.895L306.897 360.153L305.704 361.484L305.486 361.724L305.589 362.034L306.392 364.431L303.604 367.632L303.421 367.85L303.49 368.125L304.086 370.671L304.166 371.004L304.499 371.084L310.545 372.483L310.809 375.523L310.854 376.005L311.348 376.028L314.434 376.177L316.613 376.716L318.506 378.849L315.512 381.327L315.306 381.499V384.906L316.028 384.688L319.24 383.713L322.028 385.25L322.212 385.353L322.418 385.307L325.114 384.711L325.252 384.676L325.355 384.585L327.489 382.738L333.787 381.591L334.062 381.545H334.303L340.785 381.694L338.513 384.08L338.226 384.39L338.444 384.757L344.938 395.481L345.029 395.642L345.075 395.837L352.303 430.546L352.406 431.062L352.922 430.982L356.811 430.385L357.052 430.351L357.19 430.156L359.633 426.634L361.48 427.391L362.18 431.131L362.226 431.394L362.455 431.521L370.692 436.017L370.91 436.143L371.151 436.051L377.38 433.734L380.432 435.053L382.806 439.951L382.898 440.135L382.921 440.307L383.449 445.457L383.483 445.744L383.736 445.881L388.255 448.428L388.393 453.199L388.405 453.635L388.829 453.727L393.429 454.736L395.253 456.984L395.54 457.34L395.942 457.122L400.725 454.599L401.586 457.684L401.609 457.776L401.655 457.845L405.096 462.938L405.245 463.155L405.498 463.19L410.89 463.786L411.291 463.832L411.463 463.465L412.966 460.185L419.815 459.898L419.987 459.886L420.124 459.783L424.885 456.239L425.08 456.101L425.275 456.032L444.468 448.818L450.95 448.393L451.97 449.919L452.097 450.114L452.315 450.16L462.272 452.328L462.961 456.594L463.007 456.881L463.259 457.007L467.148 458.957L467.24 459.003L467.343 459.015L478.276 460.208L482.428 460.781L484.551 462.754L484.792 462.983L485.113 462.869L488.554 461.676L488.658 461.641L488.738 461.573L491.881 458.877L491.985 458.785L492.03 458.659L494.279 453.119L494.405 452.809L494.187 452.557L490.585 448.233L490.998 441.947L493.029 441.316L493.396 441.201L493.419 440.811L493.545 438.173L496.183 438.047L496.596 438.024L497.525 434.468L510.03 439.504L510.076 439.515L510.122 439.527L521.467 442.142L523.773 451.089L523.831 451.33L524.049 451.444L532.584 455.941L532.71 456.009L532.859 455.998L538.847 455.849H538.996L539.123 455.78L547.44 450.814L553.795 452.832L553.898 452.867L554.002 452.855L560.541 452.431L562.17 455.275L562.319 455.539L562.629 455.551L566.586 455.723L567.034 455.746L567.16 455.757L569.34 455.849L571.737 460.357L571.875 460.621L572.173 460.655L591.79 462.444L591.974 462.467L592.123 462.375L605.178 454.507L609.228 454.358L609.618 454.346L609.732 453.968L611.029 449.77L617.212 444.023L625.759 443.599L628.282 445.985L628.661 446.34L629.051 445.985L632.596 442.727L648.198 445.228L648.645 445.296L648.806 444.86L650.985 438.896L656.24 435.248L656.607 434.996L656.435 434.583L654.243 429.181L656.584 414.545L660.507 410.622L660.759 410.37L660.633 410.037L657.937 402.845L657.811 402.524L657.467 402.49L652.603 401.973L656.182 395.332L663.203 390.457L663.398 390.32L663.616 390.205L673.608 385.066L681.168 387.682L681.306 387.727L681.443 387.704L690.598 386.248L704.169 399.679L721.228 417.332L721.492 417.607L721.836 417.47L728.352 414.866L732.333 416.713L732.574 416.827L732.815 416.701L735.614 415.302L741.086 417.034L741.201 417.068L741.327 417.057L744.413 416.655H744.424L748.875 423.686L748.921 423.755L748.978 423.813L753.774 427.999L754.049 428.24L754.382 428.08L764.569 423.136L764.787 423.033L764.856 422.803L766.163 418.72L773.643 410.358L777.578 408.546L781.387 414.763L779.964 419.316L779.907 419.488L779.964 419.66L782.408 426.634L782.465 426.806V426.99L781.891 444.47V444.631L781.972 444.769L784.679 449.403L773.276 450.378L772.955 450.401L772.817 450.699L768.779 459.531L768.618 459.875L768.882 460.15L780.125 471.678L780.411 475.819L780.492 477L781.352 476.186L787.478 470.347L798.032 470.496H798.239L798.388 470.37L806.177 464.085L806.269 464.004L806.326 463.901L810.961 454.622L811.007 454.518L811.019 454.415L813.267 428.997L816.399 415.715L816.422 415.623L816.41 415.52L814.322 399.932L814.288 399.691L814.311 399.461L815.665 381.797L815.676 381.683L815.642 381.568L813.692 376.028L813.68 375.993L813.669 375.959L804.984 358.295L804.95 358.226L804.915 358.18L802.162 354.842L799.65 342.558L799.638 342.5L799.627 342.454L798.296 339.277L805.558 343.211L808.334 350.507L808.369 350.587L808.426 350.656L812.739 356.161L817.971 364.523L821.71 370.66L821.756 370.751L821.848 370.82L826.058 374.009L827.355 377.737L828.548 381.178L828.628 381.396L828.834 381.499L833.951 383.919L834.662 389.012L834.685 389.161L834.777 389.276L840.318 396.319L841.201 397.443L841.304 396.009L841.752 389.872L841.763 389.815L841.752 389.746L841.098 385.709L844.838 385.456L844.941 385.445L845.033 385.399L846.432 384.757L850.23 386.729L851.709 387.498L850.987 385.995L847.694 379.113L847.545 378.792H842.52L837.587 376.613L831.932 372.552L828.249 363.135L826.299 357.446L830.28 355.198L838.54 354.751L840.203 354.659L838.826 353.73L819.99 341.021L806.762 329.138L800.671 317.702L800.602 317.576L800.499 317.507L792.182 311.714L788.339 306.839L788.075 306.507L787.673 306.679L784.977 307.872L784.713 307.987L784.656 308.273L784.06 311.118L783.991 311.473L784.289 311.691L789.142 315.075L791.562 318.7L790.53 320.042L788.488 319.526L787.926 319.388L787.799 319.95L787.054 323.391L786.973 323.735L787.26 323.953L791.929 327.463L796.105 336.995L790.621 334.735L788.694 332.43L790.484 328.862L790.759 328.323L790.197 328.094L785.402 326.144L785.356 326.121L785.287 326.109L775.249 324.309L775.066 324.274L774.893 324.366L767.104 328.403L766.875 328.518L766.817 328.771L764.385 339.461L761.815 336.18L761.38 335.618L760.944 336.18L757.835 340.16L755.024 331.994L754.795 331.34L754.198 331.707L747.785 335.641L742.944 334.85L743.208 330.204L750.367 312.322L750.39 312.253L750.401 312.173L752.191 294.245L754.278 285.597L754.313 285.459L754.278 285.333L752.523 278.313L754.864 272.039L754.921 271.901L754.898 271.764L753.888 265.157L768.595 250.739L773.104 251.587L773.62 251.679L773.746 251.175L774.194 249.374L774.251 249.144L774.113 248.938L773.058 247.309L774.71 246.219L774.848 246.128L775.18 245.91L779.184 243.272L779.218 243.249L779.241 243.226L781.834 241.058L785.448 240.186L785.952 240.071L785.872 239.567L784.748 232.398L790.874 230.448L790.989 230.413L791.08 230.333L796.025 225.975L799.352 225.871L796.541 229.897L796.254 230.31L796.633 230.643L799.925 233.488L800.338 233.843L800.705 233.43L805.501 228.039L805.615 227.913L805.638 227.741L806.785 219.528L810.812 218.003L810.961 217.945L811.064 217.819L814.506 213.323L814.85 212.876L814.403 212.543L810.812 209.847L810.376 209.526L810.043 209.939L807.279 213.357L804.583 210.788L803.699 195.59V195.521L803.677 195.452L800.866 186.437L801.726 179.956L807.038 172.351L809.906 172.214L810.284 172.191L810.411 171.824L811.569 168.36L817.374 176.32L817.58 176.595L817.913 176.538L822.41 175.792L822.835 175.724L822.869 175.299L823.167 172.007V171.938L823.156 171.87L822.112 165.137L822.1 165.091L820.965 160.342L820.953 160.285L823.741 157.681L824.131 157.314L823.798 156.912L816.353 148.012L817.982 142.586L823.477 140.682L820.506 145.144L820.38 145.339L820.426 145.568L821.32 150.065L821.366 150.283L821.55 150.409L827.389 154.458L827.515 154.55L827.664 154.561L829.821 154.676L829.683 158.323L829.672 158.782L830.119 158.885L832.138 159.356L829.844 170.803L829.798 171.009L829.913 171.193L832.54 175.563L833.435 189.35V189.396L833.446 189.442L835.546 198.423L835.557 198.469L838.31 207.152L835.236 210.501L835.018 210.731L835.11 211.029L836.073 214.206L834.444 216.374L834.169 216.73L834.467 217.074L838.987 222.327L839.721 230.689L839.733 230.872L839.859 231.01L846.226 238.202L846.57 238.592L846.593 238.615L853.786 246.724L853.832 246.781L853.889 246.827L895.222 274.528L896.163 275.251ZM161.02 143.527L159.46 145.35L159.311 145.523L159.322 145.74L159.506 149.376L159.058 152.451L156.764 154.217L156.638 154.309L156.58 154.458L155.926 156.19L151.372 156.282L149.559 153.609L149.399 153.368H144.776L143.778 152.141L151.28 143.068L151.418 142.907L151.406 142.689L151.188 138.055L151.269 138.044L154.814 137.344L159.356 137.975L161.112 140.441L161.02 143.527ZM185.031 154.446L182.472 156.924L182.438 156.958L177.975 161.994L177.895 162.085L177.861 162.212L176.656 166.513L176.576 166.8L176.553 166.823L174.648 168.646L170.737 168.463L169.257 166.903L170.507 166.937H170.714L170.874 166.811L172.928 165.171L173.065 165.354L173.214 164.953L173.364 164.827L173.295 164.735L173.421 164.402L173.983 162.865L174.029 162.751L174.017 162.636L173.65 158.059L175.291 154.859L181.268 148.402L184.572 149.181L185.593 151.063L185.031 154.446ZM572.85 406.057L570.785 407.972L570.716 408.03L570.67 408.11L569.982 409.337L569.867 409.544L569.936 409.773L570.636 412.01L569.81 414.074L567.699 414.602L567.298 414.705L567.275 415.118L567.137 417.596L564.326 422.184L560.082 423.503L559.898 423.56L559.795 423.709L557.042 427.483L553.933 427.208L553.428 427.162L553.336 427.667L552.476 432.53L550.124 435.18L542.346 438.621L542.277 438.655H537.322L536.427 436.751L538.457 435.535L541.543 435.099L541.669 435.076L541.784 434.996L548.105 430.626L548.197 430.569L548.254 430.477L550.503 427.036L555.16 422.826L555.275 422.723L555.321 422.585L556.353 419.477L559.095 414.763L562.434 409.601L562.468 409.544L562.491 409.486L565.382 401.572V401.56L565.646 400.826H565.623L567.332 395.791L567.802 394.403L568.124 393.474L568.135 393.44L568.147 393.382L569.363 385.812L571.233 382.508L573.435 382.761L573.86 385.41L572.644 392.212L572.632 392.27V392.338L573.091 399.003V399.06L573.102 399.129L574.135 402.673L572.85 406.057ZM902.22 353.145L902.209 353.007L902.14 352.892L900.35 350.013L899.983 349.417L899.49 349.91L897.402 351.998L897.23 352.17L897.241 352.411L897.345 356.781L897.448 361.357V361.369L897.551 363.456L897.574 363.984H900.694L900.821 363.606L902.61 358.432L902.645 358.318L902.633 358.203L902.22 353.145ZM896.909 393.623L896.886 393.508L896.817 393.417L895.612 391.73L895.234 391.214L894.775 391.662L893.57 392.82L893.41 392.981L893.398 393.21L893.352 395.149V395.263L893.398 395.378L894.133 397.064L894.339 397.546L894.832 397.374L897.035 396.594L897.494 396.433L897.402 395.963L896.909 393.623ZM887.708 389.769L887.444 389.608L887.169 389.735L884.967 390.767L884.909 390.801L884.863 390.836L883.659 391.788L883.349 392.029L883.464 392.396L884.508 395.699L884.129 399.989L884.118 400.104L884.152 400.218L885.185 403.155L885.38 403.728L885.93 403.487L887.008 403.017L887.318 402.88L887.341 402.535L887.766 394.954L888.982 393.543L889.085 393.417L889.108 393.245L889.36 391.214L889.406 390.859L889.108 390.675L887.708 389.769ZM895.36 373.183L895.372 373.16L896.966 370.671L897.092 370.476L897.035 370.247L896.347 367.368L896.243 366.966L895.819 366.943L893.628 366.84L892.997 366.806L893.054 367.437L893.226 369.444L891.953 370.545L891.93 370.556L891.919 370.579L889.234 373.355L889.073 373.527L889.085 373.768L889.28 380.421V380.467V380.49L890.071 385.858L890.117 386.144L890.381 386.282L891.379 386.775L892.079 387.131L892.182 386.351L892.584 383.277L893.18 379.205V379.159L893.364 376.039L895.36 373.183ZM407.689 155.295L407.345 155.41L405.647 155.949L405.131 156.11L405.28 156.626L405.899 158.782L406.003 159.138L406.37 159.184L408.458 159.413L408.928 159.47L409.054 159.011L409.444 157.624L409.524 157.325L409.318 157.096L407.93 155.547L407.689 155.295ZM402.481 51.3062L402.354 51.4783L401.081 53.3364L400.806 53.7264L401.15 54.0476L403.008 55.7911L403.375 56.1352L403.754 55.8026L405.647 54.1623L405.154 54.8046L404.832 55.229L405.245 55.5732L406.645 56.7316L406.932 56.9725L407.264 56.8005L409.708 55.5273L409.937 55.4126L409.995 55.1717L410.695 52.2697L410.821 51.7306L410.293 51.593L408.435 51.1342L408.079 51.0424L407.85 51.3292L406.542 53.0268L406.427 52.8547L405.154 50.9965L404.936 50.6754L404.557 50.7671L402.699 51.2259L402.481 51.3062ZM913.91 180.484L911.926 180.013L911.765 179.968L911.604 180.025L906.706 181.895L905.903 182.204L906.511 182.812L908.84 185.141L909.195 185.496L909.585 185.175L914.128 181.447L915 180.736L913.91 180.484ZM402.182 43.8735L401.643 44.7682L400.943 45.9267L400.829 46.1217L400.875 46.3396L401.345 48.3125L401.54 49.1269L402.217 48.6337L403.49 47.7046L403.869 47.4293L403.674 47.0164L402.63 44.8141L402.182 43.8735ZM410.695 60.7347L410.924 60.4365L410.729 60.1153L409.57 58.1425L409.157 57.4428L408.653 58.0851L407.379 59.7139L407.127 60.0351L407.356 60.3677L408.63 62.2259L409.066 62.8567L409.536 62.2488L410.695 60.7347ZM413.195 41.568L413.241 41.7974L413.436 41.9236L415.765 43.4377L416.224 43.7359L416.534 43.2771L417.933 41.1895L418.105 40.9257L417.956 40.6389L416.683 38.0811L416.431 37.5879L415.937 37.8402L413.15 39.2396L412.771 39.4346L412.851 39.8475L413.195 41.568ZM407.861 47.739L407.964 47.8537L408.102 47.8996L412.519 49.4136L413.138 49.6201L413.253 48.9778L413.838 45.6055L413.884 45.3073L413.654 45.1008L409.238 41.1551L408.905 40.8569L408.549 41.1092L405.062 43.5524L404.557 43.9079L404.959 44.3782L407.861 47.739ZM400.393 37.5993L400.771 38.127L401.23 37.6682L403.043 35.8559L402.607 35.4659L400.278 33.3783L399.693 32.8507L399.395 33.5733L398.81 34.9612L398.695 35.2479L398.878 35.5003L400.393 37.5993ZM419.184 38.5858L419.23 38.6775L419.298 38.7349L420.457 39.7787L420.801 40.0884L421.168 39.8016L422.683 38.6431L423.199 38.2417L422.729 37.7943L420.526 35.7067L420.17 35.3741L419.792 35.6838L418.633 36.6129L418.266 36.8997L418.495 37.3126L419.184 38.5858ZM319.653 139.581L319.722 140.59L320.537 139.994L322.464 138.594L322.693 138.422V134.546L322.258 134.442L319.986 133.915L319.252 133.743L319.309 134.488L319.653 139.581ZM385.778 33.9174L385.823 34.1009L385.973 34.2156L388.06 35.8444L388.233 35.982L388.451 35.9706L391.25 35.7526L392.936 37.1176L393.349 37.4502L391.009 37.7599L390.928 37.7714L390.86 37.8058L389.414 38.4252L386.351 37.5535L385.709 37.3699L385.651 38.0352L385.422 40.4784L385.399 40.7422L385.583 40.9257L387.785 43.128L389.965 45.8808L390.492 46.5461L390.894 45.812L391.594 44.5388L391.697 44.3553L391.651 44.1603L391.181 42.0268L393.51 41.4877L397.192 42.715L397.525 42.8183L397.766 42.5774L400.209 40.1342L400.576 39.7672L400.232 39.3772L398.03 36.8194L397.938 36.7161L397.8 36.6702L395.942 35.9706L395.655 35.8673L395.414 36.0509L393.556 37.4732L393.395 37.4961L393.739 37.0832L394.898 35.6953L395.242 35.2824L394.84 34.9268L392.512 32.8392L392.282 32.6327L391.984 32.7245L390.137 33.2865L385.938 30.5796L384.757 29.8111L385.101 31.176L385.778 33.9174ZM56.0518 142.059L56.2927 142.586L56.8089 142.311L63.107 139.03L63.3938 138.881L63.4053 138.56L63.9559 126.516L63.9674 126.344L63.8756 126.195L60.8585 121.538L60.1587 120.46L59.849 121.699L58.6674 126.425L56.4762 125.025L54.0786 118.097L53.8492 117.432L53.2526 117.81L50.3961 119.634L46.4727 119.37L45.532 119.313L45.9221 120.162L56.0518 142.059ZM288.622 152.049L288.783 152.255L289.046 152.267L295.115 152.428L295.539 152.439L295.666 152.038L296.365 149.778L296.4 149.663L296.388 149.549L296.01 146.153L295.987 145.97L295.861 145.832L292.637 142.334L292.385 142.07L292.041 142.196L287.417 143.813L287.142 143.905L287.062 144.18L285.938 148.161L285.857 148.424L286.029 148.642L288.622 152.049ZM399.383 45.422L399.154 44.86L398.615 45.1353L395.483 46.764L394.955 47.0393L395.253 47.544L397.227 50.9163L397.582 51.5242L398.087 51.0424L400.416 48.8401L400.691 48.5763L400.542 48.2207L399.383 45.422ZM323.336 134.878L323.497 139.489L320.514 142.471L320.238 142.747L320.399 143.102L322.854 148.528L322.98 148.814L323.29 148.849L325.63 149.136L325.779 151.131L325.814 151.544L326.227 151.636L329.313 152.324L331.355 153.345L332.078 153.701L332.158 152.898L333.557 139.615L334.567 134.718L338.743 130.21L343.859 128.501L344.031 128.443L344.134 128.294L346.234 125.323L346.394 125.094L346.303 124.83L345.568 122.639L348.104 124.245L348.264 124.348L348.459 124.326L351.958 123.97L352.314 123.936L353.163 121.378L355.01 121.515L355.572 121.561L355.606 120.999L355.733 119.118L357.832 119.91L358.44 120.139L358.566 119.497L358.876 117.948L360.23 119.416L360.677 119.91L361.079 119.37L362.65 117.271L362.73 117.157L362.753 117.019L363.132 114.748L365.38 116.342L365.748 116.595L366.08 116.296L367.79 114.736L371.541 115.551L371.862 115.62L372.08 115.367L375.246 111.708L400.553 111.181H400.691L400.806 111.112L406.932 107.786L407.173 107.648L407.219 107.373L407.918 102.819L407.953 102.578L407.792 102.383L405.165 99.2288L404.936 98.9535L404.591 99.0452L398.466 100.617L398.202 100.685L398.087 100.926L397.204 102.842L387.269 102.016L382.852 98.2767L382.554 98.0244L382.221 98.2194L378.436 100.353L374.661 98.7126L374.386 98.5979L374.134 98.7585L369.201 101.993H364.967L364.807 102.131L363.155 103.599L360.711 101.007L359.989 100.25L359.759 101.27L358.451 106.994L355.721 107.143L355.262 107.166L355.193 107.613L354.895 109.713L347.553 111.995L344.938 110.848L344.559 110.676L344.295 110.997L342.54 113.096L342.219 113.486L344.444 115.711L341.978 118.051L337.24 116.09L336.609 115.826L336.483 116.503L335.875 119.875L332.686 119.726L332.135 119.703L332.1 120.254L331.94 122.915L327.351 125.289L324.426 124.314L324.15 124.222L323.921 124.394L320.422 127.021L320.216 127.182L320.204 127.445L320.032 131.299L320.021 131.54L320.193 131.712L323.336 134.878ZM337.24 159.172L336.712 159.31L332.513 160.353L332.158 160.445L332.1 160.801L331.401 164.827L331.366 165.033L331.47 165.217L334.097 169.598L334.28 169.908L334.636 169.874L337.963 169.518L338.444 169.472L338.467 168.991L338.639 164.437V164.345L338.617 164.265L337.389 159.711L337.24 159.172ZM25.6283 286.698L18.2977 277.051L22.6226 264.767L18.8828 261.681L16.1639 263.585L5.40327 256.233L3.64807 259.032L4.04959 267.554L0 271.878L1.21602 278.565L8.39744 278.152L16.0607 287.787L21.7966 291.171L22.1064 290.804L25.6283 286.698Z" fill="#262626"/>
</svg>
